<svg width="25" height="24" viewBox="0 0 25 24" fill="none" xmlns="http://www.w3.org/2000/svg">
<path d="M12.863 3.32779C5.13713 3.32529 1.26755 12.6646 6.72897 18.1277C7.94141 19.3405 9.48626 20.1664 11.1681 20.5012C12.85 20.8359 14.5934 20.6643 16.1778 20.0082C17.7622 19.352 19.1164 18.2408 20.0692 16.8149C21.022 15.3891 21.5305 13.7128 21.5305 11.9979C21.5305 7.21071 17.651 3.32946 12.863 3.32779ZM7.95326 7.65242C8.37081 5.48719 11.1978 4.90713 12.4337 6.73316C13.6697 8.55835 12.082 10.9686 9.91681 10.5519C9.59744 10.4905 9.2933 10.3669 9.02175 10.1879C8.75021 10.009 8.51659 9.77829 8.33424 9.50902C8.15189 9.23975 8.02438 8.93719 7.95901 8.61863C7.89365 8.30006 7.89169 7.97174 7.95326 7.65242ZM11.5553 15.1432C11.1353 17.3076 8.30747 17.8835 7.074 16.0566C5.84054 14.2298 7.42987 11.8229 9.5951 12.2404C9.91451 12.3021 10.2186 12.4262 10.49 12.6055C10.7615 12.7848 10.9949 13.0159 11.1769 13.2855C11.359 13.5551 11.4861 13.8579 11.551 14.1767C11.616 14.4955 11.6174 14.8239 11.5553 15.1432ZM12.6054 13.1388C11.6453 12.953 11.387 11.6995 12.1962 11.1495C13.0046 10.5994 14.0764 11.2995 13.8964 12.2612C13.8697 12.4038 13.8151 12.5396 13.7357 12.661C13.6563 12.7823 13.5537 12.8868 13.4338 12.9683C13.3139 13.0499 13.1791 13.1069 13.0371 13.1362C12.895 13.1655 12.7478 13.1664 12.6054 13.1388ZM17.771 16.3375C17.3534 18.5027 14.5265 19.082 13.2905 17.2568C12.0537 15.4307 13.6414 13.0213 15.8074 13.4372C16.1269 13.4985 16.4311 13.6222 16.7027 13.8012C16.9743 13.9802 17.208 14.211 17.3903 14.4804C17.5727 14.7497 17.7002 15.0524 17.7655 15.3711C17.8308 15.6897 17.8327 16.0181 17.771 16.3375ZM16.1316 11.752C13.9664 11.3345 13.3872 8.50501 15.2132 7.26821C17.0384 6.03225 19.4478 7.61992 19.0319 9.78515C18.971 10.1049 18.8475 10.4095 18.6687 10.6815C18.4899 10.9534 18.2592 11.1875 17.9898 11.3702C17.7204 11.5529 17.4176 11.6806 17.0987 11.7462C16.7799 11.8117 16.4512 11.8137 16.1316 11.752ZM14.1873 21.388L16.0741 21.8964C16.8675 22.107 17.7121 21.9938 18.4221 21.5818C19.1321 21.1699 19.6494 20.4928 19.8604 19.6995L20.3938 17.6977C18.8921 19.698 16.6611 21.0243 14.1864 21.388H14.1873ZM20.5571 4.99881L18.5877 4.47458C19.583 5.24012 20.4162 6.19572 21.0392 7.28591C21.6621 8.37609 22.0623 9.57916 22.2164 10.8253L22.7582 8.77587C22.9655 7.98307 22.85 7.14041 22.4371 6.43257C22.0243 5.72473 21.3476 5.20945 20.5554 4.99964L20.5571 4.99881ZM3.42112 13.508L2.97023 15.2082C2.75971 16.0016 2.87287 16.8462 3.28483 17.5562C3.6968 18.2662 4.37385 18.7835 5.16714 18.9945L6.92315 19.4628C5.0484 17.9889 3.79856 15.8628 3.42112 13.508ZM11.4928 2.58438L9.65344 2.10433C9.26031 1.99961 8.85039 1.97339 8.44712 2.02718C8.04384 2.08097 7.65513 2.21371 7.30318 2.41782C6.95124 2.62192 6.64298 2.89339 6.39601 3.2167C6.14905 3.54001 5.96822 3.90883 5.86388 4.30206L5.40466 6.03725C6.91959 4.15175 9.09702 2.91652 11.4928 2.58438Z" fill="white"/>
</svg>
