<svg width="24" height="24" viewBox="0 0 24 24" fill="none" xmlns="http://www.w3.org/2000/svg">
<path d="M12 2C17.5228 2 22 6.47715 22 12C22 17.5228 17.5228 22 12 22C6.47715 22 2 17.5228 2 12C2 6.47715 6.47715 2 12 2ZM16.0889 8.01953C15.7127 8.02616 15.1355 8.22772 12.3584 9.38281C11.3857 9.7874 9.44135 10.6245 6.52637 11.8945C6.0532 12.0827 5.80577 12.2672 5.7832 12.4473C5.74028 12.7927 6.23734 12.9001 6.86328 13.1035C7.37386 13.2695 8.06092 13.464 8.41797 13.4717C8.74172 13.4786 9.10306 13.3451 9.50195 13.0713C12.2257 11.2327 13.6324 10.3032 13.7207 10.2832C13.783 10.2691 13.8694 10.2508 13.9277 10.3027C13.986 10.3545 13.9798 10.4526 13.9736 10.4795C13.9241 10.6905 11.3692 13.0151 11.2188 13.1709C10.6561 13.7553 10.0159 14.1131 11.0029 14.7637C11.8571 15.3266 12.3545 15.6859 13.2344 16.2627C13.7968 16.6314 14.2386 17.0691 14.8193 17.0156C15.0864 16.9908 15.3618 16.7392 15.502 15.9902C15.8332 14.2192 16.4852 10.382 16.6357 8.80078C16.6489 8.66231 16.6315 8.48511 16.6182 8.40723C16.6049 8.32951 16.5774 8.21877 16.4766 8.13672C16.3568 8.03955 16.1717 8.0181 16.0889 8.01953Z" fill="white"/>
</svg>
