<svg width="25" height="24" viewBox="0 0 25 24" fill="none" xmlns="http://www.w3.org/2000/svg">
<path d="M21.8007 8.03516C21.8007 8.03516 21.6054 6.65625 21.0038 6.05078C20.2421 5.25391 19.3906 5.25 18.9999 5.20312C16.2031 5 12.0038 5 12.0038 5H11.996C11.996 5 7.79681 5 4.99994 5.20312C4.60931 5.25 3.75775 5.25391 2.99603 6.05078C2.39447 6.65625 2.20306 8.03516 2.20306 8.03516C2.20306 8.03516 1.99994 9.65625 1.99994 11.2734V12.7891C1.99994 14.4062 2.19916 16.0273 2.19916 16.0273C2.19916 16.0273 2.39447 17.4063 2.99213 18.0117C3.75385 18.8086 4.75385 18.7813 5.19916 18.8672C6.80072 19.0195 11.9999 19.0664 11.9999 19.0664C11.9999 19.0664 16.2031 19.0586 18.9999 18.8594C19.3906 18.8125 20.2421 18.8086 21.0038 18.0117C21.6054 17.4063 21.8007 16.0273 21.8007 16.0273C21.8007 16.0273 21.9999 14.4102 21.9999 12.7891V11.2734C21.9999 9.65625 21.8007 8.03516 21.8007 8.03516ZM9.93353 14.6289V9.00781L15.3359 11.8281L9.93353 14.6289Z" fill="white"/>
</svg>
