<svg width="151" height="151" viewBox="0 0 151 151" fill="none" xmlns="http://www.w3.org/2000/svg">
<path d="M79.0879 57.1594C74.2378 57.1724 69.5224 58.7971 65.6857 61.7773C61.8489 64.7575 59.1091 68.9236 57.8984 73.6184L58.8419 73.6178C59.7243 70.4587 61.6188 67.671 64.2351 65.6822C66.8513 63.6933 70.0447 62.6131 73.3256 62.6073C77.1158 62.6052 80.7594 64.0365 83.5233 66.6132C86.2872 69.1898 87.9662 72.7205 88.2225 76.4949L100.694 76.4875C100.11 71.168 97.5855 66.2582 93.6009 62.6937C89.6162 59.1292 84.4504 57.1593 79.0879 57.1594Z" fill="#FF0000"/>
<path d="M68.0905 97.38C72.9407 97.367 77.6561 95.7422 81.4928 92.762C85.3296 89.7818 88.0694 85.6158 89.2801 80.921L88.3366 80.9215C87.4542 84.0806 85.5596 86.8683 82.9434 88.8572C80.3272 90.846 77.1338 91.9262 73.8529 91.932C70.0627 91.9341 66.419 90.5028 63.6551 87.9262C60.8912 85.3495 59.2122 81.8188 58.956 78.0445L46.4841 78.0519C47.068 83.3713 49.5929 88.2811 53.5776 91.8456C57.5622 95.4101 62.7281 97.3801 68.0905 97.38Z" fill="#FF0000"/>
<path d="M73.5896 83.8549C77.3321 83.8514 80.3794 80.8169 80.3959 77.077C80.4124 73.3371 77.3919 70.3082 73.6494 70.3116C69.9069 70.3151 66.8597 73.3497 66.8432 77.0896C66.8267 80.8294 69.8472 83.8584 73.5896 83.8549Z" fill="black"/>
<g filter="url(#filter0_f_1622_9542)">
<path d="M80.3911 78.7024C80.4011 78.6651 80.4108 78.6278 80.4201 78.5904C80.466 78.3691 80.5007 78.1457 80.5243 77.9211C80.5478 77.6964 80.5601 77.4708 80.5611 77.245C80.5619 77.0851 80.5569 76.9254 80.5463 76.7659C80.5313 76.5407 80.505 76.3165 80.4676 76.0941C80.4302 75.8716 80.3817 75.6513 80.3222 75.4338C80.2628 75.2163 80.1924 75.002 80.1114 74.7916C80.0305 74.5813 79.9391 74.3751 79.8375 74.174C79.7359 73.9729 79.6243 73.7771 79.5031 73.5872C79.3818 73.3973 79.2512 73.2137 79.1115 73.037C78.9718 72.8603 78.8234 72.6907 78.6667 72.5289C78.51 72.3671 78.3453 72.2132 78.1732 72.0679C78.001 71.9226 77.8216 71.7861 77.6357 71.6588C77.4498 71.5315 77.2575 71.4136 77.0597 71.3055C76.8619 71.1975 76.6588 71.0994 76.4511 71.0117C76.2434 70.924 76.0314 70.8467 75.8158 70.7801C75.6003 70.7136 75.3815 70.658 75.1603 70.6133C74.9391 70.5687 74.7157 70.5351 74.491 70.5128C74.2663 70.4905 74.0406 70.4794 73.8146 70.4796C73.6547 70.4797 73.4949 70.4855 73.3353 70.4969C73.1099 70.5131 72.8853 70.5406 72.6625 70.5792C72.5597 70.5999 72.4574 70.623 72.3556 70.6484C71.705 71.1859 71.1801 71.8595 70.8182 72.6211C70.4563 73.3828 70.2662 74.2138 70.2616 75.0552C70.2549 76.5749 70.8526 78.0317 71.9231 79.1052C72.9937 80.1788 74.4495 80.7811 75.9702 80.7796C76.8128 80.7785 77.6458 80.5917 78.4099 80.2327C79.1741 79.8737 79.8505 79.3511 80.3911 78.7024Z" fill="#B3B3B3"/>
</g>
<path d="M68.184 62.9597C65.3246 64.071 62.8628 66.0163 61.1213 68.5406C59.3798 71.0649 58.4398 74.0504 58.4245 77.1058C58.4146 79.0969 58.7978 81.068 59.5522 82.9064C60.3067 84.7449 61.4176 86.4147 62.8216 87.8206C64.2256 89.2264 65.8951 90.3408 67.7349 91.1001C69.5746 91.8593 71.5486 92.2486 73.5441 92.2456C77.574 92.2396 81.4469 90.6364 84.3107 87.7887C87.1745 84.9411 88.7946 81.0821 88.8147 77.0608C88.8246 75.0697 88.4414 73.0986 87.687 71.2602C86.9325 69.4217 85.8216 67.7519 84.4176 66.346C83.0136 64.9402 81.3441 63.8258 79.5043 63.0665C77.6645 62.3073 75.6906 61.918 73.6951 61.921C71.8117 61.9238 69.9429 62.276 68.184 62.9597ZM71.1984 70.792C71.9819 70.4875 72.8143 70.3307 73.6532 70.3294C74.5421 70.3281 75.4213 70.5015 76.2408 70.8397C77.0603 71.1779 77.804 71.6743 78.4294 72.3005C79.0548 72.9267 79.5497 73.6706 79.8857 74.4895C80.2218 75.3084 80.3924 76.1864 80.388 77.0733C80.3791 78.8645 79.6574 80.5834 78.3818 81.8519C77.1062 83.1204 75.3811 83.8345 73.586 83.8371C72.6971 83.8385 71.8178 83.6651 70.9983 83.3269C70.1788 82.9887 69.4352 82.4923 68.8098 81.8661C68.1844 81.2398 67.6896 80.496 67.3535 79.6771C67.0174 78.8582 66.8467 77.9802 66.8512 77.0933C66.858 75.7323 67.2767 74.4024 68.0524 73.278C68.8281 72.1536 69.9247 71.2871 71.1984 70.792Z" fill="white"/>
<path d="M102.723 102.997C102.26 102.997 101.869 103.166 101.55 103.503C101.452 103.613 101.231 103.93 100.886 104.455C100.644 104.844 100.586 105.07 100.71 105.135C100.788 105.174 100.882 105.132 100.993 105.009C101.052 104.957 101.11 104.899 101.169 104.834C101.228 104.762 101.299 104.685 101.384 104.601C101.534 104.426 101.749 104.338 102.029 104.338C102.322 104.338 102.742 104.448 103.289 104.669C103.465 104.746 103.706 104.863 104.013 105.018C104.013 105.096 103.811 105.336 103.407 105.737C103.205 105.958 102.791 106.369 102.166 106.971C102.107 107.043 102.058 107.133 102.019 107.243C101.98 107.354 101.957 107.47 101.951 107.593C101.944 107.716 101.957 107.843 101.99 107.972C102.016 108.095 102.074 108.209 102.166 108.312L103.602 106.903C104.078 106.437 104.527 106.019 104.951 105.65C105.439 105.222 105.667 105.022 105.635 105.048C105.732 104.97 105.859 104.824 106.016 104.61C106.172 104.396 106.319 104.095 106.455 103.707C106.514 103.571 106.543 103.451 106.543 103.347C106.524 103.276 106.485 103.23 106.426 103.211C106.38 103.192 106.302 103.211 106.192 103.269C106.009 103.38 105.843 103.464 105.693 103.522C105.511 103.587 105.325 103.619 105.136 103.619C104.876 103.619 104.465 103.519 103.905 103.318C103.338 103.104 102.944 102.997 102.723 102.997Z" fill="black"/>
<path d="M105.803 95.8374C105.74 95.8285 105.683 95.8353 105.63 95.8579C105.526 95.9098 105.302 96.2757 104.956 96.9559C104.611 97.636 104.438 98.083 104.438 98.2968C104.438 98.4069 104.507 98.5202 104.644 98.6368C104.806 98.7664 105.051 98.9445 105.376 99.1712C105.702 99.3914 105.894 99.5016 105.953 99.5016C106.096 99.5016 106.331 99.2133 106.657 98.6368C106.982 98.0539 107.145 97.6102 107.145 97.3057C107.119 97.0725 106.911 96.7519 106.52 96.3438C106.231 96.0329 105.993 95.8641 105.803 95.8374Z" fill="black"/>
<path d="M97.7041 115.714C97.6406 115.705 97.5829 115.713 97.5308 115.735C97.4265 115.787 97.2018 116.153 96.8565 116.833C96.5112 117.513 96.3386 117.96 96.3386 118.174C96.3386 118.284 96.4071 118.397 96.5439 118.514C96.7068 118.644 96.951 118.818 97.2767 119.039C97.6025 119.265 97.7946 119.379 97.8532 119.379C97.9965 119.379 98.2311 119.087 98.5569 118.504C98.8826 117.928 99.0454 117.487 99.0454 117.183C99.0193 116.95 98.814 116.626 98.4297 116.211C98.1365 115.905 97.8947 115.739 97.7041 115.714Z" fill="black"/>
<path d="M102.165 106.971C102.048 107.107 101.657 107.153 100.993 107.107C100.328 107.056 99.69 107.094 99.0776 107.224C98.9604 107.341 98.8692 107.493 98.8041 107.681C98.7324 107.862 98.6834 108.06 98.6574 108.273C98.6313 108.487 98.6248 108.704 98.6379 108.924C98.6444 109.145 98.6705 109.342 98.7161 109.517C98.7552 109.698 98.8072 109.847 98.8724 109.964C98.931 110.081 98.9995 110.142 99.0776 110.149C99.1819 110.168 99.3122 110.181 99.4685 110.187C99.6249 110.194 99.7975 110.178 99.9864 110.139C100.084 110.126 100.24 110.081 100.455 110.003C100.677 109.925 100.947 109.715 101.267 109.371C101.592 109.034 101.892 108.681 102.165 108.312C102.328 108.085 102.41 107.843 102.41 107.583C102.416 107.324 102.335 107.12 102.165 106.971Z" fill="black"/>
<path d="M98.4335 107.379C98.5377 107.334 98.6419 107.301 98.7462 107.282C98.8569 107.262 98.9644 107.243 99.0686 107.223C99.251 107.47 99.3715 107.725 99.4302 107.991C99.4888 108.257 99.5083 108.519 99.4888 108.778C99.4692 109.031 99.4171 109.274 99.3324 109.507C99.2543 109.74 99.1663 109.954 99.0686 110.148C98.9318 110.129 98.7331 110.119 98.4725 110.119C98.212 110.119 97.9221 110.164 97.6029 110.255C97.3162 110.333 96.9254 110.488 96.4303 110.721C95.7072 111.116 95.1013 111.622 94.6128 112.237C94.1307 112.846 93.5509 113.626 92.8734 114.579C92.1959 115.524 91.5054 116.337 90.8018 117.017C90.0983 117.704 89.5185 118.213 89.0625 118.543C88.5999 118.873 88.1733 119.152 87.7824 119.378C87.3915 119.612 86.9713 119.819 86.5218 120C86.4828 120.02 86.4339 120.039 86.3753 120.059C86.3036 120.091 86.2254 120.12 86.1408 120.146C85.9714 120.217 85.8346 120.217 85.7303 120.146C85.6978 120.101 85.7401 120.01 85.8574 119.874C86.0072 119.719 86.2873 119.479 86.6977 119.155C87.1668 118.857 87.6977 118.472 88.2905 117.999C88.8768 117.526 89.4827 116.956 90.108 116.289C90.7269 115.628 91.3132 114.86 91.8669 113.986C92.134 113.636 92.3848 113.27 92.6193 112.888C93.4858 111.638 94.046 110.861 94.3001 110.556C95.0427 109.643 95.7593 108.943 96.4498 108.457C97.1469 107.972 97.8081 107.612 98.4335 107.379Z" fill="black"/>
<path d="M89.1906 100.205C89.6271 99.726 90.5652 98.9098 92.0049 97.7568C93.3403 96.7075 94.6204 95.6808 95.8451 94.6768C96.8223 93.893 97.7017 93.1319 98.4834 92.3934C99.0893 91.8299 99.8808 91.072 100.858 90.1198C102.311 88.7272 103.057 87.9984 103.096 87.9337C103.154 87.9337 103.144 88.047 103.066 88.2737C102.988 88.5004 102.789 88.8859 102.47 89.43C102.125 90.0324 101.855 90.4502 101.659 90.6834C101.34 91.1109 100.998 91.5254 100.633 91.927C100.255 92.3351 99.959 92.6461 99.744 92.8598C99.4769 93.1383 98.9688 93.6047 98.2196 94.259C97.5747 94.829 96.7636 95.5286 95.7865 96.3577C95.4021 96.6751 95.0406 96.9698 94.7018 97.2419C94.3696 97.5139 94.0504 97.7633 93.7442 97.99C93.0146 98.573 92.2133 99.1786 91.3404 99.807L89.2786 101.41C89.1287 101.54 88.9822 101.66 88.8388 101.77C88.702 101.88 88.5652 101.99 88.4284 102.1C88.1614 102.314 88.005 102.385 87.9594 102.314C88.1223 101.867 88.3014 101.468 88.4968 101.119C88.7248 100.743 88.9561 100.439 89.1906 100.205ZM87.7933 103.703C87.7737 103.923 87.7412 104.791 87.6956 106.307C87.6369 107.991 87.5295 109.387 87.3731 110.495C87.3014 111.175 87.0474 111.975 86.6109 112.895C86.1875 113.808 85.6012 114.469 84.852 114.877C84.826 114.715 84.7934 114.556 84.7543 114.401C84.7087 114.239 84.6794 114.077 84.6664 113.915C84.6468 113.753 84.6501 113.594 84.6762 113.439C84.6957 113.277 84.7543 113.115 84.8521 112.953C84.9498 112.895 85.1745 112.752 85.5263 112.526C85.8781 112.299 86.0637 112.092 86.0833 111.904C86.2071 111.476 86.2852 110.725 86.3178 109.65C86.3439 108.587 86.3569 107.829 86.3569 107.376C86.3569 106.443 86.4351 105.727 86.5914 105.229C86.7608 104.743 86.9627 104.228 87.1972 103.684C87.5165 103.017 87.7249 102.586 87.8226 102.391C87.9334 102.32 87.9725 102.398 87.9399 102.625C87.8422 103.195 87.7933 103.554 87.7933 103.703ZM101.366 88.5458C101.301 88.7854 100.965 89.2032 100.36 89.7992C99.5257 90.6348 98.5128 91.4801 97.3206 92.3351C97.3597 92.2574 97.389 92.1797 97.4086 92.1019C97.4281 92.0242 97.4574 91.9368 97.4965 91.8396C97.6724 91.587 98.2196 91.0429 99.1381 90.2073C99.6072 89.7668 100.073 89.3814 100.535 89.051C100.991 88.7207 101.268 88.5523 101.366 88.5458Z" fill="black"/>
<path d="M85.3606 112.632C85.2434 112.71 84.807 112.956 84.0513 113.371C83.5822 113.604 83.1685 113.934 82.8102 114.362C82.4845 114.751 82.0774 115.44 81.5889 116.431C81.4455 116.755 81.1393 117.086 80.6702 117.423C80.338 117.656 79.8201 117.973 79.1166 118.375C78.8821 118.511 78.5303 118.718 78.0613 118.997C77.4619 119.379 77.1624 119.68 77.1624 119.9C77.1624 119.939 77.2502 119.958 77.4261 119.958H77.7682C77.905 119.958 78.0221 119.949 78.1199 119.929C79.3576 119.787 80.2175 119.544 80.6996 119.201C81.1752 118.87 81.6637 118.206 82.1653 117.209C82.4389 116.665 82.6767 116.289 82.8786 116.082C83.1913 115.764 83.706 115.434 84.4226 115.091C84.7549 114.935 85.022 114.757 85.2239 114.556C85.3998 114.388 85.5724 114.168 85.7418 113.896C85.8004 113.779 85.9079 113.591 86.0642 113.332C86.2206 113.066 86.3769 112.924 86.5332 112.904L85.3606 112.632Z" fill="black"/>
<path d="M85.036 97.5552C84.9729 97.5462 84.9154 97.5532 84.8633 97.5758C84.7591 97.6276 84.5343 97.9936 84.189 98.6738C83.8438 99.3539 83.6711 99.8008 83.6711 100.015C83.6711 100.125 83.7395 100.238 83.8763 100.355C84.0391 100.484 84.2834 100.662 84.6091 100.889C84.9348 101.109 85.1271 101.219 85.1857 101.219C85.3291 101.219 85.5635 100.931 85.8892 100.355C86.2149 99.7716 86.3779 99.3279 86.3779 99.0235C86.3518 98.7903 86.1434 98.4697 85.7525 98.0616C85.4643 97.7507 85.2254 97.5819 85.036 97.5552Z" fill="black"/>
<path d="M80.2362 105.61C80.2102 106.316 80.1906 106.951 80.1776 107.514C80.1711 108.071 80.145 108.544 80.0994 108.933C80.0213 109.769 79.8584 110.51 79.6108 111.158C79.3698 111.799 79.1776 112.227 79.0343 112.441C78.8975 112.654 78.7835 112.81 78.6923 112.907C78.5881 113.004 78.5067 113.036 78.448 113.004C78.3959 112.972 78.3764 112.917 78.3894 112.839C78.3894 112.819 78.448 112.525 78.5653 111.955C78.6825 111.385 78.7542 110.834 78.7803 110.303C78.8128 109.765 78.8194 109.011 78.7998 108.039C78.7803 107.061 78.8031 106.313 78.8682 105.795C78.9073 105.497 78.9724 105.186 79.0636 104.862C79.1549 104.538 79.2591 104.224 79.3763 103.919C79.5001 103.608 79.6271 103.314 79.7574 103.035C79.8877 102.757 80.0082 102.511 80.119 102.297C80.2102 102.161 80.2884 102.109 80.3535 102.141C80.4187 102.167 80.448 102.219 80.4414 102.297C80.4284 102.342 80.4121 102.443 80.3926 102.598C80.3795 102.747 80.3633 102.928 80.3437 103.142C80.3307 103.349 80.3177 103.573 80.3046 103.813C80.2916 104.052 80.2786 104.289 80.2656 104.522C80.259 104.749 80.2525 104.959 80.246 105.153C80.2395 105.348 80.2362 105.5 80.2362 105.61Z" fill="black"/>
<path d="M75.3933 111.014C75.3803 111.273 75.2793 111.749 75.0904 112.442C74.9015 113.129 74.6507 113.88 74.338 114.696C74.0318 115.512 73.7614 116.131 73.5269 116.552C73.2924 116.967 73.0351 117.284 72.755 117.504C72.4814 117.724 72.0319 117.925 71.4065 118.107C70.7876 118.281 70.2893 118.401 69.9114 118.466C69.5401 118.531 69.3056 118.563 69.2079 118.563C69.1102 118.55 69.0515 118.511 69.032 118.447C69.0124 118.375 69.0418 118.288 69.1199 118.184C69.2242 118.016 69.4945 117.799 69.931 117.533C70.3674 117.268 70.8723 116.934 71.4456 116.533C72.0254 116.124 72.4358 115.771 72.6768 115.473C72.9243 115.169 73.2012 114.716 73.5074 114.113C73.8136 113.511 74.0904 112.905 74.338 112.296C74.592 111.681 74.7712 111.263 74.8754 111.043C74.9862 110.816 75.1034 110.709 75.2272 110.722C75.3379 110.742 75.3933 110.839 75.3933 111.014Z" fill="black"/>
<path d="M72.4306 100.503C72.3915 100.749 72.3297 100.986 72.245 101.213C72.1668 101.439 72.03 101.757 71.8346 102.165C71.6456 102.573 71.5316 102.806 71.4926 102.864C71.3362 103.11 71.1994 103.234 71.0821 103.234C70.9975 103.175 70.9193 103.12 70.8476 103.068C70.7825 103.01 70.7206 102.981 70.662 102.981C70.4144 102.981 70.0887 103.081 69.6848 103.282C69.2874 103.483 68.8477 103.804 68.3656 104.244C67.8901 104.678 67.5188 105.086 67.2517 105.468C66.9846 105.844 66.851 106.103 66.851 106.246C66.851 106.459 66.9194 106.625 67.0562 106.741C67.1735 106.832 67.382 106.935 67.6816 107.052C67.9878 107.169 68.1897 107.266 68.2875 107.344C68.6067 107.564 68.7663 108.001 68.7663 108.655C68.7663 109.556 68.5936 110.589 68.2484 111.755C67.9096 112.914 67.4634 113.921 66.9097 114.776C66.623 115.172 66.2875 115.567 65.9032 115.962C65.5253 116.363 65.1182 116.707 64.6817 116.992C63.8414 117.542 62.874 117.818 61.7796 117.818C60.5353 117.798 59.5907 117.38 58.9458 116.564C58.6526 116.15 58.4507 115.709 58.3399 115.243C58.2292 114.776 58.1738 114.333 58.1738 113.912C58.1738 113.381 58.2129 112.859 58.2911 112.347C58.3693 111.836 58.4898 111.324 58.6526 110.812C58.9067 109.977 59.2129 109.17 59.5712 108.393C59.936 107.616 60.2324 106.987 60.4604 106.508L61.1444 105.05C61.2226 104.889 61.304 104.73 61.3887 104.574C61.4799 104.419 61.5613 104.341 61.633 104.341C61.7307 104.341 61.7796 104.419 61.7796 104.574C61.7861 104.73 61.7698 104.846 61.7307 104.924C61.6265 105.203 61.5353 105.439 61.4571 105.633C61.3789 105.821 61.2617 106.097 61.1053 106.459C60.949 106.816 60.7796 107.204 60.5972 107.625C60.4148 108.04 60.265 108.383 60.1477 108.655C59.5744 110.171 59.2878 111.308 59.2878 112.066C59.2878 112.862 59.5712 113.494 60.1379 113.96C60.7112 114.427 61.5157 114.66 62.5515 114.66C63.4114 114.66 64.242 114.459 65.0433 114.057C65.6426 113.76 66.141 113.397 66.5383 112.969C66.9422 112.542 67.2484 112.14 67.4569 111.764C67.6653 111.389 67.7696 111.052 67.7696 110.754C67.7696 110.566 67.6295 110.43 67.3494 110.346C67.0758 110.255 66.8771 110.197 66.7533 110.171C66.6295 110.139 66.4895 110.084 66.3331 110.006C66.0335 109.863 65.8055 109.682 65.6491 109.462C65.4928 109.241 65.4146 108.943 65.4146 108.568C65.4146 107.991 65.6003 107.263 65.9716 106.382C66.3494 105.494 66.8803 104.623 67.5644 103.768C68.1246 103.068 68.6327 102.502 69.0887 102.068C69.3363 101.841 69.649 101.585 70.0268 101.3C70.4112 101.015 70.7825 100.769 71.1408 100.562C71.5838 100.309 71.9323 100.163 72.1863 100.124C72.2906 100.124 72.3622 100.17 72.4013 100.26C72.4404 100.345 72.4502 100.426 72.4306 100.503Z" fill="black"/>
<path d="M52.1894 115.588C52.1262 115.58 52.0687 115.587 52.0166 115.61C51.9124 115.661 51.6876 116.027 51.3423 116.708C50.9971 117.388 50.8245 117.835 50.8245 118.048C50.8245 118.159 50.8928 118.272 51.0296 118.389C51.1924 118.518 51.4367 118.693 51.7624 118.913C52.0882 119.14 52.2804 119.253 52.3391 119.253C52.4824 119.253 52.7168 118.962 53.0425 118.379C53.3683 117.802 53.5312 117.362 53.5312 117.057C53.5052 116.824 53.2966 116.5 52.9057 116.086C52.6174 115.78 52.3787 115.614 52.1894 115.588Z" fill="black"/>
<path d="M53.1919 107.27C53.1007 107.257 52.9476 107.442 52.7326 107.824C52.5176 108.213 52.3418 108.466 52.205 108.582C52.0617 108.705 51.8076 108.854 51.4428 109.029C51.0324 109.243 50.7458 109.395 50.5829 109.486C50.1399 109.764 49.8175 110.039 49.6156 110.312C49.4071 110.577 49.1042 111.15 48.7068 112.031C48.3159 112.919 48.0847 113.405 48.013 113.489C47.798 113.741 47.4071 114.091 46.8404 114.538C46.8729 114.519 46.6352 114.681 46.127 115.024C45.4691 115.432 45.1173 115.659 45.0717 115.704C44.6092 116.035 44.3388 116.229 44.2606 116.287C44.0456 116.442 43.948 116.566 43.9675 116.656C44.0392 116.799 44.202 116.857 44.456 116.831C44.7492 116.831 45.1531 116.776 45.6677 116.666C46.1693 116.582 46.5701 116.481 46.8697 116.365C47.5082 116.08 47.9869 115.604 48.3061 114.936C48.5015 114.496 48.7621 113.868 49.0878 113.052C49.2702 112.624 49.4592 112.274 49.6546 112.002C49.7132 111.925 49.837 111.814 50.026 111.672C50.2084 111.536 50.7262 111.264 51.5796 110.856C52.1855 110.551 52.7327 109.534 53.2212 107.805C53.2864 107.474 53.2766 107.296 53.1919 107.27Z" fill="black"/>
<path d="M42.1176 107.569C42.085 108.741 42.3097 109.489 42.7918 109.813C43.0524 109.988 43.313 110.046 43.5735 109.988C43.8406 109.93 44.0458 109.794 44.1891 109.58C44.3325 109.366 44.453 109.117 44.5507 108.832C44.6484 108.54 44.7396 108.395 44.8243 108.395C44.9351 108.395 44.9807 108.498 44.9611 108.706C44.9481 109.055 44.8373 109.625 44.6289 110.416C44.4204 111.199 44.1338 111.844 43.769 112.349C43.4107 112.854 42.971 113.12 42.4498 113.146C41.9221 113.127 41.5117 112.832 41.2186 112.262C40.958 111.698 40.8375 110.97 40.857 110.076C40.8766 109.421 40.9645 108.375 41.1209 106.937C41.2837 105.499 41.4987 103.961 41.7658 102.322C41.9221 101.843 42.2381 101.001 42.7136 99.7958C42.7657 99.6792 42.8179 99.6306 42.87 99.65C42.9221 99.6695 42.9482 99.718 42.9482 99.7958C42.9221 100.392 42.8016 101.525 42.5866 103.196C42.3716 104.868 42.2153 106.325 42.1176 107.569ZM44.7168 98.076C44.7168 97.8622 44.8894 97.4153 45.2347 96.7351C45.58 96.055 45.8047 95.689 45.909 95.6372C46.1174 95.5465 46.4138 95.7085 46.7982 96.123C47.189 96.5311 47.3975 96.8517 47.4236 97.0849C47.4236 97.3894 47.2607 97.8331 46.935 98.4161C46.6092 98.9926 46.3747 99.2808 46.2314 99.2808C46.1728 99.2808 45.9806 99.1707 45.6549 98.9505C45.3292 98.7237 45.0849 98.5456 44.922 98.4161C44.7852 98.2995 44.7168 98.1861 44.7168 98.076Z" fill="black"/>
<path d="M53.7204 103.302C53.6683 103.322 53.6259 103.331 53.5934 103.331C53.5608 103.325 53.525 103.318 53.4859 103.312C53.4468 103.299 53.4272 103.27 53.4272 103.224C53.4272 103.179 53.4566 103.134 53.5152 103.088C53.7693 102.959 54.0233 102.787 54.2774 102.573C54.5314 102.36 54.7627 102.136 54.9712 101.903C55.1796 101.663 55.3555 101.427 55.4988 101.194C55.6487 100.961 55.7431 100.76 55.7822 100.591C55.7171 100.591 55.6324 100.582 55.5281 100.562C55.4239 100.543 55.3229 100.501 55.2252 100.436C55.121 100.365 55.0298 100.274 54.9516 100.164C54.8734 100.054 54.8376 99.9209 54.8441 99.7654C54.8572 99.597 54.9125 99.4156 55.0103 99.2213C55.108 99.027 55.2383 98.8521 55.4011 98.6966C55.5705 98.5412 55.7431 98.4148 55.919 98.3177C56.0949 98.2205 56.261 98.1881 56.4174 98.2205C56.5216 98.24 56.6161 98.3015 56.7007 98.4051C56.7919 98.5023 56.831 98.6739 56.818 98.9201C56.805 99.1598 56.73 99.4934 56.5933 99.9209C56.4564 100.342 56.261 100.763 56.007 101.184C55.7529 101.599 55.4337 101.997 55.0493 102.379C54.6585 102.755 54.2155 103.062 53.7204 103.302ZM55.3718 99.367C55.3718 99.4383 55.3881 99.4998 55.4207 99.5517C55.4597 99.597 55.5086 99.6359 55.5672 99.6682C55.6259 99.6942 55.6845 99.7104 55.7431 99.7168C55.8083 99.7168 55.8571 99.7136 55.8897 99.7071C55.9548 99.5776 55.9809 99.4448 55.9679 99.3087C55.9548 99.1727 55.8734 99.1047 55.7236 99.1047C55.5803 99.0982 55.463 99.1857 55.3718 99.367Z" fill="black"/>
<path d="M40 128.778V124.429H41.592C42.0799 124.429 42.455 124.518 42.7173 124.696C42.9796 124.874 43.1107 125.125 43.1107 125.448C43.1107 125.683 43.0304 125.888 42.8698 126.064C42.7112 126.24 42.5079 126.362 42.2599 126.431V126.443C42.5709 126.481 42.819 126.595 43.004 126.785C43.191 126.975 43.2846 127.207 43.2846 127.48C43.2846 127.878 43.1412 128.194 42.8546 128.429C42.5679 128.661 42.1765 128.778 41.6804 128.778H40ZM40.9851 125.151V126.182H41.4181C41.6214 126.182 41.781 126.133 41.8969 126.036C42.0149 125.937 42.0738 125.802 42.0738 125.63C42.0738 125.311 41.8339 125.151 41.3541 125.151H40.9851ZM40.9851 126.91V128.056H41.5188C41.7465 128.056 41.9244 128.003 42.0525 127.898C42.1826 127.793 42.2477 127.65 42.2477 127.468C42.2477 127.294 42.1836 127.157 42.0555 127.058C41.9295 126.959 41.7526 126.91 41.5249 126.91H40.9851Z" fill="black"/>
<path d="M45.8494 128.854C45.2232 128.854 44.7129 128.651 44.3185 128.247C43.924 127.841 43.7268 127.312 43.7268 126.661C43.7268 125.974 43.9271 125.418 44.3276 124.993C44.7281 124.569 45.2588 124.356 45.9196 124.356C46.5437 124.356 47.048 124.56 47.4322 124.966C47.8185 125.372 48.0117 125.908 48.0117 126.573C48.0117 127.256 47.8114 127.807 47.4109 128.226C47.0124 128.644 46.4919 128.854 45.8494 128.854ZM45.8921 125.199C45.5465 125.199 45.272 125.329 45.0687 125.588C44.8654 125.844 44.7637 126.185 44.7637 126.61C44.7637 127.04 44.8654 127.381 45.0687 127.631C45.272 127.882 45.5384 128.007 45.8677 128.007C46.2073 128.007 46.4767 127.886 46.6759 127.644C46.8752 127.399 46.9748 127.06 46.9748 126.628C46.9748 126.177 46.8782 125.826 46.6851 125.575C46.4919 125.325 46.2276 125.199 45.8921 125.199Z" fill="black"/>
<path d="M52.4032 128.778H51.2718L50.5917 127.659C50.5408 127.574 50.492 127.498 50.4453 127.431C50.3985 127.365 50.3507 127.308 50.3019 127.261C50.2552 127.213 50.2054 127.177 50.1525 127.152C50.1017 127.126 50.0458 127.113 49.9848 127.113H49.7194V128.778H48.7344V124.429H50.2958C51.3572 124.429 51.8878 124.823 51.8878 125.612C51.8878 125.763 51.8644 125.904 51.8177 126.033C51.7709 126.161 51.7048 126.276 51.6194 126.379C51.534 126.482 51.4303 126.571 51.3083 126.646C51.1884 126.721 51.0542 126.779 50.9058 126.822V126.834C50.9708 126.854 51.0339 126.887 51.0949 126.934C51.1559 126.978 51.2148 127.031 51.2718 127.092C51.3287 127.152 51.3826 127.218 51.4334 127.289C51.4863 127.357 51.534 127.425 51.5767 127.492L52.4032 128.778ZM49.7194 125.163V126.373H50.1464C50.3579 126.373 50.5276 126.312 50.6557 126.191C50.7858 126.068 50.8509 125.915 50.8509 125.733C50.8509 125.353 50.6222 125.163 50.1647 125.163H49.7194Z" fill="black"/>
<path d="M56.743 128.778H55.7488L53.9464 126.045C53.8407 125.886 53.7675 125.765 53.7268 125.685H53.7146C53.7309 125.838 53.739 126.073 53.739 126.388V128.778H52.8088V124.429H53.8701L55.6054 127.076C55.6847 127.196 55.7579 127.314 55.825 127.431H55.8372C55.821 127.33 55.8128 127.131 55.8128 126.834V124.429H56.743V128.778Z" fill="black"/>
<path d="M61.5952 128.778H60.5217L60.2106 127.81H58.6552L58.3472 128.778H57.2798L58.8718 124.429H60.0398L61.5952 128.778ZM59.9849 127.058L59.5153 125.597C59.4807 125.487 59.4563 125.357 59.4421 125.205H59.4177C59.4075 125.333 59.3821 125.459 59.3414 125.585L58.8656 127.058H59.9849Z" fill="black"/>
<path d="M67.7952 128.778H66.801L64.9986 126.045C64.8929 125.886 64.8197 125.765 64.779 125.685H64.7669C64.7831 125.838 64.7913 126.073 64.7913 126.388V128.778H63.8611V124.429H64.9224L66.6577 127.076C66.737 127.196 66.8102 127.314 66.8773 127.431H66.8895C66.8732 127.33 66.8651 127.131 66.8651 126.834V124.429H67.7952V128.778Z" fill="black"/>
<path d="M71.4245 128.778H68.8018V124.429H71.3239V125.227H69.7868V126.194H71.2172V126.989H69.7868V127.983H71.4245V128.778Z" fill="black"/>
<path d="M77.9754 124.429L76.8196 128.778H75.7278L75.0019 125.988C74.9633 125.842 74.9399 125.68 74.9318 125.5H74.9196C74.9013 125.698 74.8748 125.86 74.8403 125.988L74.0962 128.778H72.9586L71.8088 124.429H72.8854L73.5015 127.325C73.5279 127.448 73.5472 127.614 73.5594 127.822H73.5777C73.5858 127.667 73.6153 127.497 73.6661 127.313L74.4591 124.429H75.5143L76.231 127.349C76.2574 127.457 76.2808 127.612 76.3011 127.816H76.3133C76.3214 127.657 76.3428 127.495 76.3774 127.331L76.9812 124.429H77.9754Z" fill="black"/>
<path d="M78.3352 128.611V127.641C78.5121 127.788 78.7042 127.899 78.9116 127.974C79.119 128.047 79.3284 128.083 79.5398 128.083C79.6639 128.083 79.7716 128.072 79.8631 128.05C79.9566 128.028 80.0339 127.997 80.0949 127.959C80.1579 127.919 80.2047 127.872 80.2352 127.819C80.2657 127.765 80.2809 127.706 80.2809 127.644C80.2809 127.559 80.2565 127.483 80.2077 127.416C80.1589 127.349 80.0919 127.288 80.0065 127.231C79.9231 127.175 79.8235 127.12 79.7076 127.067C79.5917 127.015 79.4667 126.961 79.3325 126.907C78.9909 126.765 78.7357 126.592 78.567 126.388C78.4003 126.184 78.3169 125.937 78.3169 125.648C78.3169 125.422 78.3626 125.228 78.4541 125.066C78.5456 124.902 78.6697 124.768 78.8262 124.663C78.9848 124.558 79.1678 124.481 79.3752 124.432C79.5825 124.382 79.8021 124.356 80.0339 124.356C80.2616 124.356 80.4629 124.371 80.6377 124.399C80.8146 124.425 80.9773 124.467 81.1257 124.523V125.43C81.0525 125.379 80.9722 125.335 80.8848 125.296C80.7994 125.258 80.7109 125.227 80.6194 125.202C80.528 125.176 80.4365 125.157 80.345 125.145C80.2555 125.133 80.1701 125.127 80.0888 125.127C79.977 125.127 79.8753 125.138 79.7838 125.16C79.6923 125.18 79.6151 125.21 79.552 125.248C79.489 125.286 79.4402 125.333 79.4057 125.387C79.3711 125.44 79.3538 125.5 79.3538 125.566C79.3538 125.639 79.3731 125.705 79.4118 125.763C79.4504 125.82 79.5053 125.875 79.5764 125.927C79.6476 125.978 79.734 126.028 79.8357 126.079C79.9373 126.127 80.0522 126.178 80.1803 126.23C80.3551 126.303 80.5117 126.381 80.65 126.464C80.7902 126.545 80.9102 126.637 81.0098 126.74C81.1094 126.843 81.1857 126.961 81.2385 127.095C81.2914 127.226 81.3178 127.38 81.3178 127.556C81.3178 127.798 81.2711 128.002 81.1776 128.168C81.0861 128.332 80.961 128.465 80.8024 128.568C80.6438 128.67 80.4588 128.742 80.2474 128.787C80.038 128.831 79.8163 128.854 79.5825 128.854C79.3426 128.854 79.1139 128.833 78.8964 128.793C78.6808 128.752 78.4938 128.692 78.3352 128.611Z" fill="black"/>
<path d="M87.6035 128.778H86.53L86.2189 127.81H84.6635L84.3555 128.778H83.2881L84.8801 124.429H86.0481L87.6035 128.778ZM85.9932 127.058L85.5235 125.597C85.489 125.487 85.4646 125.357 85.4503 125.205H85.426C85.4158 125.333 85.3904 125.459 85.3497 125.585L84.8739 127.058H85.9932Z" fill="black"/>
<path d="M91.6777 128.487C91.2508 128.731 90.7201 128.854 90.0858 128.854C89.3823 128.854 88.8272 128.66 88.4206 128.274C88.016 127.886 87.8137 127.352 87.8137 126.673C87.8137 125.99 88.0353 125.433 88.4786 125.002C88.9218 124.572 89.5114 124.356 90.2474 124.356C90.711 124.356 91.1196 124.42 91.4734 124.547V125.466C91.1359 125.272 90.7232 125.175 90.2352 125.175C89.8266 125.175 89.4931 125.308 89.2349 125.572C88.9787 125.835 88.8506 126.187 88.8506 126.628C88.8506 127.074 88.9655 127.42 89.1953 127.665C89.427 127.909 89.7391 128.032 90.1315 128.032C90.3674 128.032 90.5544 127.998 90.6927 127.932V127.083H89.8174V126.3H91.6777V128.487Z" fill="black"/>
<path d="M95.1516 128.778H92.5288V124.429H95.0509V125.227H93.5139V126.194H94.9442V126.989H93.5139V127.983H95.1516V128.778Z" fill="black"/>
<path d="M99.793 128.778H98.7988L96.9964 126.045C96.8907 125.886 96.8175 125.765 96.7769 125.685H96.7647C96.7809 125.838 96.7891 126.073 96.7891 126.388V128.778H95.8589V124.429H96.9202L98.6555 127.076C98.7348 127.196 98.808 127.314 98.8751 127.431H98.8873C98.871 127.33 98.8629 127.131 98.8629 126.834V124.429H99.793V128.778Z" fill="black"/>
<path d="M103.935 128.623C103.616 128.777 103.199 128.854 102.684 128.854C102.013 128.854 101.486 128.657 101.102 128.265C100.717 127.873 100.525 127.35 100.525 126.697C100.525 126.002 100.741 125.438 101.172 125.005C101.605 124.573 102.166 124.356 102.855 124.356C103.282 124.356 103.642 124.41 103.935 124.517V125.46C103.642 125.286 103.309 125.199 102.934 125.199C102.524 125.199 102.192 125.328 101.94 125.585C101.688 125.841 101.562 126.189 101.562 126.628C101.562 127.048 101.681 127.384 101.919 127.634C102.157 127.883 102.477 128.007 102.88 128.007C103.264 128.007 103.616 127.914 103.935 127.728V128.623Z" fill="black"/>
<path d="M108 124.429L106.576 127.231V128.778H105.591V127.249L104.203 124.429H105.328L106.033 126.052C106.045 126.082 106.079 126.2 106.134 126.406H106.146C106.172 126.261 106.204 126.147 106.24 126.064L106.957 124.429H108Z" fill="black"/>
<defs>
<filter id="filter0_f_1622_9542" x="0.205933" y="0.424011" width="150.411" height="150.411" filterUnits="userSpaceOnUse" color-interpolation-filters="sRGB">
<feFlood flood-opacity="0" result="BackgroundImageFix"/>
<feBlend mode="normal" in="SourceGraphic" in2="BackgroundImageFix" result="shape"/>
<feGaussianBlur stdDeviation="35.0278" result="effect1_foregroundBlur_1622_9542"/>
</filter>
</defs>
</svg>
