<svg width="20" height="20" viewBox="0 0 20 20" fill="none" xmlns="http://www.w3.org/2000/svg">
<path d="M2.80146 3.3434C4.40744 1.73732 5.45316 1.31124 6.56904 1.95277C6.88998 2.13733 7.19122 2.39572 7.60029 2.81117L8.85615 4.11293C9.54951 4.86951 9.70692 5.59604 9.48115 6.44593L9.4499 6.55824L9.41572 6.66957L9.24775 7.16273C8.88875 8.26658 9.03856 8.88935 10.3161 10.1666C11.645 11.4952 12.2656 11.6046 13.4548 11.1891L13.6667 11.1149L13.9235 11.0319L14.0349 11.0006C14.9382 10.7596 15.7021 10.9516 16.5114 11.7604L17.5222 12.7379L17.82 13.0309C18.15 13.3675 18.3689 13.6338 18.53 13.9157C19.1676 15.0313 18.741 16.077 17.0886 17.7233L16.9313 17.8825C16.6848 18.1201 16.4543 18.2901 16.1159 18.4508C15.5475 18.7207 14.8757 18.823 14.0954 18.7145C12.1725 18.4471 9.73347 16.9299 6.64326 13.8405C6.39175 13.589 6.15112 13.3421 5.92061 13.1002L5.47334 12.6227C1.2818 8.06872 0.91185 5.2717 2.62959 3.51722L2.74092 3.40687L2.80146 3.3434ZM5.946 3.03675C5.56142 2.81563 5.14604 2.90863 4.37764 3.56996L4.13643 3.78578C4.09431 3.82466 4.05063 3.865 4.00654 3.90687L3.73018 4.17738L3.70478 4.20765L3.51728 4.39711C3.06387 4.86039 2.84877 5.42577 3.03389 6.39808C3.33773 7.99393 4.72873 10.1591 7.52705 12.9567C10.4426 15.8715 12.6643 17.2532 14.2673 17.4762C15.2017 17.6062 15.6787 17.3803 16.1647 16.8825L16.5349 16.5075C16.7087 16.3256 16.8577 16.161 16.9831 16.0104L17.154 15.7946C17.5911 15.2123 17.631 14.8629 17.444 14.5358C17.3729 14.4114 17.2694 14.2747 17.1188 14.108L16.9147 13.8922L16.7937 13.7711L15.5173 12.5397C15.0909 12.1465 14.7995 12.0906 14.3571 12.2086L14.2302 12.2448L13.7009 12.4244C12.1676 12.9196 11.0612 12.6798 9.43232 11.0514C7.74512 9.36463 7.54767 8.23769 8.11299 6.61586L8.14912 6.51136L8.24971 6.20961L8.29853 6.01722C8.38595 5.59811 8.28613 5.30571 7.83564 4.85511C7.81713 4.83661 7.79662 4.81543 7.77412 4.79261L6.58857 3.56703C6.31721 3.29952 6.11981 3.13671 5.946 3.03675Z" fill="#00AEEF"/>
</svg>
