<svg width="180" height="37" viewBox="0 0 180 37" fill="none" xmlns="http://www.w3.org/2000/svg">
<g clip-path="url(#clip0_2031_270)">
<path d="M180 8.65287C178.228 8.57497 177.265 9.53582 176.813 10.2214C176.992 9.7228 177.107 9.20861 177.139 8.67365C178.895 5.08992 176.845 3.82264 176.845 3.82264C176.845 3.82264 175.283 5.9521 176.845 8.70481C176.802 9.29171 176.603 9.86822 176.355 10.4084C176.608 7.76993 174.473 7.53621 174.473 7.53621C174.257 9.61373 175.782 10.5174 176.203 10.7304C176.177 10.7875 176.145 10.8447 176.119 10.9018C175.908 11.3121 175.656 11.6964 175.388 12.0652C175.262 11.5095 174.815 10.0136 173.479 9.34365C173.479 9.34365 172.753 11.9146 175.251 12.2522C174.815 12.8339 174.336 13.3896 173.857 13.9454L173.847 13.8155C173.773 13.6441 173.721 13.5143 173.663 13.3896C172.843 11.5718 171.349 10.6525 169.366 10.7823C168.33 10.8499 167.436 11.2861 166.6 11.873C165.643 12.5482 164.839 13.3948 164.018 14.2206C163.708 14.5323 163.214 15.0776 162.767 15.5762C162.583 15.784 162.241 15.7216 162.146 15.4619C161.089 12.6573 159.059 7.2869 158.444 5.36C157.976 3.88496 157.513 2.40992 157.034 0.940077C156.871 0.431085 156.498 0.114263 155.941 0.0311621C155.383 -0.0571325 154.936 0.135038 154.573 0.545348C154.168 1.0076 154.252 1.51659 154.379 2.03597C154.663 3.22016 154.941 4.40954 155.22 5.59372C155.641 7.38559 156.882 12.6781 156.882 12.6781C156.882 12.6781 153.443 4.79388 151.818 0.992015C151.481 0.197364 150.698 -0.155815 149.914 0.124651C149.162 0.394728 148.799 1.1738 149.073 1.96326C150.256 5.34442 153.122 13.5558 153.122 13.5558C153.122 13.5558 149.677 7.12589 148.142 3.84861C148.047 3.64085 147.952 3.4331 147.779 3.2669C147.327 2.8514 146.643 2.78907 146.107 3.12147C145.544 3.46426 145.349 4.08233 145.596 4.73675C146.89 8.18543 150.072 15.8774 150.072 15.8774C150.072 15.8774 146.79 10.8654 145.349 8.43473C144.986 7.82706 144.324 7.6245 143.724 7.92574C143.146 8.22179 142.956 8.85024 143.267 9.47869C143.64 10.2422 144.013 11.0109 144.397 11.7743C145.67 14.3037 146.927 16.2982 148.305 18.7756C149.509 20.9362 150.219 24.6965 146.927 26.665C144.466 28.1348 137.272 27.2051 136.199 26.9922C135.946 26.9402 135.862 27.0078 135.81 27.2207C135.631 27.9582 136.315 29.6254 136.935 30.0877C137.398 30.4305 137.924 30.6382 138.471 30.7941C138.649 30.846 138.702 30.8927 138.671 31.1005C138.502 32.1185 138.944 32.8196 139.948 33.1365C140.348 33.2611 140.758 33.3286 141.174 33.3234C141.416 33.3234 141.484 33.3754 141.479 33.6247C141.468 34.4713 141.873 35.0841 142.636 35.4633C143.041 35.6658 143.482 35.7386 143.924 35.8061C144.382 35.8736 144.755 35.7593 145.149 35.51C147.363 34.1181 147.789 33.4325 149.988 32.0198C150.918 31.4225 151.928 31.1576 152.99 31.007C154.768 30.7525 156.566 30.7629 158.354 30.6954C160.142 30.6278 161.836 30.2279 163.387 29.3346C165.559 28.0881 167 26.2131 168.067 24.0161C168.94 22.2243 169.445 20.3182 169.855 18.3809C170.161 16.9318 170.881 15.7061 172.027 14.74C172.48 14.3609 172.985 14.0804 173.658 14.0077L173.805 13.9921C173.805 13.9921 173.768 14.0388 173.747 14.0596C172.89 15.1243 172.275 16.402 172.064 17.7576L172.627 17.8407C172.827 16.1008 173.794 14.5998 174.957 13.3221C175.183 13.0312 175.404 12.73 175.619 12.4184C175.898 12.6105 177.518 13.5974 178.927 11.6289C178.927 11.6289 177.05 11.2238 175.735 12.2522C176.029 11.8159 176.298 11.3588 176.524 10.8862C179.853 11.203 179.989 8.65807 179.989 8.65807L180 8.65287Z" fill="#00AEEF"/>
<path d="M1.40423 9.39039C1.97744 9.39039 2.5454 9.30729 3.10809 9.1359C3.67079 8.9645 4.12305 8.73597 4.47014 8.45551C4.66997 8.30489 4.833 8.13349 4.95921 7.94132C5.08542 7.74915 5.18008 7.55179 5.25371 7.34404C5.32207 7.13628 5.35888 6.92334 5.35888 6.71039C5.35888 6.41954 5.29578 6.17024 5.17482 5.9521C5.05387 5.73396 4.88559 5.5314 4.68049 5.33403C4.4754 5.14186 4.15986 4.87698 3.73916 4.53938C3.13439 4.06155 2.70316 3.70318 2.44022 3.46427L1.78286 4.58613C1.98796 4.7783 2.21409 4.96527 2.45074 5.15225C2.68739 5.33923 2.91352 5.51582 3.12913 5.68202C3.59191 6.03 3.91796 6.30528 4.11779 6.49745C4.31763 6.68962 4.41755 6.8714 4.41755 7.0376C4.41755 7.15706 4.28082 7.30249 4.0021 7.47388C3.72864 7.64008 3.3763 7.78031 2.95033 7.89458C2.52436 8.00884 2.10891 8.06597 1.70398 8.06597C1.41474 8.06597 1.20965 8.00365 1.08869 7.88419C0.967741 7.76473 0.909894 7.56218 0.909894 7.28171V6.99605L0.0264065 7.05318C0.0211476 7.24535 0.0106299 7.39597 0.0106299 7.51543C0.0106299 7.63489 0.00537109 7.76993 0.00537109 7.92055C0.00537109 8.40876 0.126325 8.77752 0.362973 9.02163C0.599621 9.27094 0.946706 9.39039 1.40948 9.39039H1.40423Z" fill="#00AEEF"/>
<path d="M7.44114 8.10752C7.61468 8.4607 7.86711 8.72559 8.20368 8.90218C8.54024 9.07877 8.96095 9.16706 9.4658 9.16706C9.68141 9.16706 9.92858 9.14109 10.1915 9.10474C10.1968 9.95652 10.3966 10.6057 10.7963 11.042C11.2012 11.4887 11.7639 11.712 12.4844 11.712C12.8157 11.712 13.1365 11.6705 13.452 11.5926C13.7675 11.5147 14.0357 11.4056 14.2566 11.2809C14.4249 11.1667 14.5774 11.0316 14.7089 10.881C14.8456 10.7304 14.9455 10.5642 15.0191 10.3824C15.0928 10.2058 15.1296 10.0292 15.1296 9.85264C15.1296 9.57737 15.0665 9.34884 14.9508 9.16706H15.5924C16.0078 9.16706 16.3917 9.14629 16.7493 9.09954C17.1069 9.0528 17.4067 8.9697 17.6486 8.85024C17.8537 8.75156 18.0325 8.61132 18.1797 8.42435C18.327 8.23737 18.4374 8.02962 18.511 7.80109C18.5899 7.57256 18.6267 7.34923 18.6267 7.1259C18.6267 6.89218 18.5952 6.5338 18.5215 6.05597C18.4532 5.57814 18.3796 5.14706 18.3007 4.75752L17.1753 5.07954C17.2962 5.52101 17.3961 5.97287 17.475 6.44031C17.5539 6.90776 17.5907 7.24016 17.5907 7.44791C17.5907 7.56737 17.4435 7.66605 17.1542 7.73876C16.865 7.81148 16.3917 7.84783 15.7396 7.84783H13.4468C13.4993 7.7959 13.5519 7.74396 13.5993 7.68683C13.7097 7.5414 13.7938 7.38039 13.8517 7.2038C13.9095 7.02721 13.9358 6.83504 13.9358 6.62729C13.9358 6.47667 13.92 6.21179 13.8885 5.83783C13.8569 5.46388 13.8254 5.07954 13.7833 4.68481L13.6939 3.87458L12.8788 3.9421C12.2898 4.46148 11.7902 5.01721 11.3905 5.6145C10.9909 6.21179 10.6859 6.80907 10.4913 7.40117C10.4439 7.5414 10.4019 7.68163 10.3651 7.82187C10.1074 7.83745 9.85496 7.84783 9.61831 7.84783C9.11872 7.84783 8.7506 7.70241 8.51395 7.41156C8.2773 7.1207 8.16161 6.69481 8.16686 6.13388V3.03837C8.16686 2.43589 8.16686 1.52178 8.17738 0.28566L6.99414 0.379148C7.04673 2.50341 7.09932 4.63287 7.15716 6.76233C7.17294 7.31287 7.2676 7.75954 7.43588 8.11791L7.44114 8.10752ZM14.0936 9.56179C14.204 9.70722 14.2619 9.85264 14.2619 10.0085C14.2619 10.0708 14.1935 10.1383 14.0568 10.2214C13.92 10.2993 13.7307 10.3668 13.4993 10.4136C13.2627 10.4655 13.0103 10.4863 12.7368 10.4863C12.2214 10.4863 11.827 10.3461 11.543 10.0656C11.3117 9.83706 11.1802 9.50985 11.1381 9.09954C11.5746 9.07357 12.0952 9.05799 12.7053 9.05799C13.0576 9.05799 13.3521 9.10473 13.5835 9.19822C13.8149 9.29171 13.9884 9.41117 14.0988 9.5566L14.0936 9.56179ZM11.6062 6.88698C11.9375 6.19621 12.3582 5.62489 12.8683 5.18341C12.8998 5.56256 12.9261 5.90535 12.9524 6.20659C12.9787 6.50783 12.9945 6.73636 13.005 6.89737C13.005 7.17783 12.8209 7.40117 12.4528 7.57256C12.1531 7.7076 11.7481 7.80628 11.238 7.86342C11.3222 7.54659 11.4379 7.22458 11.6009 6.88698H11.6062Z" fill="#00AEEF"/>
<path d="M17.9749 3.70318V2.41512H16.5708V3.70318H17.9749Z" fill="#00AEEF"/>
<path d="M23.6385 13.8882C23.5859 13.1351 23.5491 12.3872 23.528 11.6497C23.507 10.9122 23.5017 10.2941 23.5017 9.8007C23.5017 9.62411 23.5123 9.48388 23.5386 9.36442C23.5648 9.24497 23.6122 9.15667 23.6858 9.08915C23.7384 9.04241 23.8015 9.00605 23.8751 8.97489C23.9487 8.94373 24.0276 8.92814 24.1223 8.92814C24.2853 8.92814 24.6797 8.9645 25.316 9.04241C25.9839 9.12032 26.4204 9.15667 26.6255 9.15667C26.8569 9.15667 27.0672 9.07876 27.2566 8.91776C27.4459 8.75675 27.5984 8.549 27.7036 8.2945C27.8087 8.04 27.8666 7.77512 27.8666 7.49985C27.8666 6.56496 27.7193 5.8638 27.4248 5.40155C27.1304 4.9393 26.7044 4.71078 26.1417 4.71078C25.7683 4.71078 25.4265 4.81465 25.1267 5.01721C24.8217 5.22496 24.5483 5.57814 24.3063 6.08714C24.1065 6.49745 23.933 7.03241 23.7857 7.67644C23.6332 7.72838 23.486 7.80628 23.344 7.91535C23.0653 8.12311 22.8444 8.41396 22.6814 8.78791C22.5183 9.16187 22.4395 9.58776 22.4395 10.0656V11.6549C22.4552 12.8027 22.4763 13.6078 22.4973 14.0648L23.6332 13.883L23.6385 13.8882ZM25.1215 6.39357C25.3423 6.10272 25.6105 5.9521 25.9261 5.9521C26.2626 5.9521 26.5151 6.09752 26.6833 6.38838C26.8516 6.67923 26.9358 7.09473 26.9358 7.64528C26.9358 7.7076 26.92 7.75435 26.8937 7.78551C26.8674 7.82186 26.8306 7.83745 26.7833 7.83745C26.6833 7.83745 26.352 7.80109 25.7946 7.73357C25.5211 7.70241 25.2319 7.67644 24.9374 7.65047C24.8322 7.64008 24.7481 7.63489 24.6587 7.62969C24.7744 7.06357 24.9269 6.64287 25.1162 6.39357H25.1215Z" fill="#00AEEF"/>
<path d="M30.8066 9.39039C31.3798 9.39039 31.9477 9.30729 32.5104 9.1359C33.0731 8.9645 33.5254 8.73597 33.8725 8.45551C34.0723 8.30489 34.2353 8.13349 34.3616 7.94132C34.4878 7.74915 34.5824 7.55179 34.6561 7.34404C34.7244 7.13628 34.7612 6.92334 34.7612 6.71039C34.7612 6.41954 34.6981 6.17024 34.5772 5.9521C34.4562 5.73396 34.2879 5.5314 34.0828 5.33403C33.8777 5.14186 33.5622 4.87698 33.1415 4.53938C32.5367 4.06155 32.1055 3.70318 31.8426 3.46427L31.1852 4.58613C31.3903 4.7783 31.6164 4.96527 31.8531 5.15225C32.0897 5.33923 32.3159 5.51582 32.5315 5.68202C32.9943 6.03 33.3203 6.30528 33.5201 6.49745C33.72 6.68962 33.8199 6.8714 33.8199 7.0376C33.8199 7.15706 33.6832 7.30249 33.4044 7.47388C33.131 7.64008 32.7786 7.78031 32.3527 7.89458C31.9267 8.00884 31.5113 8.06597 31.1063 8.06597C30.8171 8.06597 30.612 8.00365 30.491 7.88419C30.3701 7.76473 30.3122 7.56218 30.3122 7.28171V6.99605L29.4288 7.05318C29.4235 7.24535 29.413 7.39597 29.413 7.51543C29.413 7.63489 29.4077 7.76993 29.4077 7.92055C29.4077 8.40876 29.5287 8.77752 29.7653 9.02163C30.002 9.27094 30.3491 9.39039 30.8118 9.39039H30.8066Z" fill="#00AEEF"/>
<path d="M33.031 11.6809C33.0731 11.8159 33.1362 12.0133 33.2203 12.2833C33.8935 12.1535 34.5035 12.0081 35.0451 11.8419C35.5868 11.6757 36.0601 11.4887 36.4598 11.2757C36.8963 11.0472 37.2539 10.7771 37.5326 10.4603C37.8113 10.1435 38.0217 9.8007 38.1584 9.42675C38.2267 9.23977 38.2793 9.0476 38.3162 8.85024C38.4003 8.92815 38.5002 8.99566 38.6264 9.04241C38.8473 9.12551 39.1418 9.16706 39.5047 9.16706C39.5047 9.16706 39.5046 9.16706 39.5099 9.16706C39.9043 9.16706 40.2409 9.10473 40.5249 8.99047C40.8141 8.87101 41.0876 8.65287 41.3453 8.33605C41.3978 8.27373 41.4452 8.20101 41.4978 8.13349C41.6082 8.31008 41.7765 8.47628 42.0131 8.62171C42.3024 8.80349 42.6231 8.94892 42.9702 9.0476C43.3173 9.15148 43.6276 9.20342 43.8958 9.20342C44.1009 9.20342 44.306 9.11512 44.5006 8.93853C44.6951 8.76194 44.8529 8.549 44.9791 8.2945C45.1001 8.04 45.1632 7.78551 45.1632 7.53621C45.1632 7.209 45.1369 6.87659 45.0896 6.52861C45.0422 6.18582 44.9739 5.87419 44.8897 5.59372C44.8003 5.25613 44.6531 5.00682 44.4532 4.84582C44.2534 4.67961 43.9957 4.60171 43.6697 4.60171C43.3121 4.60171 43.007 4.66403 42.7546 4.78868C42.5075 4.91334 42.2708 5.12109 42.0499 5.41194C41.8291 5.70279 41.5766 6.1183 41.3032 6.66884C41.1349 6.99605 40.9719 7.24535 40.8088 7.41155C40.6458 7.57776 40.4775 7.69202 40.304 7.75435C40.1305 7.81667 39.9096 7.84783 39.6466 7.84783C39.2627 7.84783 38.9735 7.7907 38.7789 7.67124C38.5844 7.55179 38.4318 7.33365 38.3214 7.02202C38.211 6.7052 38.0953 6.19621 37.9796 5.48465L36.8647 5.84822C37.0014 6.38318 37.1171 6.91814 37.2065 7.46349C37.3012 8.00884 37.3433 8.40357 37.3433 8.65807C37.3433 8.9645 37.2276 9.25535 36.9909 9.54101C36.7595 9.82667 36.3073 10.1071 35.6447 10.3824C34.982 10.6577 34.046 10.9018 32.8364 11.1147C32.9153 11.364 32.9732 11.5562 33.0152 11.6912L33.031 11.6809ZM42.56 6.23776C42.6863 6.07155 42.823 5.9469 42.965 5.87419C43.1122 5.79628 43.2858 5.75993 43.4803 5.75993C43.5855 5.75993 43.6802 5.79628 43.7643 5.87419C43.8432 5.9521 43.9063 6.04558 43.9431 6.15985C44.0062 6.35202 44.0588 6.60132 44.1114 6.91814C44.164 7.23497 44.185 7.46349 44.185 7.60892C44.185 7.7076 44.1745 7.77512 44.1535 7.81148C44.1324 7.84783 44.0956 7.86342 44.0483 7.86342C43.8327 7.86342 43.5855 7.82186 43.2963 7.73876C43.007 7.65566 42.7494 7.5414 42.5127 7.39597C42.3234 7.27652 42.1972 7.14667 42.1078 7.01683C42.1183 6.99605 42.1288 6.97528 42.1393 6.9545C42.2918 6.64807 42.4338 6.41434 42.56 6.24814V6.23776Z" fill="#00AEEF"/>
<path d="M53.7664 7.37V6.07675H52.3623V7.37H53.7664Z" fill="#00AEEF"/>
<path d="M52.1732 11.364C52.657 11.364 53.1513 11.3069 53.6614 11.1926C54.1716 11.0784 54.6449 10.9278 55.0813 10.746C55.5178 10.5642 55.8754 10.3668 56.1489 10.1643C56.3803 9.98768 56.5696 9.78512 56.7274 9.5566C56.8851 9.32807 57.0008 9.07357 57.0797 8.78791C57.1586 8.50225 57.1954 8.18543 57.1954 7.83225C57.1954 7.35442 57.1638 6.80907 57.0902 6.19101C57.0219 5.57814 56.9325 4.98605 56.8273 4.41473L55.6914 4.76791C55.8228 5.38597 55.9333 6.03 56.0279 6.71039C56.1226 7.38559 56.1699 7.91535 56.1699 8.2997C56.1699 8.56458 56.1279 8.75156 56.0437 8.86063C55.8965 9.03722 55.623 9.2138 55.2233 9.39559C54.8237 9.57737 54.3609 9.72799 53.8508 9.84745C53.3354 9.96691 52.8568 10.024 52.4046 10.024C51.6526 10.024 51.0794 9.87342 50.6744 9.56698C50.2695 9.26055 50.0697 8.84504 50.0697 8.31008C50.0697 8.0452 50.1065 7.70241 50.1801 7.28171C50.2537 6.86101 50.3641 6.38838 50.5061 5.8638L49.5964 5.59892C49.1914 6.94411 48.9863 8.01404 48.9863 8.80869C48.9863 9.60334 49.2545 10.263 49.7857 10.6992C50.3168 11.1355 51.1109 11.3537 52.1679 11.3537L52.1732 11.364Z" fill="#00AEEF"/>
<path d="M59.2883 8.10753C59.4619 8.4607 59.7143 8.72559 60.0508 8.90218C60.3874 9.07877 60.8081 9.16706 61.313 9.16706C61.7126 9.16706 62.0545 9.10993 62.3437 8.99047C62.6329 8.87101 62.9064 8.65287 63.1641 8.33605C63.2167 8.27373 63.264 8.20101 63.3166 8.1283C63.427 8.30489 63.5953 8.47109 63.832 8.62171C64.1212 8.8035 64.442 8.94892 64.7891 9.0476C65.1362 9.15148 65.4464 9.20342 65.7146 9.20342C65.9197 9.20342 66.1248 9.11512 66.3194 8.93853C66.514 8.76194 66.6717 8.549 66.798 8.2945C66.9242 8.04001 66.982 7.78551 66.982 7.53621C66.982 7.209 66.9557 6.87659 66.9084 6.52861C66.8611 6.18582 66.7927 5.87419 66.7086 5.59373C66.6192 5.25613 66.4719 5.00683 66.2721 4.84582C66.0722 4.67962 65.8145 4.60171 65.4885 4.60171C65.1309 4.60171 64.8259 4.66403 64.5735 4.78869C64.3263 4.91334 64.0896 5.12109 63.8688 5.41194C63.6479 5.7028 63.3955 6.1183 63.122 6.66884C62.9537 6.99605 62.7907 7.24535 62.6277 7.41156C62.4647 7.57776 62.2964 7.69202 62.1228 7.75435C61.944 7.81667 61.7284 7.84784 61.4655 7.84784C60.9659 7.84784 60.5978 7.70241 60.3611 7.41156C60.1245 7.1207 60.0088 6.69481 60.014 6.13388V3.03837C60.014 2.43589 60.014 1.52178 60.0246 0.28566L58.8413 0.379148C58.8939 2.50341 58.9465 4.63287 59.0043 6.76233C59.0201 7.31287 59.1148 7.75954 59.2883 8.11791V8.10753ZM64.3684 6.23776C64.4946 6.07156 64.6313 5.9469 64.7786 5.87419C64.9258 5.79628 65.0941 5.75993 65.2939 5.75993C65.3991 5.75993 65.4938 5.79628 65.5779 5.87419C65.6568 5.9521 65.7199 6.04559 65.7567 6.15985C65.8198 6.35202 65.8724 6.60132 65.925 6.91814C65.9776 7.23497 65.9986 7.46349 65.9986 7.60892C65.9986 7.7076 65.9881 7.77512 65.9618 7.81148C65.9355 7.84784 65.9039 7.86342 65.8566 7.86342C65.641 7.86342 65.3938 7.82187 65.1046 7.73877C64.8154 7.65566 64.5577 7.5414 64.321 7.39597C64.1317 7.27652 64.0055 7.14667 63.9161 7.01683C63.9266 6.99605 63.9371 6.97528 63.9477 6.9545C64.1002 6.64807 64.2422 6.41435 64.3684 6.24814V6.23776Z" fill="#00AEEF"/>
<path d="M65.2626 11.6809C65.3046 11.8159 65.3677 12.0133 65.4519 12.2833C66.125 12.1535 66.735 12.0081 67.2767 11.8419C67.8184 11.6757 68.2917 11.4887 68.6913 11.2757C69.1278 11.0472 69.4907 10.7771 69.7694 10.4655C70.0534 10.1539 70.2637 9.81109 70.4005 9.43714C70.5372 9.06318 70.6056 8.66326 70.6056 8.23737C70.6056 7.9621 70.574 7.57256 70.5056 7.07396C70.4425 6.57016 70.3479 6.01962 70.2217 5.41714L69.0963 5.7807C69.233 6.35202 69.3487 6.91295 69.4434 7.4583C69.5328 8.00884 69.5801 8.40357 69.5801 8.64768C69.5801 8.95411 69.4644 9.24497 69.2277 9.53063C68.9963 9.81629 68.5441 10.0968 67.8815 10.372C67.2189 10.6473 66.2828 10.8914 65.0732 11.1043C65.1521 11.3537 65.21 11.5458 65.252 11.6809H65.2626Z" fill="#00AEEF"/>
<path d="M70.3372 3.93171V2.63845H68.9331V3.93171H70.3372Z" fill="#00AEEF"/>
<path d="M72.7087 8.10752C72.8823 8.4607 73.1347 8.72559 73.4713 8.90218C73.8078 9.07876 74.2285 9.16706 74.7334 9.16706H76.4583H104.036C104.504 9.16706 104.898 9.12551 105.224 9.0476C105.55 8.9697 105.813 8.85024 106.018 8.69442C106.166 8.58535 106.276 8.43993 106.371 8.28411C106.45 8.53342 106.607 8.73598 106.839 8.88659C107.128 9.07357 107.48 9.16706 107.885 9.16706C108.243 9.16706 108.569 9.08396 108.858 8.91776C109.111 8.77233 109.305 8.55419 109.452 8.2945C109.526 8.45032 109.621 8.59055 109.757 8.71001C109.926 8.85543 110.136 8.9645 110.388 9.0476C110.641 9.12551 110.925 9.16706 111.24 9.16706C111.493 9.16706 111.724 9.09435 111.935 8.94892C112.145 8.80349 112.313 8.59574 112.434 8.32567C112.555 8.05559 112.618 7.73877 112.618 7.38559C112.618 7.03241 112.597 6.62729 112.55 6.14427C112.502 5.66124 112.45 5.24055 112.387 4.88217L111.261 5.20419C111.346 5.63008 111.419 6.08194 111.487 6.54938C111.551 7.02202 111.587 7.35962 111.587 7.56737C111.587 7.65047 111.561 7.71799 111.509 7.76993C111.456 7.82187 111.388 7.84264 111.303 7.84264C110.914 7.84264 110.604 7.74396 110.373 7.5414C110.141 7.33884 110.031 7.06876 110.031 6.72597V5.99365L109.042 6.07155V6.79349C109.042 7.08435 108.947 7.32845 108.753 7.53621C108.564 7.74396 108.322 7.84264 108.027 7.84264C107.706 7.84264 107.464 7.74396 107.296 7.5414C107.133 7.33884 107.049 7.06876 107.049 6.72597V5.87938L106.071 5.95729V6.6221C106.071 7.04799 105.918 7.35962 105.613 7.55179C105.308 7.74396 104.83 7.84264 104.188 7.84264H74.8859C74.3863 7.84264 74.0182 7.69721 73.7815 7.40636C73.5449 7.11551 73.4292 6.68962 73.4344 6.12869V3.03318C73.4344 2.4307 73.4344 1.51659 73.445 0.280466L72.2617 0.373955C72.3143 2.49822 72.3669 4.62768 72.4247 6.75714C72.4405 7.30768 72.5352 7.75435 72.7087 8.11272V8.10752Z" fill="#00AEEF"/>
<path d="M17.875 32.4405L16.4814 34.2168C16.6708 34.4868 16.9758 34.7725 17.3912 35.0841C17.8067 35.3906 18.2379 35.6658 18.6849 35.8996L20.0995 34.1441C19.6525 33.9051 19.2213 33.6247 18.8059 33.3027C18.3904 32.9806 18.0801 32.6898 17.8698 32.4353L17.875 32.4405Z" fill="#00AEEF"/>
<path d="M14.2041 32.4405L12.7632 34.2168C12.9735 34.4868 13.2733 34.7725 13.673 35.0841C14.0726 35.3906 14.4881 35.6658 14.9193 35.8996L16.2866 34.1233C15.8712 33.8844 15.4768 33.6091 15.0981 33.2923C14.7247 32.9754 14.4197 32.6898 14.1989 32.4405H14.2041Z" fill="#00AEEF"/>
<path d="M25.6265 17.2226L24.1855 18.9989C24.3906 19.2534 24.6957 19.5339 25.0953 19.8403C25.495 20.1468 25.9104 20.4272 26.3417 20.6817L27.709 18.9054C27.2935 18.6509 26.8991 18.3705 26.5205 18.064C26.1418 17.7576 25.8421 17.4771 25.6212 17.2226H25.6265Z" fill="#00AEEF"/>
<path d="M28.8184 19.8403C29.2338 20.1468 29.665 20.4272 30.112 20.6817L31.5267 18.9054C31.0797 18.6509 30.6484 18.3705 30.233 18.064C29.8175 17.7576 29.5073 17.4771 29.2969 17.2226L27.9033 18.9989C28.0979 19.2534 28.3977 19.5339 28.8131 19.8403H28.8184Z" fill="#00AEEF"/>
<path d="M76.5321 22.6709C75.901 22.2451 74.986 21.6893 73.7817 21.0141C72.6774 20.3805 71.7202 19.7988 70.9156 19.2586C70.1058 18.7237 69.3538 18.1212 68.6491 17.4564L67.6867 19.8247C68.0864 20.2039 68.5123 20.5571 68.9541 20.8947C68.9225 20.9206 68.8962 20.9466 68.8647 20.9778C68.1758 21.6322 67.6026 22.4476 67.1345 23.4189C66.6717 24.3901 66.4403 25.3042 66.4403 26.156C66.4403 26.4988 66.4929 26.8156 66.5928 27.1116C66.1301 27.1324 65.6463 27.148 65.1204 27.148C64.0791 27.148 63.3271 26.9195 62.8643 26.4624C62.4015 26.0054 62.1702 25.3094 62.1702 24.3745V22.5982L60.8029 22.8839L60.7555 24.9251C60.7082 25.6989 60.5609 26.2651 60.3243 26.6182C60.0824 26.9714 59.7248 27.1532 59.2462 27.1532C58.6362 27.1532 58.1629 26.9454 57.8158 26.5247C57.474 26.104 57.3005 25.5275 57.3005 24.7848V23.6474L56.2224 23.7409L56.1014 24.9718C56.0068 25.6522 55.7438 26.1871 55.3231 26.5715C54.8972 26.961 54.3029 27.1532 53.5351 27.1532C52.8462 27.1532 52.3151 26.9351 51.9417 26.504C51.563 26.0677 51.379 25.486 51.379 24.7589V23.289L50.3009 23.3617L50.1326 24.7121C50.0222 25.5639 49.6541 26.1871 49.0283 26.5715C48.4025 26.961 47.4454 27.1532 46.1464 27.1532H33.0519C32.0106 27.1532 31.2586 26.9247 30.7958 26.4676C30.3331 26.0106 30.1017 25.3146 30.1017 24.3797V22.6034L28.7817 22.8891L28.687 24.8316C28.6713 25.4029 28.5293 25.8496 28.2558 26.182C27.9824 26.5144 27.5511 26.7585 26.9621 26.9195C26.3679 27.0753 25.5685 27.1584 24.5641 27.1584H24.1802C23.139 27.1584 22.3869 26.9299 21.9242 26.4728C21.4614 26.0158 21.23 25.3198 21.23 24.3849V22.6086L19.91 22.8943L19.8154 24.8368C19.7996 25.4081 19.6576 25.8547 19.3841 26.1871C19.1107 26.5196 18.6795 26.7637 18.0905 26.9247C17.4962 27.0805 16.6969 27.1636 15.6924 27.1636H15.3085C14.6196 27.1636 14.0569 27.0389 13.6152 26.7844C13.1734 26.5299 12.8211 26.1196 12.5476 25.5535C12.2742 24.9822 12.027 24.1927 11.8061 23.1851C11.6641 22.4736 11.4485 21.9646 11.1593 21.6582C10.8701 21.3517 10.4546 21.1959 9.91294 21.1959C9.00316 21.1959 7.96717 21.3777 6.80496 21.7413C5.64276 22.1048 4.63831 22.5567 3.79164 23.0916C3.16584 23.502 2.58736 24.0889 2.05096 24.8471C1.51456 25.6054 1.08333 26.4728 0.757282 27.4544C0.431233 28.4361 0.26295 29.4281 0.26295 30.4409C0.26295 32.7469 0.152514 32.3366 0.26295 36.4605L2.37701 35.4425L2.18243 32.4561C2.08777 30.9395 1.96682 29.5268 1.96682 28.8775V28.4516C1.96682 27.7089 2.00889 27.1896 2.08777 26.8883C2.27709 26.4624 2.7872 26.0054 3.61284 25.5275C4.07562 25.2575 4.58047 25.0134 5.11687 24.7952C4.92229 25.1899 4.75401 25.5951 4.62254 26.0054C4.45426 26.5351 4.37011 27.0026 4.37011 27.4181C4.37011 27.9738 4.61728 28.5088 5.11161 29.0282C5.60594 29.5475 6.23175 29.9734 6.98376 30.2954C7.73578 30.6175 8.4615 30.7837 9.16619 30.7837C9.4712 30.7837 9.78147 30.6382 10.1023 30.3474C10.4231 30.0565 10.7018 29.6462 10.9437 29.1165C11.133 28.7009 11.2908 28.2335 11.417 27.7193C11.6221 28.4465 11.9692 29.023 12.4793 29.4229C13.0893 29.9059 13.8466 30.1448 14.7616 30.1448H15.1718C16.1499 30.1448 16.9703 30.0358 17.6329 29.8228C18.2956 29.6099 18.8425 29.2827 19.279 28.8412C19.6471 28.462 19.9521 27.979 20.194 27.4025C20.315 28.2854 20.6305 28.9606 21.1511 29.4021C21.7348 29.8955 22.571 30.1396 23.6438 30.1448C23.6438 30.1448 23.6438 30.1448 23.6491 30.1448H24.0593C25.0374 30.1448 25.8578 30.0358 26.5204 29.8228C27.183 29.6099 27.7299 29.2827 28.1664 28.8412C28.5345 28.462 28.8396 27.979 29.0815 27.4025C29.2024 28.2854 29.5179 28.9606 30.0386 29.4021C30.6223 29.8955 31.4585 30.1448 32.5313 30.1448H45.6258C46.5198 30.1448 47.2666 30.0513 47.8556 29.8592C48.4498 29.667 48.9494 29.3709 49.3543 28.9606C49.6593 28.6542 49.9223 28.2647 50.1432 27.7868C50.2536 28.4828 50.5271 29.0385 50.9898 29.4333C51.542 29.9059 52.2414 30.1448 53.0881 30.1448C53.8401 30.1448 54.4922 29.9423 55.0444 29.5423C55.5072 29.2047 55.8911 28.6906 56.2014 28.0258C56.3223 28.5971 56.5747 29.0749 56.9744 29.4592C57.453 29.9163 58.063 30.1448 58.7992 30.1448C59.3251 30.1448 59.8142 29.9371 60.2612 29.5268C60.6241 29.1944 60.9343 28.6802 61.192 27.9998C61.3498 28.5867 61.6495 29.0645 62.0965 29.4229C62.696 29.9059 63.5322 30.1448 64.605 30.1448C66.2984 30.1448 67.8339 29.8592 69.2012 29.293C69.2749 29.2619 69.3432 29.2255 69.4116 29.1944C70.2267 29.4852 71.2312 29.7657 72.4512 30.0306C73.8921 30.3474 74.9544 30.5032 75.6433 30.5032C76.0746 30.5032 76.5321 30.2591 77.0106 29.7709C77.4892 29.2827 77.8941 28.6802 78.2254 27.9686C78.5515 27.2571 78.7198 26.5715 78.7198 25.9067C78.7198 25.2419 78.5199 24.6498 78.1203 24.1304C77.7206 23.611 77.2052 23.1332 76.5742 22.7073L76.5321 22.6709ZM10.4809 27.496C10.4336 27.6778 10.3389 27.8076 10.1917 27.8855C9.56586 27.8855 8.91376 27.7661 8.22485 27.5168C7.53594 27.2727 6.95747 26.9662 6.48417 26.5923C6.01088 26.2183 5.77423 25.8444 5.77423 25.4652C5.77423 25.1588 5.87415 24.8004 6.06346 24.4057C6.1739 24.3693 6.28434 24.3278 6.39477 24.2966C7.4518 23.9746 8.42469 23.8084 9.32395 23.8084C9.7394 23.8084 10.0444 24.0421 10.2337 24.5095C10.4283 24.977 10.5282 25.6989 10.544 26.6806C10.544 27.0441 10.5177 27.3142 10.4704 27.496H10.4809ZM68.0233 23.7616C68.2967 23.3202 68.6385 22.9358 69.054 22.6138C69.4694 22.2918 69.8796 22.1256 70.2793 22.1256C70.6474 22.1256 70.9945 22.2658 71.3258 22.5515C71.6519 22.8371 71.9306 23.2059 72.1515 23.663C72.3776 24.12 72.5038 24.5978 72.5354 25.0861C72.3566 25.4808 71.9884 25.8236 71.4205 26.1196C71.0261 26.3222 70.5107 26.4988 69.8902 26.6598C69.3222 26.4988 68.8436 26.3014 68.4808 26.0625C67.9023 25.6833 67.6183 25.2575 67.6183 24.7848C67.6183 24.5459 67.7551 24.2083 68.0285 23.7668L68.0233 23.7616ZM77.2788 27.522C77.1894 27.6882 77.0737 27.8024 76.9318 27.8647C76.3691 27.8647 75.5434 27.7609 74.4496 27.5583C73.7028 27.4181 72.9929 27.2571 72.304 27.0909C72.3408 27.0493 72.3829 27.013 72.4197 26.9662C73.219 26.0002 73.6187 24.9458 73.6187 23.7876C73.6187 23.7616 73.6187 23.7357 73.6187 23.7149C74.5127 24.2083 75.2069 24.603 75.6854 24.8939C76.1955 25.2003 76.611 25.5275 76.9318 25.8651C77.2525 26.2027 77.4103 26.5507 77.4103 26.8987C77.4103 27.1532 77.3682 27.3609 77.2788 27.5271V27.522Z" fill="#00AEEF"/>
<path d="M106.534 32.4405L105.093 34.2168C105.303 34.4868 105.603 34.7725 106.003 35.0841C106.402 35.3906 106.818 35.6658 107.249 35.8996L108.616 34.1233C108.201 33.8844 107.806 33.6091 107.428 33.2923C107.054 32.9754 106.749 32.6898 106.528 32.4405H106.534Z" fill="#00AEEF"/>
<path d="M112.292 20.8947L110.299 22.1983C110.636 23.0345 110.925 23.8551 111.178 24.6498C111.425 25.4496 111.582 26.0781 111.646 26.5351C111.519 26.7273 111.135 26.8727 110.504 26.987C109.873 27.0961 108.89 27.1532 107.565 27.1532C106.765 27.1532 106.034 27.0337 105.382 26.8C104.725 26.5611 103.978 26.1404 103.137 25.5327C102.295 24.9251 101.207 24.0109 99.8605 22.7956C99.0611 22.084 98.4458 21.5335 98.0146 21.1492C97.5834 20.7596 96.9576 20.2143 96.1425 19.5027L95.0381 18.4847L105.672 14.1479L105.792 11.6601L94.4386 16.5423L93.5025 20.074C94.7173 21.2427 95.6481 22.1931 96.2845 22.9203C96.926 23.6474 97.373 24.2447 97.6307 24.7121C97.8884 25.1796 98.0304 25.6158 98.062 26.0261C97.8358 26.3897 97.2889 26.6702 96.4159 26.8675C95.727 27.0234 94.8856 27.1168 93.9127 27.148C93.6761 27.148 93.4394 27.148 93.208 27.1376C92.2246 27.122 91.1781 27.0909 90.0738 27.0441L88.9957 29.532C90.7258 29.7865 92.0511 30.015 92.9819 30.2175C93.9075 30.4253 94.5701 30.633 94.9645 30.846C95.3589 31.0589 95.585 31.2927 95.6481 31.5472C95.6008 31.8172 95.1538 32.1496 94.3019 32.5444C93.4552 32.9391 92.3614 33.2767 91.0256 33.5624C89.6899 33.848 88.2752 33.9882 86.787 33.9882C85.041 33.9882 83.7158 33.6766 82.8008 33.0534C81.891 32.4301 81.4335 31.5627 81.4335 30.4565C81.4335 29.9215 81.5071 29.2203 81.6491 28.3582C81.7911 27.496 82.0067 26.5351 82.2959 25.4756L81.3125 25.1899C80.3501 28.0206 79.8716 30.2954 79.8716 32.0146C79.8716 33.5779 80.3975 34.7933 81.444 35.6658C82.4905 36.5332 84.0787 36.9695 86.2085 36.9695C87.823 36.9695 89.4427 36.7462 91.0677 36.3047C92.6927 35.8632 93.96 35.2867 94.8698 34.5751C95.2379 34.3051 95.564 33.9623 95.8532 33.5416C96.1425 33.1209 96.3633 32.6846 96.5106 32.2275C96.6631 31.7705 96.7367 31.3498 96.7367 30.9706C96.7367 30.5915 96.6368 30.3006 96.437 30.0461C96.316 29.8903 96.153 29.7709 95.9584 29.6774C96.3844 29.5475 96.7578 29.3969 97.068 29.2151C97.4519 29.0074 97.8043 28.6854 98.1251 28.2439C98.4458 27.8024 98.7088 27.2727 98.9191 26.6546C99.0822 26.1664 99.1873 25.6522 99.2294 25.1224C100.476 26.4157 101.517 27.4181 102.348 28.1089C103.226 28.8464 104.025 29.3606 104.735 29.6618C105.445 29.963 106.203 30.1137 107.002 30.1137C107.801 30.1137 108.559 30.0721 109.174 29.9838C109.789 29.8955 110.32 29.7345 110.773 29.4956C111.156 29.3034 111.514 28.9554 111.851 28.4413C112.187 27.9271 112.461 27.3661 112.676 26.7585C112.892 26.1508 113.002 25.5847 113.002 25.0653C113.002 24.6706 112.929 24.0681 112.787 23.2527C112.645 22.4372 112.476 21.653 112.282 20.8947H112.292Z" fill="#00AEEF"/>
<path d="M110.205 32.4405L108.811 34.2168C109.006 34.4868 109.305 34.7725 109.721 35.0841C110.136 35.3906 110.567 35.6658 111.014 35.8996L112.429 34.1441C111.982 33.9051 111.551 33.6247 111.135 33.3027C110.72 32.9806 110.41 32.6898 110.199 32.4353L110.205 32.4405Z" fill="#00AEEF"/>
<path d="M125.802 2.4255C125.366 2.4255 125.014 2.77349 125.014 3.20458V33.3286C125.014 33.7597 125.366 34.1077 125.802 34.1077C126.239 34.1077 126.591 33.7597 126.591 33.3286V3.20458C126.591 2.77349 126.239 2.4255 125.802 2.4255Z" fill="#00AEEF"/>
</g>
<defs>
<clipPath id="clip0_2031_270">
<rect width="180" height="36.9643" fill="white"/>
</clipPath>
</defs>
</svg>
