<svg width="180" height="38" viewBox="0 0 180 38" fill="none" xmlns="http://www.w3.org/2000/svg">
<g clip-path="url(#clip0_2263_1781)">
<path d="M180 9.17073C178.228 9.09282 177.265 10.0537 176.813 10.7393C176.992 10.2407 177.108 9.72647 177.139 9.19151C178.896 5.60778 176.845 4.3405 176.845 4.3405C176.845 4.3405 175.283 6.46995 176.845 9.22267C176.803 9.80957 176.603 10.3861 176.356 10.9262C176.608 8.28779 174.473 8.05406 174.473 8.05406C174.257 10.1316 175.782 11.0353 176.203 11.2483C176.177 11.3054 176.145 11.3625 176.119 11.4196C175.909 11.83 175.656 12.2143 175.388 12.5831C175.262 12.0273 174.815 10.5315 173.479 9.86151C173.479 9.86151 172.753 12.4324 175.251 12.77C174.815 13.3517 174.336 13.9075 173.858 14.4632L173.847 14.3334C173.774 14.162 173.721 14.0321 173.663 13.9075C172.843 12.0896 171.349 11.1703 169.367 11.3002C168.331 11.3677 167.437 11.804 166.6 12.3909C165.643 13.0661 164.839 13.9127 164.018 14.7385C163.708 15.0501 163.214 15.5955 162.767 16.0941C162.583 16.3018 162.241 16.2395 162.146 15.9798C161.089 13.1752 159.059 7.80476 158.444 5.87786C157.976 4.40282 157.513 2.92778 157.035 1.45794C156.872 0.948943 156.498 0.632121 155.941 0.549021C155.383 0.460726 154.936 0.652897 154.573 1.06321C154.169 1.52546 154.253 2.03445 154.379 2.55383C154.663 3.73801 154.942 4.9274 155.22 6.11158C155.641 7.90344 156.882 13.1959 156.882 13.1959C156.882 13.1959 153.443 5.31174 151.818 1.50987C151.481 0.715222 150.698 0.362044 149.914 0.642509C149.162 0.912587 148.799 1.69166 149.073 2.48111C150.256 5.86228 153.122 14.0737 153.122 14.0737C153.122 14.0737 149.677 7.64375 148.142 4.36646C148.047 4.15871 147.953 3.95096 147.779 3.78476C147.327 3.36925 146.643 3.30693 146.107 3.63933C145.544 3.98212 145.349 4.60019 145.597 5.2546C146.89 8.70329 150.072 16.3953 150.072 16.3953C150.072 16.3953 146.79 11.3833 145.349 8.95259C144.987 8.34492 144.324 8.14236 143.724 8.4436C143.146 8.73965 142.957 9.3681 143.267 9.99655C143.64 10.76 144.014 11.5287 144.398 12.2922C145.67 14.8216 146.927 16.816 148.305 19.2935C149.509 21.4541 150.219 25.2144 146.927 27.1828C144.466 28.6527 137.272 27.723 136.199 27.51C135.947 27.4581 135.862 27.5256 135.81 27.7386C135.631 28.4761 136.315 30.1433 136.935 30.6056C137.398 30.9483 137.924 31.1561 138.471 31.3119C138.65 31.3638 138.702 31.4106 138.671 31.6183C138.502 32.6363 138.944 33.3375 139.949 33.6543C140.348 33.779 140.758 33.8465 141.174 33.8413C141.416 33.8413 141.484 33.8932 141.479 34.1425C141.468 34.9891 141.873 35.602 142.636 35.9811C143.041 36.1837 143.483 36.2564 143.924 36.3239C144.382 36.3914 144.755 36.2772 145.15 36.0279C147.364 34.6359 147.79 33.9504 149.988 32.5376C150.919 31.9404 151.928 31.6755 152.991 31.5249C154.768 31.2704 156.567 31.2807 158.355 31.2132C160.143 31.1457 161.836 30.7458 163.387 29.8524C165.559 28.6059 167 26.731 168.068 24.534C168.941 22.7421 169.445 20.836 169.856 18.8987C170.161 17.4497 170.881 16.2239 172.028 15.2579C172.48 14.8787 172.985 14.5983 173.658 14.5255L173.805 14.51C173.805 14.51 173.768 14.5567 173.747 14.5775C172.89 15.6422 172.275 16.9199 172.064 18.2755L172.627 18.3586C172.827 16.6186 173.795 15.1176 174.957 13.84C175.183 13.5491 175.404 13.2479 175.619 12.9362C175.898 13.1284 177.518 14.1152 178.927 12.1468C178.927 12.1468 177.05 11.7417 175.735 12.77C176.03 12.3338 176.298 11.8767 176.524 11.4041C179.853 11.7209 179.989 9.17593 179.989 9.17593L180 9.17073Z" fill="white"/>
<path d="M1.4041 9.90824C1.97732 9.90824 2.54527 9.82514 3.10797 9.65375C3.67067 9.48235 4.12293 9.25383 4.47001 8.97336C4.66985 8.82274 4.83288 8.65134 4.95909 8.45917C5.0853 8.267 5.17996 8.06964 5.25358 7.86189C5.32195 7.65413 5.35876 7.44119 5.35876 7.22824C5.35876 6.93739 5.29565 6.68809 5.1747 6.46995C5.05375 6.25181 4.88546 6.04925 4.68037 5.85189C4.47527 5.65971 4.15974 5.39483 3.73903 5.05723C3.13427 4.5794 2.70304 4.22103 2.4401 3.98212L1.78274 5.10398C1.98784 5.29615 2.21397 5.48313 2.45062 5.6701C2.68726 5.85708 2.91339 6.03367 3.12901 6.19987C3.59179 6.54785 3.91783 6.82313 4.11767 7.0153C4.31751 7.20747 4.41743 7.38925 4.41743 7.55545C4.41743 7.67491 4.2807 7.82034 4.00198 7.99173C3.72852 8.15793 3.37617 8.29817 2.95021 8.41243C2.52424 8.52669 2.10879 8.58382 1.70386 8.58382C1.41462 8.58382 1.20953 8.5215 1.08857 8.40204C0.967619 8.28258 0.909772 8.08003 0.909772 7.79956V7.5139L0.0262844 7.57103C0.0210256 7.7632 0.0105079 7.91382 0.0105079 8.03328C0.0105079 8.15274 0.00524902 8.28778 0.00524902 8.4384C0.00524902 8.92662 0.126203 9.29538 0.362851 9.53948C0.599499 9.78879 0.946584 9.90824 1.40936 9.90824H1.4041Z" fill="white"/>
<path d="M7.44126 8.62536C7.61481 8.97854 7.86723 9.24342 8.2038 9.42001C8.54037 9.5966 8.96107 9.6849 9.46592 9.6849C9.68154 9.6849 9.9287 9.65893 10.1916 9.62257C10.1969 10.4744 10.3967 11.1236 10.7964 11.5599C11.2013 12.0065 11.764 12.2299 12.4845 12.2299C12.8158 12.2299 13.1366 12.1883 13.4521 12.1104C13.7677 12.0325 14.0359 11.9234 14.2567 11.7988C14.425 11.6845 14.5775 11.5495 14.709 11.3989C14.8457 11.2482 14.9456 11.082 15.0193 10.9002C15.0929 10.7237 15.1297 10.5471 15.1297 10.3705C15.1297 10.0952 15.0666 9.86668 14.9509 9.6849H15.5925C16.0079 9.6849 16.3918 9.66412 16.7494 9.61738C17.107 9.57063 17.4068 9.48753 17.6487 9.36808C17.8538 9.26939 18.0326 9.12916 18.1798 8.94218C18.3271 8.75521 18.4375 8.54746 18.5111 8.31893C18.59 8.0904 18.6268 7.86707 18.6268 7.64373C18.6268 7.41001 18.5953 7.05164 18.5217 6.57381C18.4533 6.09598 18.3797 5.6649 18.3008 5.27536L17.1754 5.59738C17.2964 6.03885 17.3963 6.49071 17.4752 6.95815C17.554 7.42559 17.5908 7.758 17.5908 7.96575C17.5908 8.08521 17.4436 8.18389 17.1544 8.2566C16.8651 8.32932 16.3918 8.36567 15.7397 8.36567H13.4469C13.4995 8.31373 13.5521 8.2618 13.5994 8.20466C13.7098 8.05924 13.794 7.89823 13.8518 7.72164C13.9097 7.54505 13.9359 7.35288 13.9359 7.14513C13.9359 6.99451 13.9202 6.72962 13.8886 6.35567C13.8571 5.98172 13.8255 5.59738 13.7834 5.20265L13.694 4.39241L12.8789 4.45993C12.2899 4.97931 11.7903 5.53505 11.3907 6.13234C10.991 6.72962 10.686 7.32691 10.4914 7.91901C10.4441 8.05924 10.402 8.19947 10.3652 8.3397C10.1075 8.35528 9.85508 8.36567 9.61843 8.36567C9.11884 8.36567 8.75072 8.22025 8.51407 7.92939C8.27742 7.63854 8.16173 7.21265 8.16699 6.65172V3.55621C8.16699 2.95373 8.16699 2.03962 8.1775 0.803497L6.99426 0.896986C7.04685 3.02125 7.09944 5.15071 7.15729 7.28017C7.17306 7.83071 7.26772 8.27738 7.43601 8.63575L7.44126 8.62536ZM14.0937 10.0796C14.2041 10.2251 14.262 10.3705 14.262 10.5263C14.262 10.5886 14.1936 10.6561 14.0569 10.7392C13.9202 10.8171 13.7309 10.8847 13.4995 10.9314C13.2628 10.9833 13.0104 11.0041 12.7369 11.0041C12.2216 11.0041 11.8271 10.8639 11.5432 10.5834C11.3118 10.3549 11.1803 10.0277 11.1382 9.61738C11.5747 9.59141 12.0953 9.57583 12.7054 9.57583C13.0577 9.57583 13.3522 9.62257 13.5836 9.71606C13.815 9.80955 13.9885 9.92901 14.099 10.0744L14.0937 10.0796ZM11.6063 7.40482C11.9376 6.71404 12.3583 6.14272 12.8684 5.70125C12.9 6.0804 12.9262 6.42319 12.9525 6.72443C12.9788 7.02567 12.9946 7.2542 13.0051 7.41521C13.0051 7.69567 12.8211 7.91901 12.453 8.0904C12.1532 8.22544 11.7483 8.32412 11.2382 8.38125C11.3223 8.06443 11.438 7.74242 11.601 7.40482H11.6063Z" fill="white"/>
<path d="M17.9748 4.22105V2.93298H16.5706V4.22105H17.9748Z" fill="white"/>
<path d="M23.6385 14.4061C23.5859 13.653 23.5491 12.9051 23.5281 12.1676C23.5071 11.43 23.5018 10.812 23.5018 10.3186C23.5018 10.142 23.5123 10.0017 23.5386 9.88229C23.5649 9.76283 23.6122 9.67453 23.6859 9.60701C23.7385 9.56027 23.8016 9.52391 23.8752 9.49275C23.9488 9.46159 24.0277 9.44601 24.1223 9.44601C24.2854 9.44601 24.6798 9.48236 25.3161 9.56027C25.984 9.63818 26.4205 9.67453 26.6256 9.67453C26.857 9.67453 27.0673 9.59663 27.2566 9.43562C27.4459 9.27461 27.5984 9.06686 27.7036 8.81236C27.8088 8.55787 27.8667 8.29298 27.8667 8.01771C27.8667 7.08283 27.7194 6.38166 27.4249 5.91941C27.1304 5.45716 26.7044 5.22864 26.1417 5.22864C25.7684 5.22864 25.4265 5.33251 25.1268 5.53507C24.8218 5.74282 24.5483 6.096 24.3064 6.605C24.1066 7.01531 23.933 7.55027 23.7858 8.1943C23.6333 8.24624 23.486 8.32414 23.344 8.43321C23.0653 8.64097 22.8444 8.93182 22.6814 9.30577C22.5184 9.67973 22.4395 10.1056 22.4395 10.5834V12.1728C22.4553 13.3206 22.4763 14.1256 22.4974 14.5827L23.6333 14.4009L23.6385 14.4061ZM25.1215 6.91143C25.3424 6.62058 25.6106 6.46996 25.9261 6.46996C26.2627 6.46996 26.5151 6.61538 26.6834 6.90624C26.8517 7.19709 26.9358 7.61259 26.9358 8.16314C26.9358 8.22546 26.9201 8.27221 26.8938 8.30337C26.8675 8.33973 26.8307 8.35531 26.7833 8.35531C26.6834 8.35531 26.3521 8.31895 25.7947 8.25143C25.5212 8.22027 25.232 8.1943 24.9375 8.16833C24.8323 8.15794 24.7482 8.15275 24.6588 8.14755C24.7744 7.58143 24.927 7.16073 25.1163 6.91143H25.1215Z" fill="white"/>
<path d="M30.8064 9.90824C31.3796 9.90824 31.9475 9.82514 32.5102 9.65375C33.0729 9.48235 33.5252 9.25383 33.8723 8.97336C34.0721 8.82274 34.2351 8.65134 34.3613 8.45917C34.4876 8.267 34.5822 8.06964 34.6558 7.86189C34.7242 7.65413 34.761 7.44119 34.761 7.22824C34.761 6.93739 34.6979 6.68809 34.577 6.46995C34.456 6.25181 34.2877 6.04925 34.0826 5.85189C33.8775 5.65971 33.562 5.39483 33.1413 5.05723C32.5365 4.5794 32.1053 4.22103 31.8424 3.98212L31.185 5.10398C31.3901 5.29615 31.6162 5.48313 31.8529 5.6701C32.0895 5.85708 32.3156 6.03367 32.5313 6.19987C32.994 6.54785 33.3201 6.82313 33.5199 7.0153C33.7198 7.20747 33.8197 7.38925 33.8197 7.55545C33.8197 7.67491 33.6829 7.82034 33.4042 7.99173C33.1308 8.15793 32.7784 8.29817 32.3525 8.41243C31.9265 8.52669 31.511 8.58382 31.1061 8.58382C30.8169 8.58382 30.6118 8.5215 30.4908 8.40204C30.3699 8.28258 30.312 8.08003 30.312 7.79956V7.5139L29.4285 7.57103C29.4233 7.7632 29.4128 7.91382 29.4128 8.03328C29.4128 8.15274 29.4075 8.28778 29.4075 8.4384C29.4075 8.92662 29.5285 9.29538 29.7651 9.53948C30.0018 9.78879 30.3488 9.90824 30.8116 9.90824H30.8064Z" fill="white"/>
<path d="M33.0309 12.1987C33.0729 12.3338 33.136 12.5311 33.2202 12.8012C33.8933 12.6714 34.5033 12.5259 35.045 12.3597C35.5867 12.1935 36.06 12.0065 36.4596 11.7936C36.8961 11.5651 37.2537 11.295 37.5324 10.9782C37.8111 10.6614 38.0215 10.3186 38.1582 9.94461C38.2266 9.75763 38.2792 9.56546 38.316 9.3681C38.4001 9.44601 38.5001 9.51352 38.6263 9.56027C38.8471 9.64337 39.1416 9.68492 39.5045 9.68492C39.5045 9.68492 39.5045 9.68492 39.5098 9.68492C39.9042 9.68492 40.2407 9.62259 40.5247 9.50833C40.814 9.38887 41.0874 9.17073 41.3451 8.85391C41.3977 8.79159 41.445 8.71887 41.4976 8.65135C41.608 8.82794 41.7763 8.99414 42.013 9.13957C42.3022 9.32135 42.623 9.46678 42.9701 9.56546C43.3172 9.66934 43.6274 9.72128 43.8956 9.72128C44.1007 9.72128 44.3058 9.63298 44.5004 9.45639C44.695 9.2798 44.8527 9.06686 44.979 8.81236C45.0999 8.55787 45.163 8.30337 45.163 8.05407C45.163 7.72686 45.1367 7.39445 45.0894 7.04647C45.0421 6.70368 44.9737 6.39205 44.8896 6.11158C44.8002 5.77399 44.6529 5.52468 44.4531 5.36368C44.2532 5.19748 43.9956 5.11957 43.6695 5.11957C43.3119 5.11957 43.0069 5.18189 42.7545 5.30655C42.5073 5.4312 42.2707 5.63895 42.0498 5.9298C41.8289 6.22065 41.5765 6.63616 41.303 7.1867C41.1347 7.51391 40.9717 7.76321 40.8087 7.92942C40.6457 8.09562 40.4774 8.20988 40.3038 8.27221C40.1303 8.33453 39.9094 8.36569 39.6465 8.36569C39.2626 8.36569 38.9734 8.30856 38.7788 8.18911C38.5842 8.06965 38.4317 7.85151 38.3213 7.53988C38.2108 7.22306 38.0951 6.71407 37.9794 6.00251L36.8646 6.36608C37.0013 6.90104 37.117 7.436 37.2064 7.98135C37.301 8.5267 37.3431 8.92143 37.3431 9.17593C37.3431 9.48236 37.2274 9.77322 36.9908 10.0589C36.7594 10.3445 36.3071 10.625 35.6445 10.9003C34.9819 11.1755 34.0458 11.4196 32.8363 11.6326C32.9152 11.8819 32.973 12.0741 33.0151 12.2091L33.0309 12.1987ZM42.5599 6.75562C42.6861 6.58941 42.8228 6.46476 42.9648 6.39205C43.1121 6.31414 43.2856 6.27779 43.4802 6.27779C43.5854 6.27779 43.68 6.31414 43.7642 6.39205C43.8431 6.46996 43.9062 6.56344 43.943 6.67771C44.0061 6.86988 44.0587 7.11918 44.1113 7.436C44.1638 7.75283 44.1849 7.98135 44.1849 8.12678C44.1849 8.22546 44.1744 8.29298 44.1533 8.32934C44.1323 8.36569 44.0955 8.38128 44.0481 8.38128C43.8325 8.38128 43.5854 8.33973 43.2961 8.25662C43.0069 8.17352 42.7492 8.05926 42.5126 7.91383C42.3232 7.79438 42.197 7.66453 42.1076 7.53469C42.1181 7.51391 42.1287 7.49314 42.1392 7.47236C42.2917 7.16593 42.4337 6.9322 42.5599 6.766V6.75562Z" fill="white"/>
<path d="M53.7665 7.88786V6.5946H52.3624V7.88786H53.7665Z" fill="white"/>
<path d="M52.1731 11.8819C52.6569 11.8819 53.1512 11.8248 53.6613 11.7105C54.1714 11.5962 54.6447 11.4456 55.0812 11.2638C55.5177 11.082 55.8753 10.8847 56.1488 10.6821C56.3802 10.5055 56.5695 10.303 56.7272 10.0745C56.885 9.84592 57.0007 9.59143 57.0796 9.30577C57.1585 9.02011 57.1953 8.70329 57.1953 8.35011C57.1953 7.87228 57.1637 7.32693 57.0901 6.70887C57.0217 6.096 56.9323 5.5039 56.8272 4.93259L55.6912 5.28577C55.8227 5.90383 55.9332 6.54786 56.0278 7.22825C56.1225 7.90344 56.1698 8.43321 56.1698 8.81755C56.1698 9.08243 56.1277 9.26941 56.0436 9.37848C55.8963 9.55507 55.6229 9.73166 55.2232 9.91344C54.8235 10.0952 54.3608 10.2458 53.8506 10.3653C53.3353 10.4848 52.8567 10.5419 52.4045 10.5419C51.6524 10.5419 51.0792 10.3913 50.6743 10.0848C50.2694 9.7784 50.0695 9.3629 50.0695 8.82794C50.0695 8.56305 50.1063 8.22026 50.18 7.79957C50.2536 7.37887 50.364 6.90623 50.506 6.38166L49.5962 6.11677C49.1913 7.46197 48.9862 8.53189 48.9862 9.32654C48.9862 10.1212 49.2544 10.7808 49.7856 11.2171C50.3167 11.6534 51.1108 11.8715 52.1678 11.8715L52.1731 11.8819Z" fill="white"/>
<path d="M59.2883 8.62536C59.4619 8.97854 59.7143 9.24343 60.0508 9.42002C60.3874 9.5966 60.8081 9.6849 61.313 9.6849C61.7126 9.6849 62.0545 9.62777 62.3437 9.50831C62.6329 9.38885 62.9064 9.17071 63.1641 8.85389C63.2167 8.79156 63.264 8.71885 63.3166 8.64614C63.427 8.82273 63.5953 8.98893 63.832 9.13955C64.1212 9.32133 64.442 9.46676 64.7891 9.56544C65.1362 9.66932 65.4464 9.72126 65.7146 9.72126C65.9197 9.72126 66.1248 9.63296 66.3194 9.45637C66.514 9.27978 66.6717 9.06684 66.798 8.81234C66.9242 8.55784 66.982 8.30335 66.982 8.05405C66.982 7.72684 66.9557 7.39443 66.9084 7.04645C66.8611 6.70366 66.7927 6.39203 66.7086 6.11156C66.6192 5.77397 66.4719 5.52466 66.2721 5.36366C66.0722 5.19745 65.8145 5.11955 65.4885 5.11955C65.1309 5.11955 64.8259 5.18187 64.5735 5.30652C64.3263 5.43118 64.0896 5.63893 63.8688 5.92978C63.6479 6.22063 63.3955 6.63614 63.122 7.18668C62.9537 7.51389 62.7907 7.76319 62.6277 7.92939C62.4647 8.0956 62.2964 8.20986 62.1228 8.27218C61.944 8.33451 61.7284 8.36567 61.4655 8.36567C60.9659 8.36567 60.5978 8.22025 60.3611 7.92939C60.1245 7.63854 60.0088 7.21265 60.014 6.65172V3.55621C60.014 2.95373 60.014 2.03962 60.0246 0.803497L58.8413 0.896986C58.8939 3.02125 58.9465 5.15071 59.0043 7.28017C59.0201 7.83071 59.1148 8.27738 59.2883 8.63575V8.62536ZM64.3684 6.75559C64.4946 6.58939 64.6313 6.46474 64.7786 6.39203C64.9258 6.31412 65.0941 6.27776 65.2939 6.27776C65.3991 6.27776 65.4938 6.31412 65.5779 6.39203C65.6568 6.46994 65.7199 6.56342 65.7567 6.67769C65.8198 6.86986 65.8724 7.11916 65.925 7.43598C65.9776 7.7528 65.9986 7.98133 65.9986 8.12676C65.9986 8.22544 65.9881 8.29296 65.9618 8.32932C65.9355 8.36567 65.9039 8.38125 65.8566 8.38125C65.641 8.38125 65.3938 8.3397 65.1046 8.2566C64.8154 8.1735 64.5577 8.05924 64.321 7.91381C64.1317 7.79435 64.0055 7.66451 63.9161 7.53467C63.9266 7.51389 63.9371 7.49311 63.9477 7.47234C64.1002 7.1659 64.2422 6.93218 64.3684 6.76598V6.75559Z" fill="white"/>
<path d="M65.2623 12.1987C65.3044 12.3338 65.3675 12.5311 65.4517 12.8012C66.1248 12.6714 66.7348 12.5259 67.2765 12.3597C67.8182 12.1935 68.2914 12.0066 68.6911 11.7936C69.1276 11.5651 69.4905 11.295 69.7692 10.9834C70.0532 10.6717 70.2635 10.329 70.4002 9.955C70.537 9.58105 70.6053 9.18112 70.6053 8.75523C70.6053 8.47996 70.5738 8.09043 70.5054 7.59182C70.4423 7.08802 70.3477 6.53748 70.2214 5.935L69.0961 6.29856C69.2328 6.86988 69.3485 7.43081 69.4431 7.97616C69.5325 8.5267 69.5799 8.92143 69.5799 9.16554C69.5799 9.47198 69.4642 9.76283 69.2275 10.0485C68.9961 10.3341 68.5439 10.6146 67.8813 10.8899C67.2186 11.1652 66.2826 11.4093 65.073 11.6222C65.1519 11.8715 65.2098 12.0637 65.2518 12.1987H65.2623Z" fill="white"/>
<path d="M70.3372 4.44957V3.15631H68.933V4.44957H70.3372Z" fill="white"/>
<path d="M72.7089 8.62537C72.8824 8.97855 73.1349 9.24343 73.4714 9.42002C73.808 9.59661 74.2287 9.6849 74.7336 9.6849H76.4585H104.036C104.504 9.6849 104.898 9.64335 105.224 9.56545C105.55 9.48754 105.813 9.36808 106.018 9.21227C106.166 9.1032 106.276 8.95777 106.371 8.80196C106.45 9.05126 106.607 9.25382 106.839 9.40444C107.128 9.59142 107.48 9.6849 107.885 9.6849C108.243 9.6849 108.569 9.6018 108.858 9.4356C109.111 9.29017 109.305 9.07203 109.453 8.81235C109.526 8.96816 109.621 9.10839 109.758 9.22785C109.926 9.37328 110.136 9.48234 110.389 9.56545C110.641 9.64335 110.925 9.6849 111.241 9.6849C111.493 9.6849 111.724 9.61219 111.935 9.46676C112.145 9.32134 112.313 9.11359 112.434 8.84351C112.555 8.57343 112.618 8.25661 112.618 7.90343C112.618 7.55025 112.597 7.14513 112.55 6.66211C112.503 6.17909 112.45 5.75839 112.387 5.40002L111.262 5.72203C111.346 6.14793 111.419 6.59979 111.488 7.06723C111.551 7.53986 111.588 7.87746 111.588 8.08521C111.588 8.16831 111.561 8.23583 111.509 8.28777C111.456 8.33971 111.388 8.36048 111.304 8.36048C110.914 8.36048 110.604 8.2618 110.373 8.05924C110.141 7.85669 110.031 7.58661 110.031 7.24382V6.51149L109.042 6.5894V7.31134C109.042 7.60219 108.948 7.8463 108.753 8.05405C108.564 8.2618 108.322 8.36048 108.027 8.36048C107.707 8.36048 107.465 8.2618 107.296 8.05924C107.133 7.85669 107.049 7.58661 107.049 7.24382V6.39723L106.071 6.47513V7.13994C106.071 7.56583 105.919 7.87746 105.614 8.06963C105.309 8.2618 104.83 8.36048 104.188 8.36048H74.8861C74.3865 8.36048 74.0184 8.21506 73.7817 7.92421C73.5451 7.63335 73.4294 7.20746 73.4346 6.64653V3.55102C73.4346 2.94854 73.4346 2.03443 73.4451 0.798309L72.2619 0.891798C72.3145 3.01606 72.3671 5.14552 72.4249 7.27498C72.4407 7.82552 72.5354 8.27219 72.7089 8.63056V8.62537Z" fill="white"/>
<path d="M17.8748 32.9583L16.4812 34.7346C16.6706 35.0047 16.9756 35.2904 17.391 35.602C17.8065 35.9084 18.2377 36.1837 18.6847 36.4174L20.0993 34.6619C19.6523 34.423 19.2211 34.1425 18.8056 33.8205C18.3902 33.4985 18.0799 33.2077 17.8696 32.9532L17.8748 32.9583Z" fill="white"/>
<path d="M14.2042 32.9583L12.7632 34.7346C12.9736 35.0047 13.2734 35.2904 13.673 35.602C14.0727 35.9084 14.4881 36.1837 14.9194 36.4174L16.2867 34.6411C15.8712 34.4022 15.4768 34.1269 15.0982 33.8101C14.7248 33.4933 14.4198 33.2076 14.1989 32.9583H14.2042Z" fill="white"/>
<path d="M25.6264 17.7405L24.1855 19.5168C24.3906 19.7713 24.6956 20.0518 25.0952 20.3582C25.4949 20.6646 25.9104 20.9451 26.3416 21.1996L27.7089 19.4233C27.2934 19.1688 26.899 18.8883 26.5204 18.5819C26.1417 18.2755 25.842 17.995 25.6211 17.7405H25.6264Z" fill="white"/>
<path d="M28.8185 20.3582C29.234 20.6646 29.6652 20.9451 30.1122 21.1996L31.5268 19.4233C31.0798 19.1688 30.6486 18.8883 30.2331 18.5819C29.8177 18.2755 29.5074 17.995 29.2971 17.7405L27.9035 19.5168C28.0981 19.7713 28.3978 20.0518 28.8133 20.3582H28.8185Z" fill="white"/>
<path d="M76.5321 23.1888C75.901 22.7629 74.986 22.2072 73.7817 21.532C72.6774 20.8983 71.7202 20.3166 70.9156 19.7765C70.1058 19.2415 69.3538 18.639 68.6491 17.9742L67.6867 20.3426C68.0864 20.7217 68.5123 21.0749 68.9541 21.4125C68.9225 21.4385 68.8962 21.4644 68.8647 21.4956C68.1758 22.15 67.6026 22.9655 67.1345 23.9367C66.6717 24.9079 66.4403 25.822 66.4403 26.6738C66.4403 27.0166 66.4929 27.3334 66.5928 27.6295C66.1301 27.6503 65.6463 27.6658 65.1204 27.6658C64.0791 27.6658 63.3271 27.4373 62.8643 26.9803C62.4015 26.5232 62.1702 25.8272 62.1702 24.8924V23.1161L60.8029 23.4017L60.7555 25.4429C60.7082 26.2168 60.5609 26.7829 60.3243 27.1361C60.0824 27.4893 59.7248 27.671 59.2462 27.671C58.6362 27.671 58.1629 27.4633 57.8158 27.0426C57.474 26.6219 57.3005 26.0454 57.3005 25.3027V24.1652L56.2224 24.2587L56.1014 25.4896C56.0068 26.17 55.7438 26.705 55.3231 27.0893C54.8972 27.4789 54.3029 27.671 53.5351 27.671C52.8462 27.671 52.3151 27.4529 51.9417 27.0218C51.563 26.5855 51.379 26.0038 51.379 25.2767V23.8069L50.3009 23.8796L50.1326 25.23C50.0222 26.0817 49.6541 26.705 49.0283 27.0893C48.4025 27.4789 47.4454 27.671 46.1464 27.671H33.0519C32.0106 27.671 31.2586 27.4425 30.7958 26.9855C30.3331 26.5284 30.1017 25.8324 30.1017 24.8975V23.1213L28.7817 23.4069L28.687 25.3494C28.6713 25.9207 28.5293 26.3674 28.2558 26.6998C27.9824 27.0322 27.5511 27.2763 26.9621 27.4373C26.3679 27.5931 25.5685 27.6762 24.5641 27.6762H24.1802C23.139 27.6762 22.3869 27.4477 21.9242 26.9907C21.4614 26.5336 21.23 25.8376 21.23 24.9027V23.1265L19.91 23.4121L19.8154 25.3546C19.7996 25.9259 19.6576 26.3726 19.3841 26.705C19.1107 27.0374 18.6795 27.2815 18.0905 27.4425C17.4962 27.5983 16.6969 27.6814 15.6924 27.6814H15.3085C14.6196 27.6814 14.0569 27.5568 13.6152 27.3023C13.1734 27.0478 12.8211 26.6375 12.5476 26.0714C12.2742 25.5 12.027 24.7106 11.8061 23.703C11.6641 22.9914 11.4485 22.4824 11.1593 22.176C10.8701 21.8696 10.4546 21.7138 9.91294 21.7138C9.00316 21.7138 7.96717 21.8955 6.80496 22.2591C5.64276 22.6227 4.63831 23.0745 3.79164 23.6095C3.16584 24.0198 2.58736 24.6067 2.05096 25.365C1.51456 26.1233 1.08333 26.9907 0.757282 27.9723C0.431233 28.9539 0.26295 29.9459 0.26295 30.9587C0.26295 33.2648 0.152514 32.8545 0.26295 36.9783L2.37701 35.9603L2.18243 32.9739C2.08777 31.4573 1.96682 30.0446 1.96682 29.3954V28.9695C1.96682 28.2268 2.00889 27.7074 2.08777 27.4062C2.27709 26.9803 2.7872 26.5232 3.61284 26.0454C4.07562 25.7753 4.58047 25.5312 5.11687 25.3131C4.92229 25.7078 4.75401 26.1129 4.62254 26.5232C4.45426 27.053 4.37011 27.5204 4.37011 27.9359C4.37011 28.4917 4.61728 29.0266 5.11161 29.546C5.60594 30.0654 6.23175 30.4913 6.98376 30.8133C7.73578 31.1353 8.4615 31.3015 9.16619 31.3015C9.4712 31.3015 9.78147 31.1561 10.1023 30.8652C10.4231 30.5744 10.7018 30.1641 10.9437 29.6343C11.133 29.2188 11.2908 28.7514 11.417 28.2372C11.6221 28.9643 11.9692 29.5408 12.4793 29.9407C13.0893 30.4238 13.8466 30.6627 14.7616 30.6627H15.1718C16.1499 30.6627 16.9703 30.5536 17.6329 30.3407C18.2956 30.1277 18.8425 29.8005 19.279 29.359C19.6471 28.9799 19.9521 28.4969 20.194 27.9203C20.315 28.8033 20.6305 29.4785 21.1511 29.92C21.7348 30.4134 22.571 30.6575 23.6438 30.6627C23.6438 30.6627 23.6438 30.6627 23.6491 30.6627H24.0593C25.0374 30.6627 25.8578 30.5536 26.5204 30.3407C27.183 30.1277 27.7299 29.8005 28.1664 29.359C28.5345 28.9799 28.8396 28.4969 29.0815 27.9203C29.2024 28.8033 29.5179 29.4785 30.0386 29.92C30.6223 30.4134 31.4585 30.6627 32.5313 30.6627H45.6258C46.5198 30.6627 47.2666 30.5692 47.8556 30.377C48.4498 30.1848 48.9494 29.8888 49.3543 29.4785C49.6593 29.172 49.9223 28.7825 50.1432 28.3047C50.2536 29.0007 50.5271 29.5564 50.9898 29.9511C51.542 30.4238 52.2414 30.6627 53.0881 30.6627C53.8401 30.6627 54.4922 30.4601 55.0444 30.0602C55.5072 29.7226 55.8911 29.2084 56.2014 28.5436C56.3223 29.1149 56.5747 29.5927 56.9744 29.9771C57.453 30.4341 58.063 30.6627 58.7992 30.6627C59.3251 30.6627 59.8142 30.4549 60.2612 30.0446C60.6241 29.7122 60.9343 29.198 61.192 28.5176C61.3498 29.1045 61.6495 29.5824 62.0965 29.9407C62.696 30.4238 63.5322 30.6627 64.605 30.6627C66.2984 30.6627 67.8339 30.377 69.2012 29.8109C69.2749 29.7797 69.3432 29.7434 69.4116 29.7122C70.2267 30.0031 71.2312 30.2835 72.4512 30.5484C73.8921 30.8652 74.9544 31.021 75.6433 31.021C76.0746 31.021 76.5321 30.7769 77.0106 30.2887C77.4892 29.8005 77.8941 29.198 78.2254 28.4865C78.5515 27.7749 78.7198 27.0893 78.7198 26.4245C78.7198 25.7597 78.5199 25.1676 78.1203 24.6482C77.7206 24.1289 77.2052 23.651 76.5742 23.2251L76.5321 23.1888ZM10.4809 28.0138C10.4336 28.1956 10.3389 28.3255 10.1917 28.4034C9.56586 28.4034 8.91376 28.2839 8.22485 28.0346C7.53594 27.7905 6.95747 27.4841 6.48417 27.1101C6.01088 26.7362 5.77423 26.3622 5.77423 25.9831C5.77423 25.6766 5.87415 25.3182 6.06346 24.9235C6.1739 24.8872 6.28434 24.8456 6.39477 24.8144C7.4518 24.4924 8.42469 24.3262 9.32395 24.3262C9.7394 24.3262 10.0444 24.56 10.2337 25.0274C10.4283 25.4948 10.5282 26.2168 10.544 27.1984C10.544 27.562 10.5177 27.832 10.4704 28.0138H10.4809ZM68.0233 24.2795C68.2967 23.838 68.6385 23.4537 69.054 23.1317C69.4694 22.8096 69.8796 22.6434 70.2793 22.6434C70.6474 22.6434 70.9945 22.7837 71.3258 23.0693C71.6519 23.355 71.9306 23.7238 72.1515 24.1808C72.3776 24.6379 72.5038 25.1157 72.5354 25.6039C72.3566 25.9986 71.9884 26.3414 71.4205 26.6375C71.0261 26.84 70.5107 27.0166 69.8902 27.1776C69.3222 27.0166 68.8436 26.8193 68.4808 26.5803C67.9023 26.2012 67.6183 25.7753 67.6183 25.3027C67.6183 25.0638 67.7551 24.7262 68.0285 24.2847L68.0233 24.2795ZM77.2788 28.0398C77.1894 28.206 77.0737 28.3203 76.9318 28.3826C76.3691 28.3826 75.5434 28.2787 74.4496 28.0762C73.7028 27.9359 72.9929 27.7749 72.304 27.6087C72.3408 27.5672 72.3829 27.5308 72.4197 27.4841C73.219 26.518 73.6187 25.4637 73.6187 24.3055C73.6187 24.2795 73.6187 24.2535 73.6187 24.2327C74.5127 24.7262 75.2069 25.1209 75.6854 25.4117C76.1955 25.7182 76.611 26.0454 76.9318 26.383C77.2525 26.7206 77.4103 27.0686 77.4103 27.4165C77.4103 27.671 77.3682 27.8788 77.2788 28.045V28.0398Z" fill="white"/>
<path d="M106.534 32.9583L105.093 34.7346C105.303 35.0047 105.603 35.2904 106.003 35.602C106.402 35.9084 106.818 36.1837 107.249 36.4174L108.616 34.6411C108.201 34.4022 107.806 34.1269 107.428 33.8101C107.054 33.4933 106.749 33.2076 106.529 32.9583H106.534Z" fill="white"/>
<path d="M112.292 21.4125L110.299 22.7162C110.636 23.5524 110.925 24.373 111.177 25.1676C111.425 25.9675 111.582 26.5959 111.645 27.053C111.519 27.2452 111.135 27.3906 110.504 27.5049C109.873 27.6139 108.89 27.6711 107.565 27.6711C106.765 27.6711 106.034 27.5516 105.382 27.3179C104.725 27.079 103.978 26.6583 103.137 26.0506C102.295 25.4429 101.207 24.5288 99.8604 23.3135C99.061 22.6019 98.4457 22.0514 98.0145 21.667C97.5833 21.2775 96.9575 20.7321 96.1423 20.0206L95.038 19.0026L105.671 14.6658L105.792 12.1779L94.4385 17.0601L93.5024 20.5919C94.7172 21.7605 95.648 22.711 96.2843 23.4381C96.9259 24.1652 97.3729 24.7625 97.6306 25.23C97.8883 25.6974 98.0303 26.1337 98.0618 26.544C97.8357 26.9076 97.2888 27.188 96.4158 27.3854C95.7269 27.5412 94.8855 27.6347 93.9126 27.6659C93.6759 27.6659 93.4393 27.6659 93.2079 27.6555C92.2245 27.6399 91.178 27.6087 90.0736 27.562L88.9956 30.0498C90.7257 30.3043 92.051 30.5328 92.9818 30.7354C93.9073 30.9432 94.57 31.1509 94.9644 31.3639C95.3588 31.5768 95.5849 31.8105 95.648 32.065C95.6007 32.3351 95.1537 32.6675 94.3018 33.0622C93.4551 33.457 92.3612 33.7946 91.0255 34.0802C89.6897 34.3659 88.2751 34.5061 86.7868 34.5061C85.0409 34.5061 83.7157 34.1945 82.8006 33.5712C81.8909 32.948 81.4333 32.0806 81.4333 30.9743C81.4333 30.4394 81.507 29.7382 81.6489 28.876C81.7909 28.0138 82.0066 27.053 82.2958 25.9935L81.3124 25.7078C80.35 28.5384 79.8715 30.8133 79.8715 32.5325C79.8715 34.0958 80.3973 35.3111 81.4439 36.1837C82.4904 37.0511 84.0785 37.4873 86.2084 37.4873C87.8228 37.4873 89.4426 37.264 91.0676 36.8225C92.6925 36.3811 93.9599 35.8046 94.8697 35.093C95.2378 34.8229 95.5639 34.4801 95.8531 34.0594C96.1423 33.6387 96.3632 33.2025 96.5105 32.7454C96.663 32.2883 96.7366 31.8677 96.7366 31.4885C96.7366 31.1094 96.6367 30.8185 96.4368 30.564C96.3159 30.4082 96.1529 30.2887 95.9583 30.1952C96.3843 30.0654 96.7576 29.9148 97.0679 29.733C97.4518 29.5252 97.8041 29.2032 98.1249 28.7618C98.4457 28.3203 98.7087 27.7905 98.919 27.1725C99.082 26.6842 99.1872 26.17 99.2293 25.6403C100.476 26.9335 101.517 27.9359 102.348 28.6267C103.226 29.3642 104.025 29.8784 104.735 30.1797C105.445 30.4809 106.203 30.6315 107.002 30.6315C107.801 30.6315 108.559 30.59 109.174 30.5017C109.789 30.4134 110.32 30.2524 110.772 30.0135C111.156 29.8213 111.514 29.4733 111.851 28.9591C112.187 28.4449 112.461 27.884 112.676 27.2763C112.892 26.6687 113.002 26.1025 113.002 25.5831C113.002 25.1884 112.929 24.5859 112.787 23.7705C112.645 22.9551 112.476 22.1708 112.282 21.4125H112.292Z" fill="white"/>
<path d="M110.205 32.9583L108.811 34.7346C109.005 35.0047 109.305 35.2904 109.721 35.602C110.136 35.9084 110.567 36.1837 111.014 36.4174L112.429 34.6619C111.982 34.423 111.551 34.1425 111.135 33.8205C110.72 33.4985 110.41 33.2077 110.199 32.9532L110.205 32.9583Z" fill="white"/>
<path d="M125.802 2.94336C125.366 2.94336 125.013 3.29134 125.013 3.72243V33.8465C125.013 34.2776 125.366 34.6256 125.802 34.6256C126.239 34.6256 126.591 34.2776 126.591 33.8465V3.72243C126.591 3.29134 126.239 2.94336 125.802 2.94336Z" fill="white"/>
</g>
<defs>
<clipPath id="clip0_2263_1781">
<rect width="180" height="36.9643" fill="white" transform="translate(0 0.517853)"/>
</clipPath>
</defs>
</svg>
