<svg width="21" height="20" viewBox="0 0 21 20" fill="none" xmlns="http://www.w3.org/2000/svg">
<mask id="mask0_1860_859" style="mask-type:luminance" maskUnits="userSpaceOnUse" x="0" y="0" width="21" height="20">
<path d="M20.5 0H0.5V20H20.5V0Z" fill="white"/>
</mask>
<g mask="url(#mask0_1860_859)">
<path fill-rule="evenodd" clip-rule="evenodd" d="M12.1858 2.3334C11.9573 2.41492 2.14603 7.47611 2.09379 7.53938C2.04184 7.60237 2.03845 7.81908 2.03845 11.0918V14.577L2.10961 14.6427C2.2416 14.7645 7.86551 17.6912 7.96983 17.6923C8.08032 17.6935 18.0364 12.5995 18.1576 12.4797L18.2284 12.4098L18.2395 13.4752C18.2456 14.0612 18.2475 12.4935 18.2435 9.99131L18.2365 5.44205L18.1617 5.36919C18.0896 5.29899 12.4746 2.3426 12.3529 2.31075C12.32 2.30215 12.2448 2.31233 12.1858 2.3334ZM7.84119 5.18416C5.42364 6.42779 3.32771 7.50533 3.18351 7.57869L2.92138 7.71208L5.33384 8.97523C6.66072 9.67 7.79711 10.2662 7.85921 10.3001L7.97207 10.3617L12.6421 7.964C15.2106 6.64519 17.3121 5.55766 17.3119 5.54719C17.3115 5.51788 12.3341 2.91907 12.2824 2.9212C12.2573 2.9222 10.2588 3.94055 7.84119 5.18416ZM10.5019 4.33741C9.26245 4.9764 8.78699 5.23656 8.75584 5.29279C8.69014 5.4114 8.70245 5.50254 8.79776 5.60333C8.90522 5.71691 12.1625 7.41931 12.304 7.43582C12.3841 7.44518 12.7211 7.28406 14.0429 6.60469C14.9446 6.14116 15.7075 5.73914 15.7383 5.71132C15.8225 5.63516 15.8137 5.41479 15.7231 5.3313C15.684 5.29526 14.9248 4.85874 14.0361 4.36132C12.7834 3.66015 12.3961 3.45716 12.3127 3.45811C12.2352 3.45896 11.728 3.70527 10.5019 4.33741ZM10.8381 4.80065C10.1906 5.13338 9.65314 5.4133 9.64376 5.42269C9.63437 5.43206 10.1625 5.71992 10.8171 6.06233C11.4719 6.40476 12.0131 6.67944 12.0198 6.67276C12.0265 6.66606 12.0282 6.10599 12.0237 5.42813L12.0154 4.19568L10.8381 4.80065ZM12.6004 5.4602V6.70919L13.3672 6.31509C13.789 6.09831 14.3084 5.83284 14.5215 5.72516C14.7345 5.61746 14.9088 5.52199 14.9088 5.51298C14.9086 5.49853 13.6526 4.78743 12.8789 4.36375L12.6004 4.21123V5.4602ZM7.76214 5.80615C7.68387 5.84779 6.91807 6.24143 6.06037 6.68093C5.20267 7.12042 4.47339 7.50956 4.43971 7.54571C4.35626 7.63529 4.36088 7.79785 4.44968 7.89562C4.48879 7.93877 5.27502 8.368 6.19682 8.84954C7.47841 9.519 7.89887 9.72477 7.98349 9.724C8.06483 9.72323 8.52176 9.50354 9.70691 8.89546C10.5939 8.44031 11.3517 8.03285 11.3908 7.99008C11.4884 7.88323 11.4825 7.74869 11.375 7.63463C11.2674 7.52038 8.13136 5.76438 7.99977 5.74471C7.93767 5.73541 7.85485 5.75682 7.76214 5.80615ZM12.9567 8.43208L8.26922 10.8408L8.26868 13.8988L8.26807 16.9569L8.87684 16.6437C9.21168 16.4715 11.3284 15.3842 13.5807 14.2277L17.6758 12.1248L17.6838 9.07162C17.6883 7.3923 17.6811 6.01944 17.6681 6.02083C17.6549 6.02219 15.5348 7.10726 12.9567 8.43208ZM6.47351 7.10072C5.82563 7.43424 5.29574 7.71492 5.29589 7.72446C5.29608 7.734 5.56288 7.88039 5.88881 8.04977C6.21475 8.21923 6.75534 8.50077 7.09015 8.67546L7.69889 8.99308V7.74285C7.69889 7.05527 7.6882 6.49303 7.67517 6.49346C7.66214 6.49391 7.1214 6.76719 6.47351 7.10072ZM8.26807 7.75916V8.99408L9.30376 8.46431C9.8733 8.173 10.3935 7.90385 10.4596 7.86631L10.5799 7.798L9.44214 7.16118C8.8163 6.81089 8.29614 6.5243 8.28622 6.5243C8.27622 6.5243 8.26807 7.08 8.26807 7.75916ZM2.05373 11.0938C2.05373 13.0243 2.05752 13.8095 2.06217 12.8385C2.06682 11.8675 2.06682 10.2879 2.06217 9.32839C2.05752 8.36877 2.05373 9.16323 2.05373 11.0938ZM2.58378 11.2255L2.59184 14.2852L5.13746 15.6189L7.68307 16.9525L7.69114 13.9142C7.69557 12.2432 7.6876 10.8643 7.6734 10.8501C7.65917 10.8358 6.69503 10.3255 5.53081 9.71585C4.36657 9.10623 3.22541 8.50808 2.99488 8.38662L2.57572 8.16569L2.58378 11.2255Z" fill="#353535"/>
</g>
</svg>
