<svg width="18" height="15" viewBox="0 0 18 15" fill="none" xmlns="http://www.w3.org/2000/svg">
<path d="M17.3261 8.71634C17.3059 8.59114 17.2878 8.45746 17.2708 8.32695V8.32059C17.1856 7.66277 17.0792 6.84368 16.4353 6.14661L16.4257 6.13281C14.1873 1.23207 10.8346 0.499985 9.03474 0.499985C4.80495 0.499985 2.55701 4.08191 1.5927 6.21769C0.991332 7.15774 0.875317 7.80282 0.772074 8.37152C0.743336 8.53067 0.716726 8.68133 0.678409 8.83411C0.6518 8.94233 0.670957 9.0601 0.730562 9.15772C0.785909 9.24896 0.869994 9.31156 0.966851 9.3349C1.17866 9.38583 1.38621 9.26063 1.44475 9.05798L1.54906 8.69724V9.07283C1.54799 10.9996 1.54693 13.39 1.54587 14.4447C1.54587 14.5752 1.59696 14.6982 1.68956 14.7916C1.78215 14.8839 1.90562 14.9348 2.0376 14.9348H16.0212C16.1532 14.9348 16.2767 14.8839 16.3693 14.7916C16.4619 14.6993 16.513 14.5762 16.513 14.4447C16.513 13.3868 16.5108 10.9848 16.5098 9.05798V8.8861L16.6077 9.02827C16.6354 9.06859 16.6684 9.10254 16.7056 9.12907C16.7929 9.18954 16.8983 9.21395 17.0026 9.19591C17.126 9.17469 17.2303 9.09936 17.2899 8.98795C17.341 8.89247 17.3378 8.78743 17.3261 8.71634ZM14.2469 4.19331L14.3768 4.04159L14.496 4.2018C14.8643 4.69516 15.2059 5.24582 15.5125 5.83786L15.6146 6.03626L15.3932 6.06809C15.1985 6.09674 14.9558 6.12326 14.6748 6.14767L14.5567 6.15722L14.513 6.04793C14.3353 5.60762 14.1394 5.17473 13.9329 4.75988L13.8925 4.67819L13.9415 4.6018C14.0415 4.44901 14.1448 4.31108 14.2469 4.19331ZM13.9436 6.19966L13.7169 6.21239C13.6104 6.21769 13.5019 6.223 13.3901 6.2283L13.1432 6.23998L13.2347 6.0108C13.2869 5.87923 13.3422 5.74767 13.3997 5.61929L13.5444 5.29463L13.6913 5.61823C13.7509 5.75085 13.8063 5.87605 13.8552 5.9917L13.9436 6.19966ZM13.0357 2.65487C13.338 2.90208 13.6307 3.18112 13.9063 3.48457L14.0043 3.59279L13.9042 3.69995C13.8457 3.76361 13.785 3.83257 13.7254 3.9079L13.5796 4.08933L13.4625 3.88775C13.2528 3.52701 13.0314 3.18537 12.8047 2.87025L12.0916 1.8814L13.0357 2.65487ZM12.1586 2.98378L12.2683 3.13232C12.5833 3.56096 12.8899 4.05114 13.1815 4.58906L13.2219 4.66546L13.1804 4.74079C12.8696 5.30842 12.6525 5.87393 12.5503 6.1604L12.5141 6.26332L12.4056 6.2665C12.2182 6.27181 12.0267 6.27711 11.8319 6.28241L11.7212 6.28454L11.6797 6.18268C11.4806 5.68826 11.2316 5.17792 10.9389 4.66546L10.8921 4.58376L10.941 4.50418C11.2773 3.95565 11.6435 3.48775 12.0277 3.11216L12.1586 2.98378ZM6.86982 6.0543C6.95603 5.86969 7.04863 5.68295 7.14549 5.49834L7.27853 5.2437L7.42435 5.49197C7.54675 5.69887 7.65851 5.88878 7.7575 6.05218L7.90544 6.29727L7.617 6.29303C7.41371 6.28984 7.21148 6.2856 7.01031 6.28029L6.76551 6.27499L6.86982 6.0543ZM6.17904 6.15616L6.13647 6.25589L6.02684 6.25271C5.9055 6.24846 5.78417 6.24422 5.66389 6.23998L5.5532 6.23467L5.51914 6.12963C5.51382 6.11372 5.51062 6.10204 5.5053 6.09143C5.2903 5.65749 5.06678 5.17473 4.88265 4.58906L4.8603 4.51798L4.90181 4.45432C5.1977 4.00445 5.53404 3.56839 5.90125 3.15884L6.05984 2.98378L6.16414 3.19491C6.35999 3.59279 6.60692 4.05538 6.89536 4.57209L6.94007 4.64954L6.89536 4.72805C6.53454 5.36147 6.29187 5.89409 6.17904 6.15616ZM7.66596 4.74185L7.61913 4.66015L7.66915 4.57952C8.03636 3.9843 8.43124 3.44849 8.84102 2.98696L8.96555 2.84585L9.08476 2.99226C9.47325 3.4729 9.8362 3.98217 10.1619 4.50631L10.2109 4.58588L10.1662 4.66652C9.8032 5.3307 9.5733 5.91425 9.469 6.2039L9.43068 6.30894H9.31785C9.10817 6.30788 8.89637 6.30682 8.68456 6.30576L8.59622 6.30469L8.55045 6.23043C8.41953 6.01823 8.07255 5.44953 7.66596 4.74185ZM10.1438 6.08613C10.2279 5.8803 10.3205 5.67128 10.4184 5.46545L10.5578 5.17579L10.7047 5.4612C10.8101 5.66598 10.9091 5.87287 10.9996 6.07658L11.0964 6.29727L10.8559 6.29939C10.6696 6.30257 10.4823 6.3047 10.2918 6.30576L10.0533 6.30682L10.1438 6.08613ZM10.6419 1.50369L10.7249 1.56098C11.0496 1.78697 11.3721 2.0745 11.6839 2.41614L11.7893 2.53073L11.6765 2.63895C11.3274 2.96998 10.9932 3.36892 10.6824 3.82408L10.5483 4.01931L10.4173 3.82196C10.1236 3.37953 9.8064 2.95195 9.47538 2.54771L9.37852 2.431L9.49135 2.32914C9.8362 2.01933 10.1938 1.75833 10.5546 1.55355L10.6419 1.50369ZM8.59409 1.20555C8.74523 1.196 8.89318 1.19069 9.03474 1.19069C9.1763 1.19069 9.32424 1.196 9.49986 1.20873L9.92242 1.2395L9.58395 1.49414C9.42429 1.61509 9.26464 1.74666 9.11031 1.88565L8.99322 1.98962L8.88679 1.8761C8.75374 1.73498 8.62176 1.6013 8.4951 1.47928L8.2354 1.22995L8.59409 1.20555ZM7.74472 1.58751L7.83413 1.66496C8.03743 1.84108 8.25455 2.05222 8.4802 2.29413L8.58025 2.40129L8.48127 2.51057C8.11832 2.90845 7.76601 3.36149 7.43499 3.85485L7.28811 4.07448L7.16145 3.84318C6.91133 3.38377 6.70484 2.98272 6.54944 2.65169L6.49942 2.54559L6.58563 2.46707C6.939 2.14347 7.29556 1.86867 7.64361 1.6501L7.74472 1.58751ZM4.6123 2.99226C4.89648 2.72595 5.19557 2.48511 5.50211 2.27821L6.73571 1.44321L5.70753 2.51906C5.42015 2.82038 5.14555 3.14186 4.8901 3.47502L4.66339 3.77103L4.60591 3.40287C4.59314 3.32648 4.5825 3.24797 4.57185 3.16733C4.56866 3.15566 4.56653 3.14823 4.56547 3.14186L4.54631 3.0538L4.6123 2.99226ZM4.45903 5.18216L4.5974 5.51638C4.65807 5.66279 4.72299 5.81027 4.79537 5.96624L4.90713 6.20708L4.6421 6.19223C4.51118 6.18586 4.38346 6.17844 4.2568 6.17101L4.0418 6.15722L4.11631 5.95669C4.17059 5.81027 4.23445 5.66067 4.3047 5.51001L4.45903 5.18216ZM2.55595 5.81345C2.93912 5.06969 3.36486 4.40657 3.82148 3.84318L4.03435 3.58006L4.10247 3.91109C4.1344 4.06918 4.17165 4.22514 4.20997 4.37474L4.227 4.43946L4.19294 4.49676C3.87789 5.01983 3.63308 5.53759 3.48514 5.99488L3.44576 6.11478L3.3191 6.10417C3.09345 6.08507 2.87845 6.06491 2.68154 6.04369L2.45058 6.01929L2.55595 5.81345ZM2.2409 6.68877L2.3005 6.6962C2.43993 6.71212 2.58894 6.72909 2.7454 6.74501L2.84013 6.7535L2.78266 6.82883C2.58681 7.08877 2.43887 7.39222 2.34414 7.73067L2.23877 8.10414L2.2409 6.68877ZM10.8984 14.0489L10.8974 14.3428H6.95603L6.95497 14.016C6.95497 13.4112 6.9539 12.8075 6.95603 12.2028C6.95922 11.145 7.61062 10.3736 8.65582 10.1911C9.16352 10.102 9.72977 10.259 10.1725 10.6113C10.5919 10.9455 10.8463 11.4091 10.8697 11.8824C10.9048 12.6038 10.9016 13.3391 10.8984 14.0489ZM15.8211 13.5884V14.3428H11.5903V12.2081C11.5881 10.8086 10.6792 9.72747 9.32744 9.51739C8.61218 9.40599 7.90651 9.57787 7.34027 9.99908C6.76977 10.4245 6.38979 11.0654 6.29825 11.7561C6.27697 11.9121 6.26632 12.0797 6.26632 12.2686C6.26419 12.8585 6.26419 13.4473 6.26419 14.0372L6.26526 14.3428H2.2377V14.2898C2.2377 12.7736 2.2377 10.7715 2.23877 8.96461V8.83623L2.32924 8.92748C2.38884 8.98795 2.46761 9.01978 2.55808 9.01978C2.76244 9.01978 2.89548 8.86276 2.90825 8.61024C2.9157 8.45534 2.92635 8.29088 2.95721 8.13173C3.05939 7.60229 3.28397 7.20442 3.64586 6.91583C3.66715 6.89885 3.6863 6.87869 3.70759 6.85111L3.72462 6.82776L3.75336 6.82989C3.87044 6.83732 3.98965 6.8458 4.11098 6.85323L4.20358 6.8596L4.15143 6.93599C3.8566 7.36781 3.69588 7.89194 3.65863 8.53915C3.65437 8.70997 3.69269 8.84048 3.77358 8.92536C3.83212 8.98583 3.91088 9.01766 4.00136 9.01978C4.21316 9.01978 4.34089 8.86594 4.36005 8.59645L4.36537 8.52642C4.37495 8.3747 4.38559 8.21767 4.41752 8.06913C4.52289 7.57259 4.74215 7.19699 5.08914 6.92007L5.10404 6.90734L5.12426 6.9084C5.31478 6.91689 5.5085 6.92538 5.70753 6.93281L5.78523 6.93599L5.75436 7.00707C5.5532 7.46967 5.43825 7.95773 5.41164 8.45852L5.40738 8.5052C5.40525 8.54127 5.40206 8.57735 5.40099 8.61342C5.39674 8.73438 5.43292 8.8426 5.50211 8.91687C5.56171 8.98053 5.64473 9.0166 5.73414 9.01978H5.74478C5.831 9.01978 5.91295 8.98795 5.97469 8.9296C6.04706 8.86063 6.08857 8.7609 6.09177 8.64843C6.10454 8.06807 6.24823 7.5259 6.52922 6.9901L6.54519 6.96039L6.57818 6.96145C6.80276 6.96782 7.03054 6.97312 7.2615 6.97843L7.32643 6.97949L7.31259 7.04315C7.21148 7.49301 7.15294 7.94287 7.1391 8.37788V8.46488C7.13804 8.53173 7.13697 8.59857 7.14017 8.66541C7.14655 8.86276 7.28492 9.0113 7.46799 9.01872L7.48289 9.01978C7.56804 9.01978 7.65 8.98689 7.71386 8.92642C7.78411 8.85957 7.82242 8.76727 7.82349 8.66647C7.82775 8.11688 7.89586 7.56622 8.02572 7.03148L8.03636 6.99116H8.07787C8.22582 6.99328 8.37483 6.99434 8.5249 6.99646H8.57812L8.57706 7.37736V7.93969C8.57706 8.16038 8.57599 8.38106 8.57812 8.60175C8.58025 8.85215 8.71436 9.01554 8.92191 9.01978C9.01771 9.01978 9.09753 8.98796 9.1582 8.92854C9.23377 8.85427 9.27635 8.7418 9.27635 8.61024C9.27847 8.09141 9.27741 7.57152 9.27635 7.0527V6.99965H9.41046C9.53286 6.99965 9.65313 6.99965 9.77341 6.99859H9.81491L9.82556 7.03891C9.8692 7.21185 9.90432 7.35614 9.92454 7.50681C9.96392 7.80707 9.98734 8.11475 10.0097 8.41289L10.0289 8.66117C10.0448 8.86806 10.1896 9.01978 10.3737 9.01978C10.5589 9.01978 10.7047 8.87231 10.7143 8.67602C10.7175 8.6113 10.7164 8.54552 10.7154 8.47974V8.43305L10.7239 8.43199L10.7196 8.38213C10.7143 8.32483 10.7111 8.26754 10.7079 8.20918C10.7005 8.08186 10.693 7.95136 10.6707 7.82298C10.626 7.57365 10.577 7.31582 10.5238 7.05694L10.511 6.99434L10.5749 6.99328C10.8133 6.99116 11.0453 6.98798 11.2742 6.98373L11.3082 6.98267L11.3284 7.02723C11.4381 7.25853 11.5498 7.49832 11.6201 7.74447C11.6818 7.96515 11.7084 8.20069 11.7329 8.42881C11.7425 8.51475 11.751 8.59008 11.7616 8.66647C11.7882 8.87761 11.9287 9.01978 12.1107 9.01978C12.2108 9.01872 12.2991 8.9784 12.3609 8.90732C12.4226 8.83729 12.4556 8.74074 12.4545 8.6357C12.4545 8.59963 12.4513 8.56356 12.4482 8.52748L12.445 8.48398C12.4194 7.98319 12.3077 7.49725 12.1129 7.03678L12.082 6.9657L12.1597 6.96357C12.3705 6.95721 12.5748 6.95084 12.7728 6.94341L12.793 6.94235L12.809 6.95615C13.0655 7.17153 13.2368 7.4198 13.3177 7.69354C13.3699 7.86754 13.3997 8.04367 13.4316 8.2304C13.4518 8.35029 13.4721 8.47231 13.4997 8.59114C13.5274 8.71634 13.5647 8.85639 13.6541 8.93915C13.6945 8.97628 13.7616 8.9975 13.8457 8.9975C13.901 8.9975 13.9585 8.98796 14.0011 8.97204C14.2086 8.89353 14.2044 8.67072 14.2033 8.56356L14.2022 8.55401C14.1958 8.4999 14.1895 8.4426 14.1831 8.38531C14.1692 8.25905 14.1543 8.12961 14.1298 8.00335C14.0532 7.60972 13.9234 7.27551 13.7328 6.97949L13.6839 6.9031L13.7744 6.89779C13.9021 6.89036 14.0245 6.88294 14.1437 6.87551L14.1682 6.87339L14.1863 6.89249C14.2022 6.90946 14.2193 6.92644 14.2384 6.94235C14.5396 7.18638 14.7429 7.51317 14.8419 7.9121C14.8887 8.10202 14.91 8.30361 14.9292 8.49883C14.9356 8.55613 14.9409 8.61342 14.9473 8.67071C14.9707 8.87655 15.1133 9.01978 15.2932 9.01978H15.3049C15.4869 9.01342 15.6263 8.86594 15.6359 8.66753C15.6381 8.63889 15.6381 8.61024 15.6381 8.58159L15.637 8.53915L15.654 8.53491L15.6466 8.4861C15.6381 8.42563 15.6295 8.36515 15.6221 8.30361C15.604 8.17099 15.5859 8.03412 15.555 7.90149C15.4646 7.49937 15.3198 7.1641 15.1133 6.87551L15.0601 6.80124L15.1506 6.79169C15.3901 6.76517 15.5933 6.73758 15.753 6.70787L15.8158 6.6962L15.8169 7.3954C15.8222 9.45904 15.8222 11.5587 15.8211 13.5884Z" fill="#353535"/>
</svg>
