<svg width="23" height="21" viewBox="0 0 23 21" fill="none" xmlns="http://www.w3.org/2000/svg">
<path d="M12.3125 1.77397C13.3958 0.993971 14.6525 0.603971 16.0717 0.603971C16.8517 0.603971 17.7075 0.809805 18.6392 1.24314C19.5708 1.66564 20.3075 2.16397 20.8492 2.73814C21.965 4.1248 22.4308 5.73897 22.2683 7.58064C22.095 9.42231 21.4883 10.8631 20.4375 11.8815L12.215 20.104C12.0092 20.3098 11.7492 20.4073 11.4458 20.4073C11.1425 20.4073 10.8933 20.3098 10.6875 20.104C10.5873 20.0054 10.5087 19.8871 10.4565 19.7565C10.4043 19.626 10.3797 19.4861 10.3842 19.3456C10.3842 19.0423 10.4817 18.7823 10.6875 18.5765L15.66 13.604C15.9308 13.3656 15.9308 13.1165 15.66 12.8456C15.3892 12.5748 15.14 12.5748 14.9017 12.8456L9.92917 17.8181C9.8289 17.9191 9.70878 17.9982 9.57639 18.0504C9.44399 18.1027 9.30221 18.1268 9.16 18.1215C8.85667 18.1215 8.6075 18.024 8.40167 17.8181C8.30151 17.7195 8.22285 17.6012 8.17064 17.4707C8.11844 17.3402 8.09382 17.2003 8.09833 17.0598C8.09833 16.7565 8.19583 16.4965 8.40167 16.2906L13.3742 11.3181C13.6667 11.0473 13.6667 10.7765 13.3742 10.5056C13.125 10.2348 12.8867 10.2348 12.6158 10.5056L7.64333 15.5323C7.54193 15.6317 7.42161 15.7098 7.28949 15.7619C7.15738 15.814 7.01615 15.8391 6.87417 15.8356C6.57083 15.8356 6.31083 15.7381 6.08333 15.5323C5.86667 15.3265 5.75833 15.0773 5.75833 14.774C5.75833 14.4706 5.8775 14.1998 6.11583 13.9615L11.0992 8.97814C11.37 8.7073 11.37 8.45814 11.0992 8.21981C10.8283 7.98147 10.5683 7.98147 10.33 8.21981L5.30333 13.214C5.065 13.4306 4.81583 13.5498 4.545 13.5498C4.24167 13.5498 3.98167 13.4415 3.78667 13.214C3.58083 12.9973 3.4725 12.7373 3.4725 12.434C3.4725 12.1306 3.58083 11.8815 3.78667 11.6756C7.10167 8.33897 9.14917 6.32397 9.92917 5.57647L13.7858 9.3898C14.2083 9.79064 14.6958 9.99647 15.2917 9.99647C16.05 9.99647 16.6458 9.69314 17.09 9.08647C17.3933 8.6423 17.5017 8.15481 17.415 7.61314C17.3283 7.07147 17.1008 6.61647 16.7325 6.23731L12.3125 1.77397ZM14.5442 8.63147L9.92917 4.00564L2.25917 11.6756C1.34917 10.7548 0.829167 9.34647 0.710001 7.42897C0.590834 5.52231 1.11083 3.8648 2.25917 2.47814C3.54833 1.19981 5.08667 0.549805 6.87417 0.549805C8.6725 0.549805 10.2 1.19981 11.4458 2.47814L16.0717 7.10397C16.2775 7.3098 16.375 7.55897 16.375 7.86231C16.375 8.16564 16.2775 8.42564 16.0717 8.63147C15.8658 8.82647 15.6167 8.9348 15.2917 8.9348C14.9992 8.9348 14.75 8.82647 14.5442 8.63147Z" fill="#00723B"/>
</svg>
