<svg width="23" height="19" viewBox="0 0 23 19" fill="none" xmlns="http://www.w3.org/2000/svg">
<path d="M11.5 0.505615L22.5 8.74327L21.7844 9.65409L19.5401 7.97027V18.5729H3.4599V7.97142L1.21557 9.65409L0.5 8.74327L11.5 0.505615ZM7.48455 9.92171C7.48455 10.6897 7.89765 11.5083 8.72387 12.3774C9.55009 13.2465 10.4755 14.1485 11.5 15.0835C12.5544 14.1485 13.4947 13.2469 14.3209 12.3785C15.1471 11.5102 15.5602 10.6932 15.5602 9.92746C15.5602 9.29191 15.342 8.76241 14.9056 8.33896C14.4691 7.91705 13.9453 7.70609 13.3343 7.70609C12.9568 7.70609 12.6137 7.7842 12.3052 7.94041C11.9966 8.09738 11.7282 8.29455 11.5 8.53193C11.3009 8.29455 11.0413 8.09738 10.7213 7.94041C10.4012 7.7842 10.0662 7.70609 9.71625 7.70609C9.10367 7.70609 8.57838 7.9159 8.14039 8.33552C7.70316 8.7559 7.48455 9.28463 7.48455 9.92171Z" fill="#00AEEF"/>
</svg>
