<svg width="250" height="251" viewBox="0 0 250 251" fill="none" xmlns="http://www.w3.org/2000/svg">
<g opacity="0.22">
<path d="M216.435 62.9407C230.73 91.4407 226.205 127.381 208.34 153.771C190.475 180.161 160.745 197.271 129.49 203.471C107.165 207.941 83.165 207.011 62.785 196.911C42.405 186.811 26.365 166.501 25.165 143.786C24.7 135.206 26.52 126.091 32.245 119.686C41.39 109.456 57 109.096 70.715 109.516C84.43 109.936 100.03 109.621 109.215 99.4307C116.275 91.6007 117.315 80.2407 121.035 70.3757C127.36 53.6007 142.62 40.5057 160.16 36.8007C162.595 36.2857 165.06 35.9557 167.545 35.8007C186.835 34.5957 205.135 44.5257 215.25 60.9907L216.435 62.9407Z" fill="#FDB834"/>
</g>
<path d="M81.355 83.8356C79.82 82.5556 79.09 80.5506 79.44 78.5856C79.825 76.6456 80.97 74.9356 82.62 73.8456C83.365 73.3456 84.29 72.9256 85.16 73.1806C85.97 73.4756 86.56 74.1856 86.7 75.0406C86.825 75.8856 86.725 76.7456 86.41 77.5406C85.46 80.2806 84.04 82.7606 81.355 83.8506" fill="#455A64"/>
<path d="M78.82 88.5157C75.695 85.7207 71.415 84.6007 67.32 85.5157C66.32 85.7507 65.145 86.2907 64.98 87.3257C64.815 88.3607 65.735 89.2457 66.645 89.7757C70.575 91.9557 75.425 91.5607 78.95 88.7757" fill="#455A64"/>
<path d="M64.165 66.8457C65.88 66.4507 67.685 66.7657 69.165 67.7157C70.64 68.6757 71.87 69.9607 72.765 71.4757C74.575 74.3357 75.215 78.1857 75.295 81.5707C71.535 81.4207 68.325 78.4657 66.795 76.8607C64.365 74.3307 61.515 68.2857 64.135 66.8607" fill="#455A64"/>
<path d="M84.505 93.6308C84.165 93.1758 83.85 92.7008 83.565 92.2108C82.59 90.3008 81.88 88.2758 81.45 86.1758C81.025 84.0508 81.19 81.8508 81.92 79.8108C82.15 79.2008 82.455 78.6208 82.825 78.0858C82.95 77.8808 83.11 77.6958 83.29 77.5408C82.855 78.2958 82.48 79.0858 82.17 79.9008C81.535 81.9108 81.415 84.0458 81.82 86.1108C82.255 88.1808 82.925 90.1958 83.82 92.1108" fill="#263238"/>
<path d="M84.54 93.6756L82.58 91.1506C80.935 89.0156 78.65 86.0706 76.08 82.8506C73.51 79.6306 71.155 76.7506 69.445 74.6706L67.445 72.1706C67.18 71.8806 66.945 71.5656 66.735 71.2356C67.03 71.4956 67.305 71.7756 67.555 72.0756C68.055 72.6356 68.79 73.4506 69.675 74.4706C71.44 76.5106 73.835 79.3706 76.405 82.5906C78.975 85.8106 81.22 88.7856 82.815 90.9656C83.615 92.0556 84.25 92.9656 84.68 93.5606" fill="#263238"/>
<path d="M69.665 87.7307C69.87 87.6307 70.09 87.5607 70.315 87.5307C70.57 87.4607 70.835 87.4107 71.1 87.3807C71.45 87.3207 71.8 87.2857 72.155 87.2657C73.08 87.2057 74.005 87.2407 74.92 87.3707C76.04 87.5357 77.135 87.8257 78.195 88.2257C79.25 88.6457 80.255 89.1757 81.195 89.8107C81.955 90.3357 82.66 90.9357 83.3 91.6007C83.55 91.8507 83.785 92.1157 84.005 92.3957C84.185 92.5957 84.355 92.8107 84.505 93.0357C84.75 93.4007 84.715 93.5707 84.695 93.5857C84.205 92.9607 83.685 92.3607 83.135 91.7907C82.485 91.1657 81.775 90.6007 81.025 90.1007C80.1 89.5057 79.115 89.0007 78.09 88.6007C77.055 88.2107 75.985 87.9207 74.895 87.7357C74 87.5957 73.1 87.5357 72.195 87.5557C70.615 87.5707 69.665 87.8007 69.665 87.7307Z" fill="#263238"/>
<path d="M173.4 181.101C174.65 176.846 178.08 173.586 182.395 172.561C186.685 171.626 191.175 172.446 194.855 174.846C196.53 175.921 198.205 177.431 198.455 179.426C198.57 181.341 197.645 183.166 196.03 184.206C194.425 185.211 192.58 185.771 190.685 185.826C184.27 186.316 177.965 185.616 173.375 181.116" fill="#FDB834"/>
<path d="M161.635 180.081C164.565 171.246 163.05 161.546 157.575 154.021C156.215 152.191 154.075 150.281 151.825 150.856C149.575 151.436 148.585 154.091 148.31 156.411C147.345 166.331 152.435 175.861 161.22 180.571" fill="#FDB834"/>
<path d="M192.79 131.096C195.115 134.236 196.07 138.186 195.44 142.041C194.785 145.886 193.255 149.531 190.97 152.691C186.75 158.901 179.48 163.611 172.66 166.766C169.64 158.981 172.82 149.836 174.735 145.301C177.735 138.121 187.52 126.976 192.735 131.046" fill="#FDB834"/>
<path d="M156.25 196.171C156.87 195.076 157.56 194.016 158.31 193.001C161.33 189.336 164.835 186.091 168.725 183.361C172.675 180.621 177.295 179.006 182.095 178.691C183.54 178.616 184.99 178.721 186.405 179.006C186.93 179.081 187.445 179.241 187.925 179.471C186 179.256 184.065 179.191 182.13 179.276C177.48 179.761 173.03 181.401 169.18 184.051C165.355 186.766 161.85 189.911 158.735 193.426" fill="#263238"/>
<path d="M156.19 196.281L159.595 190.061C162.485 184.826 166.46 177.571 170.745 169.496C175.025 161.421 178.805 154.081 181.53 148.761L184.85 142.481C185.21 141.686 185.635 140.926 186.125 140.211C185.86 141.041 185.53 141.846 185.14 142.621C184.44 144.136 183.435 146.351 182.14 149.051C179.55 154.446 175.845 161.851 171.56 169.926C167.28 178.001 163.205 185.201 160.18 190.376C158.67 192.966 157.38 195.066 156.545 196.466" fill="#263238"/>
<path d="M155.14 160.751C155.525 161.076 155.86 161.466 156.12 161.896C156.49 162.356 156.825 162.846 157.12 163.361C157.545 164.021 157.935 164.706 158.285 165.406C159.22 167.231 159.965 169.151 160.515 171.126C161.165 173.551 161.55 176.041 161.67 178.546C161.745 181.061 161.55 183.576 161.095 186.051C160.7 188.061 160.1 190.026 159.31 191.916C159.02 192.646 158.685 193.361 158.315 194.056C158.065 194.601 157.775 195.131 157.455 195.641C156.93 196.461 156.55 196.541 156.505 196.516C157.345 194.971 158.105 193.381 158.78 191.756C159.475 189.876 160 187.941 160.355 185.966C160.75 183.556 160.905 181.111 160.815 178.666C160.7 176.216 160.345 173.781 159.75 171.396C159.25 169.451 158.575 167.561 157.73 165.741C156.305 162.536 154.995 160.806 155.135 160.746L155.14 160.751Z" fill="#263238"/>
<path d="M153.535 215.311L95.785 215.041C88.85 215.001 83.255 209.346 83.285 202.411L83.895 57.6256C83.925 50.6856 89.575 45.0806 96.515 45.1006L154.265 45.3656C161.2 45.4106 166.795 51.0656 166.765 58.0006L166.165 202.781C166.135 209.726 160.48 215.336 153.535 215.311Z" fill="#263238"/>
<path d="M154.165 50.3656L142.965 50.3106C141.43 50.3356 140.21 51.6056 140.235 53.1406V55.1706C140.265 56.7056 139.04 57.9706 137.505 58.0006L115.68 57.9006C114.145 57.8556 112.935 56.5806 112.975 55.0456V53.0156C113.015 51.4806 111.8 50.2006 110.265 50.1606H106.33L96.53 50.1156C91.665 50.0956 87.7 54.0256 87.675 58.8906L87.08 200.206C87.06 205.071 90.985 209.031 95.85 209.056L153.485 209.321C158.35 209.341 162.315 205.416 162.335 200.551L162.93 59.2306C162.965 54.3706 159.055 50.4006 154.195 50.3656C154.185 50.3656 154.175 50.3656 154.165 50.3656Z" fill="#FAFAFA"/>
<path d="M121.565 195.771C121.665 196.431 121.21 197.041 120.555 197.141C119.895 197.241 119.285 196.786 119.185 196.131C119.085 195.471 119.54 194.861 120.195 194.761C120.255 194.751 120.32 194.746 120.38 194.746C120.99 194.711 121.515 195.166 121.565 195.771Z" fill="#455A64"/>
<path d="M125.25 195.791C125.345 196.451 124.89 197.061 124.235 197.156C123.575 197.251 122.965 196.796 122.87 196.141C122.775 195.481 123.23 194.871 123.885 194.776C123.945 194.766 124.005 194.761 124.065 194.761C124.675 194.726 125.2 195.181 125.25 195.791Z" fill="#455A64"/>
<path d="M128.935 195.806C129.035 196.466 128.58 197.076 127.925 197.176C127.265 197.276 126.655 196.821 126.555 196.166C126.455 195.506 126.91 194.896 127.565 194.796C127.625 194.786 127.69 194.781 127.75 194.781C128.36 194.741 128.885 195.196 128.935 195.806Z" fill="#455A64"/>
<path d="M104.925 118.491C105.865 118.626 162.515 129.736 162.515 129.736V118.491H104.925Z" fill="#EBEBEB"/>
<path d="M87.1 189.891C87.1 189.891 148.73 181.171 148.19 181.441C147.65 181.711 87.1 181.441 87.1 181.441V189.891Z" fill="#EBEBEB"/>
<path d="M217.28 75.4856H104.56C102.125 75.4856 100.15 77.4606 100.15 79.8956V114.861C100.15 117.296 102.115 119.266 104.55 119.271H112.95C113.61 122.846 114.38 127.331 114.415 127.516C114.415 127.516 114.42 127.516 114.425 127.516L122.015 119.271H217.27C219.705 119.271 221.68 117.296 221.68 114.861V79.8956C221.68 77.4606 219.715 75.4906 217.28 75.4856Z" fill="#00AEEF"/>
<path d="M170.77 94.4407C170.77 94.5107 157.355 94.5707 140.81 94.5707C124.265 94.5707 110.845 94.5107 110.845 94.4407C110.845 94.3707 124.26 94.3057 140.81 94.3057C157.36 94.3057 170.77 94.3807 170.77 94.4407Z" fill="#F5F5F5"/>
<path d="M170.77 89.0807C170.77 89.1507 157.355 89.2107 140.81 89.2107C124.265 89.2107 110.845 89.1507 110.845 89.0807C110.845 89.0107 124.26 88.9507 140.81 88.9507C157.36 88.9507 170.77 89.0057 170.77 89.0807Z" fill="#F5F5F5"/>
<path d="M170.77 99.7706C170.77 99.8406 157.355 99.9006 140.81 99.9006C124.265 99.9006 110.845 99.8406 110.845 99.7706C110.845 99.7006 124.26 99.6406 140.81 99.6406C157.36 99.6406 170.77 99.6956 170.77 99.7706Z" fill="#F5F5F5"/>
<path d="M150.095 105.276C150.095 105.346 141.31 105.406 130.47 105.406C119.63 105.406 110.845 105.346 110.845 105.276C110.845 105.206 119.63 105.146 130.47 105.146C141.31 105.146 150.095 105.201 150.095 105.276Z" fill="#F5F5F5"/>
<path d="M166.345 138.351H52.7C51 138.351 49.62 139.726 49.615 141.426C49.615 141.431 49.615 141.436 49.615 141.441V178.441C49.615 180.146 50.995 181.526 52.7 181.526H135.24L142.74 189.691C142.74 189.691 143.525 185.101 144.19 181.526H166.33C168.035 181.526 169.415 180.146 169.415 178.441V141.441C169.42 139.741 168.045 138.356 166.345 138.351Z" fill="#455A64"/>
<path d="M161.89 157.441C161.89 157.511 148.475 157.571 131.925 157.571C115.375 157.571 101.96 157.511 101.96 157.441C101.96 157.371 115.375 157.311 131.925 157.311C148.475 157.311 161.89 157.351 161.89 157.441Z" fill="#F5F5F5"/>
<path d="M161.89 152.051C161.89 152.121 148.475 152.181 131.925 152.181C115.375 152.181 101.96 152.121 101.96 152.051C101.96 151.981 115.375 151.921 131.925 151.921C148.475 151.921 161.89 151.976 161.89 152.051Z" fill="#F5F5F5"/>
<path d="M161.89 162.741C161.89 162.811 148.475 162.871 131.925 162.871C115.375 162.871 101.96 162.811 101.96 162.741C101.96 162.671 115.375 162.611 131.925 162.611C148.475 162.611 161.89 162.671 161.89 162.741Z" fill="#F5F5F5"/>
<path d="M141.215 168.245C141.215 168.32 132.43 168.375 121.59 168.375C110.75 168.375 101.96 168.32 101.96 168.245C101.96 168.17 110.75 168.115 121.59 168.115C132.43 168.115 141.215 168.175 141.215 168.245Z" fill="#F5F5F5"/>
<path d="M196.225 109.556C203.037 109.556 208.56 104.033 208.56 97.2205C208.56 90.4081 203.037 84.8855 196.225 84.8855C189.413 84.8855 183.89 90.4081 183.89 97.2205C183.89 104.033 189.413 109.556 196.225 109.556Z" fill="white"/>
<path d="M72.65 172.241C79.4624 172.241 84.985 166.718 84.985 159.906C84.985 153.093 79.4624 147.571 72.65 147.571C65.8376 147.571 60.315 153.093 60.315 159.906C60.315 166.718 65.8376 172.241 72.65 172.241Z" fill="white"/>
</svg>
