<svg width="151" height="151" viewBox="0 0 151 151" fill="none" xmlns="http://www.w3.org/2000/svg">
<path d="M79.088 57.1594C74.2378 57.1724 69.5225 58.7971 65.6857 61.7773C61.849 64.7575 59.1092 68.9236 57.8985 73.6184L58.842 73.6178C59.7243 70.4587 61.6189 67.671 64.2351 65.6822C66.8513 63.6933 70.0447 62.6131 73.3256 62.6073C77.1158 62.6052 80.7595 64.0365 83.5234 66.6132C86.2873 69.1898 87.9663 72.7205 88.2226 76.4949L100.694 76.4875C100.11 71.168 97.5856 66.2582 93.6009 62.6937C89.6163 59.1292 84.4505 57.1593 79.088 57.1594Z" fill="#FF0000"/>
<path d="M68.0906 97.38C72.9408 97.367 77.6561 95.7422 81.4929 92.762C85.3296 89.7818 88.0694 85.6158 89.2801 80.921L88.3366 80.9215C87.4542 84.0806 85.5597 86.8683 82.9435 88.8572C80.3273 90.846 77.1339 91.9262 73.853 91.932C70.0628 91.9341 66.4191 90.5028 63.6552 87.9262C60.8913 85.3495 59.2123 81.8188 58.956 78.0445L46.4842 78.0519C47.0681 83.3713 49.593 88.2811 53.5776 91.8456C57.5623 95.4101 62.7281 97.3801 68.0906 97.38Z" fill="#FF0000"/>
<path d="M73.5899 83.8549C77.3323 83.8514 80.3796 80.8169 80.3961 77.077C80.4126 73.3371 77.3921 70.3082 73.6496 70.3116C69.9072 70.3151 66.8599 73.3497 66.8434 77.0896C66.8269 80.8294 69.8474 83.8584 73.5899 83.8549Z" fill="black"/>
<g filter="url(#filter0_f_1469_13405)">
<path d="M80.3912 78.7024C80.4012 78.6651 80.4108 78.6278 80.4202 78.5904C80.466 78.3691 80.5008 78.1457 80.5243 77.9211C80.5479 77.6964 80.5602 77.4708 80.5612 77.245C80.5619 77.0851 80.557 76.9254 80.5464 76.7659C80.5314 76.5407 80.5051 76.3165 80.4676 76.0941C80.4302 75.8716 80.3817 75.6513 80.3223 75.4338C80.2628 75.2163 80.1925 75.002 80.1115 74.7916C80.0306 74.5813 79.9391 74.3751 79.8376 74.174C79.736 73.9729 79.6244 73.7771 79.5031 73.5872C79.3819 73.3973 79.2512 73.2137 79.1116 73.037C78.9719 72.8603 78.8234 72.6907 78.6667 72.5289C78.5101 72.3671 78.3454 72.2132 78.1732 72.0679C78.0011 71.9226 77.8217 71.7861 77.6358 71.6588C77.4499 71.5315 77.2576 71.4136 77.0598 71.3055C76.862 71.1975 76.6589 71.0994 76.4512 71.0117C76.2435 70.924 76.0315 70.8467 75.8159 70.7801C75.6004 70.7136 75.3816 70.658 75.1604 70.6133C74.9391 70.5687 74.7158 70.5351 74.4911 70.5128C74.2664 70.4905 74.0406 70.4794 73.8147 70.4796C73.6548 70.4797 73.4949 70.4855 73.3354 70.4969C73.1099 70.5131 72.8854 70.5406 72.6626 70.5792C72.5598 70.5999 72.4574 70.623 72.3557 70.6484C71.7051 71.1859 71.1802 71.8595 70.8182 72.6211C70.4563 73.3828 70.2663 74.2138 70.2616 75.0552C70.2549 76.5749 70.8526 78.0317 71.9232 79.1052C72.9938 80.1788 74.4495 80.7811 75.9702 80.7796C76.8129 80.7785 77.6459 80.5917 78.41 80.2327C79.1741 79.8737 79.8506 79.3511 80.3912 78.7024Z" fill="#B3B3B3"/>
</g>
<path d="M68.1842 62.9597C65.3247 64.071 62.8629 66.0163 61.1214 68.5406C59.3799 71.0649 58.4399 74.0504 58.4247 77.1058C58.4147 79.0969 58.7979 81.068 59.5524 82.9064C60.3068 84.7449 61.4178 86.4147 62.8218 87.8206C64.2257 89.2264 65.8953 90.3408 67.735 91.1001C69.5748 91.8593 71.5488 92.2486 73.5442 92.2456C77.5742 92.2396 81.4471 90.6364 84.3109 87.7887C87.1746 84.9411 88.7948 81.0821 88.8148 77.0608C88.8248 75.0697 88.4416 73.0986 87.6871 71.2602C86.9327 69.4217 85.8217 67.7519 84.4177 66.346C83.0138 64.9402 81.3442 63.8258 79.5045 63.0665C77.6647 62.3073 75.6907 61.918 73.6953 61.921C71.8118 61.9238 69.943 62.276 68.1842 62.9597ZM71.1986 70.792C71.982 70.4875 72.8144 70.3307 73.6534 70.3294C74.5422 70.3281 75.4215 70.5015 76.241 70.8397C77.0605 71.1779 77.8042 71.6743 78.4296 72.3005C79.0549 72.9267 79.5498 73.6706 79.8859 74.4895C80.2219 75.3084 80.3926 76.1864 80.3882 77.0733C80.3792 78.8645 79.6576 80.5834 78.382 81.8519C77.1063 83.1204 75.3812 83.8345 73.5861 83.8371C72.6973 83.8385 71.818 83.6651 70.9985 83.3269C70.179 82.9887 69.4353 82.4923 68.8099 81.8661C68.1846 81.2398 67.6897 80.496 67.3536 79.6771C67.0176 78.8582 66.8469 77.9802 66.8513 77.0933C66.8581 75.7323 67.2768 74.4024 68.0526 73.278C68.8283 72.1536 69.9249 71.2871 71.1986 70.792Z" fill="white"/>
<path d="M102.722 102.997C102.26 102.997 101.869 103.166 101.55 103.503C101.452 103.613 101.231 103.93 100.885 104.455C100.644 104.844 100.586 105.07 100.71 105.135C100.788 105.174 100.882 105.132 100.993 105.009C101.051 104.957 101.11 104.899 101.169 104.834C101.227 104.762 101.299 104.685 101.384 104.601C101.534 104.426 101.749 104.338 102.029 104.338C102.322 104.338 102.742 104.448 103.289 104.669C103.465 104.746 103.706 104.863 104.012 105.018C104.012 105.096 103.81 105.336 103.406 105.737C103.205 105.958 102.791 106.369 102.165 106.971C102.107 107.043 102.058 107.133 102.019 107.243C101.98 107.354 101.957 107.47 101.95 107.593C101.944 107.716 101.957 107.843 101.99 107.972C102.016 108.095 102.074 108.209 102.165 108.312L103.602 106.903C104.077 106.437 104.527 106.019 104.95 105.65C105.439 105.222 105.667 105.022 105.634 105.048C105.732 104.97 105.859 104.824 106.015 104.61C106.172 104.396 106.318 104.095 106.455 103.707C106.514 103.571 106.543 103.451 106.543 103.347C106.524 103.276 106.485 103.23 106.426 103.211C106.38 103.192 106.302 103.211 106.191 103.269C106.009 103.38 105.843 103.464 105.693 103.522C105.511 103.587 105.325 103.619 105.136 103.619C104.875 103.619 104.465 103.519 103.905 103.318C103.338 103.104 102.944 102.997 102.722 102.997Z" fill="black"/>
<path d="M105.803 95.8374C105.74 95.8285 105.683 95.8353 105.63 95.8579C105.526 95.9098 105.302 96.2757 104.956 96.9559C104.611 97.636 104.438 98.083 104.438 98.2968C104.438 98.4069 104.507 98.5202 104.644 98.6368C104.806 98.7664 105.051 98.9445 105.376 99.1712C105.702 99.3914 105.894 99.5016 105.953 99.5016C106.096 99.5016 106.331 99.2133 106.657 98.6368C106.982 98.0539 107.145 97.6102 107.145 97.3057C107.119 97.0725 106.911 96.7519 106.52 96.3438C106.231 96.0329 105.993 95.8641 105.803 95.8374Z" fill="black"/>
<path d="M97.7039 115.714C97.6404 115.705 97.5827 115.713 97.5306 115.735C97.4263 115.787 97.2016 116.153 96.8563 116.833C96.511 117.513 96.3384 117.96 96.3384 118.174C96.3384 118.284 96.4069 118.397 96.5437 118.514C96.7065 118.644 96.9508 118.818 97.2765 119.039C97.6023 119.265 97.7944 119.379 97.853 119.379C97.9963 119.379 98.2309 119.087 98.5566 118.504C98.8824 117.928 99.0452 117.487 99.0452 117.183C99.0191 116.95 98.8138 116.626 98.4295 116.211C98.1363 115.905 97.8945 115.739 97.7039 115.714Z" fill="black"/>
<path d="M102.165 106.971C102.048 107.107 101.657 107.153 100.993 107.107C100.328 107.056 99.69 107.094 99.0776 107.224C98.9604 107.341 98.8692 107.493 98.8041 107.681C98.7324 107.862 98.6834 108.06 98.6574 108.273C98.6313 108.487 98.6248 108.704 98.6379 108.924C98.6444 109.145 98.6705 109.342 98.7161 109.517C98.7552 109.698 98.8072 109.847 98.8724 109.964C98.931 110.081 98.9995 110.142 99.0776 110.149C99.1819 110.168 99.3122 110.181 99.4685 110.187C99.6249 110.194 99.7975 110.178 99.9864 110.139C100.084 110.126 100.24 110.081 100.455 110.003C100.677 109.925 100.947 109.715 101.267 109.371C101.592 109.034 101.892 108.681 102.165 108.312C102.328 108.085 102.41 107.843 102.41 107.583C102.416 107.324 102.335 107.12 102.165 106.971Z" fill="black"/>
<path d="M98.4333 107.379C98.5376 107.334 98.6418 107.301 98.746 107.282C98.8568 107.262 98.9643 107.243 99.0685 107.223C99.2509 107.47 99.3714 107.725 99.43 107.991C99.4887 108.257 99.5082 108.519 99.4887 108.778C99.4691 109.031 99.417 109.274 99.3323 109.507C99.2542 109.74 99.1662 109.954 99.0685 110.148C98.9317 110.129 98.733 110.119 98.4724 110.119C98.2119 110.119 97.922 110.164 97.6027 110.255C97.3161 110.333 96.9253 110.488 96.4302 110.721C95.7071 111.116 95.1012 111.622 94.6126 112.237C94.1306 112.846 93.5508 113.626 92.8733 114.579C92.1958 115.524 91.5053 116.337 90.8017 117.017C90.0981 117.704 89.5184 118.213 89.0623 118.543C88.5998 118.873 88.1731 119.152 87.7823 119.378C87.3914 119.612 86.9712 119.819 86.5217 120C86.4826 120.02 86.4338 120.039 86.3752 120.059C86.3035 120.091 86.2253 120.12 86.1406 120.146C85.9713 120.217 85.8345 120.217 85.7302 120.146C85.6977 120.101 85.74 120.01 85.8573 119.874C86.0071 119.719 86.2872 119.479 86.6976 119.155C87.1667 118.857 87.6976 118.472 88.2904 117.999C88.8767 117.526 89.4825 116.956 90.1079 116.289C90.7268 115.628 91.3131 114.86 91.8668 113.986C92.1339 113.636 92.3847 113.27 92.6192 112.888C93.4856 111.638 94.0459 110.861 94.2999 110.556C95.0426 109.643 95.7592 108.943 96.4497 108.457C97.1467 107.972 97.808 107.612 98.4333 107.379Z" fill="black"/>
<path d="M89.1905 100.205C89.627 99.726 90.5651 98.9098 92.0048 97.7568C93.3402 96.7075 94.6203 95.6808 95.845 94.6768C96.8222 93.893 97.7016 93.1319 98.4834 92.3934C99.0892 91.8299 99.8807 91.072 100.858 90.1198C102.311 88.7272 103.056 87.9984 103.096 87.9337C103.154 87.9337 103.144 88.047 103.066 88.2737C102.988 88.5004 102.789 88.8859 102.47 89.43C102.125 90.0324 101.855 90.4502 101.659 90.6834C101.34 91.1109 100.998 91.5254 100.633 91.927C100.255 92.3351 99.9589 92.6461 99.7439 92.8598C99.4768 93.1383 98.9687 93.6047 98.2195 94.259C97.5746 94.829 96.7635 95.5286 95.7864 96.3577C95.402 96.6751 95.0405 96.9698 94.7017 97.2419C94.3695 97.5139 94.0503 97.7633 93.7441 97.99C93.0145 98.573 92.2132 99.1786 91.3403 99.807L89.2785 101.41C89.1286 101.54 88.9821 101.66 88.8387 101.77C88.7019 101.88 88.5652 101.99 88.4283 102.1C88.1613 102.314 88.0049 102.385 87.9593 102.314C88.1222 101.867 88.3013 101.468 88.4968 101.119C88.7248 100.743 88.956 100.439 89.1905 100.205ZM87.7932 103.703C87.7737 103.923 87.7411 104.791 87.6955 106.307C87.6368 107.991 87.5294 109.387 87.373 110.495C87.3014 111.175 87.0473 111.975 86.6108 112.895C86.1874 113.808 85.6011 114.469 84.8519 114.877C84.8259 114.715 84.7933 114.556 84.7542 114.401C84.7086 114.239 84.6793 114.077 84.6663 113.915C84.6467 113.753 84.65 113.594 84.6761 113.439C84.6956 113.277 84.7542 113.115 84.852 112.953C84.9497 112.895 85.1744 112.752 85.5262 112.526C85.878 112.299 86.0636 112.092 86.0832 111.904C86.207 111.476 86.2851 110.725 86.3177 109.65C86.3438 108.587 86.3568 107.829 86.3568 107.376C86.3568 106.443 86.435 105.727 86.5913 105.229C86.7607 104.743 86.9626 104.228 87.1971 103.684C87.5164 103.017 87.7248 102.586 87.8225 102.391C87.9333 102.32 87.9724 102.398 87.9398 102.625C87.8421 103.195 87.7932 103.554 87.7932 103.703ZM101.366 88.5458C101.301 88.7854 100.965 89.2032 100.36 89.7992C99.5257 90.6348 98.5127 91.4801 97.3205 92.3351C97.3596 92.2574 97.3889 92.1797 97.4085 92.1019C97.428 92.0242 97.4573 91.9368 97.4964 91.8396C97.6723 91.587 98.2195 91.0429 99.138 90.2073C99.6071 89.7668 100.073 89.3814 100.535 89.051C100.991 88.7207 101.268 88.5523 101.366 88.5458Z" fill="black"/>
<path d="M85.3606 112.632C85.2433 112.71 84.8069 112.956 84.0512 113.371C83.5822 113.604 83.1685 113.934 82.8102 114.362C82.4845 114.751 82.0774 115.44 81.5888 116.431C81.4455 116.755 81.1393 117.086 80.6702 117.423C80.338 117.656 79.8201 117.973 79.1165 118.375C78.882 118.511 78.5303 118.718 78.0612 118.997C77.4619 119.379 77.1623 119.68 77.1623 119.9C77.1623 119.939 77.2501 119.958 77.426 119.958H77.7682C77.905 119.958 78.0221 119.949 78.1198 119.929C79.3576 119.787 80.2175 119.544 80.6996 119.201C81.1751 118.87 81.6637 118.206 82.1653 117.209C82.4389 116.665 82.6767 116.289 82.8786 116.082C83.1913 115.764 83.706 115.434 84.4226 115.091C84.7548 114.935 85.0219 114.757 85.2239 114.556C85.3998 114.388 85.5724 114.168 85.7418 113.896C85.8004 113.779 85.9079 113.591 86.0642 113.332C86.2206 113.066 86.3769 112.924 86.5332 112.904L85.3606 112.632Z" fill="black"/>
<path d="M85.036 97.5552C84.9729 97.5462 84.9154 97.5532 84.8633 97.5758C84.7591 97.6276 84.5343 97.9936 84.189 98.6738C83.8438 99.3539 83.6711 99.8008 83.6711 100.015C83.6711 100.125 83.7395 100.238 83.8763 100.355C84.0391 100.484 84.2834 100.662 84.6091 100.889C84.9348 101.109 85.1271 101.219 85.1857 101.219C85.3291 101.219 85.5635 100.931 85.8892 100.355C86.2149 99.7716 86.3779 99.3279 86.3779 99.0235C86.3518 98.7903 86.1434 98.4697 85.7525 98.0616C85.4643 97.7507 85.2254 97.5819 85.036 97.5552Z" fill="black"/>
<path d="M80.2361 105.61C80.2101 106.316 80.1905 106.951 80.1775 107.514C80.171 108.071 80.1449 108.544 80.0993 108.933C80.0211 109.769 79.8583 110.51 79.6107 111.158C79.3697 111.799 79.1775 112.227 79.0342 112.441C78.8974 112.654 78.7834 112.81 78.6922 112.907C78.588 113.004 78.5065 113.036 78.4479 113.004C78.3958 112.972 78.3763 112.917 78.3893 112.839C78.3893 112.819 78.4479 112.525 78.5652 111.955C78.6824 111.385 78.7541 110.834 78.7802 110.303C78.8127 109.765 78.8192 109.011 78.7997 108.039C78.7801 107.061 78.8029 106.313 78.8681 105.795C78.9072 105.497 78.9723 105.186 79.0635 104.862C79.1547 104.538 79.259 104.224 79.3762 103.919C79.5 103.608 79.627 103.314 79.7573 103.035C79.8876 102.757 80.0081 102.511 80.1189 102.297C80.2101 102.161 80.2882 102.109 80.3534 102.141C80.4185 102.167 80.4478 102.219 80.4413 102.297C80.4283 102.342 80.412 102.443 80.3925 102.598C80.3794 102.747 80.3631 102.928 80.3436 103.142C80.3306 103.349 80.3175 103.573 80.3045 103.813C80.2915 104.052 80.2785 104.289 80.2654 104.522C80.2589 104.749 80.2524 104.959 80.2459 105.153C80.2394 105.348 80.2361 105.5 80.2361 105.61Z" fill="black"/>
<path d="M75.3933 111.014C75.3802 111.273 75.2792 111.749 75.0903 112.442C74.9014 113.129 74.6506 113.88 74.3379 114.696C74.0317 115.512 73.7614 116.131 73.5269 116.552C73.2923 116.967 73.035 117.284 72.7549 117.504C72.4813 117.724 72.0318 117.925 71.4064 118.107C70.7876 118.281 70.2892 118.401 69.9114 118.466C69.54 118.531 69.3055 118.563 69.2078 118.563C69.1101 118.55 69.0515 118.511 69.0319 118.447C69.0124 118.375 69.0417 118.288 69.1199 118.184C69.2241 118.016 69.4944 117.799 69.9309 117.533C70.3674 117.268 70.8722 116.934 71.4455 116.533C72.0253 116.124 72.4357 115.771 72.6767 115.473C72.9243 115.169 73.2011 114.716 73.5073 114.113C73.8135 113.511 74.0904 112.905 74.3379 112.296C74.592 111.681 74.7711 111.263 74.8754 111.043C74.9861 110.816 75.1034 110.709 75.2271 110.722C75.3379 110.742 75.3933 110.839 75.3933 111.014Z" fill="black"/>
<path d="M72.4304 100.503C72.3913 100.749 72.3294 100.986 72.2448 101.213C72.1666 101.439 72.0298 101.757 71.8343 102.165C71.6454 102.573 71.5314 102.806 71.4923 102.864C71.336 103.11 71.1992 103.234 71.0819 103.234C70.9972 103.175 70.9191 103.12 70.8474 103.068C70.7823 103.01 70.7204 102.981 70.6617 102.981C70.4142 102.981 70.0885 103.081 69.6846 103.282C69.2872 103.483 68.8475 103.804 68.3654 104.244C67.8899 104.678 67.5185 105.086 67.2515 105.468C66.9844 105.844 66.8508 106.103 66.8508 106.246C66.8508 106.459 66.9192 106.625 67.056 106.741C67.1733 106.832 67.3817 106.935 67.6814 107.052C67.9876 107.169 68.1895 107.266 68.2872 107.344C68.6064 107.564 68.7661 108.001 68.7661 108.655C68.7661 109.556 68.5934 110.589 68.2482 111.755C67.9094 112.914 67.4632 113.921 66.9094 114.776C66.6228 115.172 66.2873 115.567 65.903 115.962C65.5251 116.363 65.118 116.707 64.6815 116.992C63.8412 117.542 62.8738 117.818 61.7793 117.818C60.5351 117.798 59.5905 117.38 58.9456 116.564C58.6524 116.15 58.4505 115.709 58.3397 115.243C58.229 114.776 58.1736 114.333 58.1736 113.912C58.1736 113.381 58.2127 112.859 58.2909 112.347C58.369 111.836 58.4896 111.324 58.6524 110.812C58.9065 109.977 59.2127 109.17 59.571 108.393C59.9358 107.616 60.2322 106.987 60.4602 106.508L61.1442 105.05C61.2224 104.889 61.3038 104.73 61.3885 104.574C61.4797 104.419 61.5611 104.341 61.6328 104.341C61.7305 104.341 61.7793 104.419 61.7793 104.574C61.7859 104.73 61.7696 104.846 61.7305 104.924C61.6263 105.203 61.535 105.439 61.4569 105.633C61.3787 105.821 61.2615 106.097 61.1051 106.459C60.9488 106.816 60.7794 107.204 60.597 107.625C60.4146 108.04 60.2647 108.383 60.1475 108.655C59.5742 110.171 59.2876 111.308 59.2876 112.066C59.2876 112.862 59.571 113.494 60.1377 113.96C60.711 114.427 61.5155 114.66 62.5513 114.66C63.4112 114.66 64.2418 114.459 65.0431 114.057C65.6424 113.76 66.1407 113.397 66.5381 112.969C66.942 112.542 67.2482 112.14 67.4567 111.764C67.6651 111.389 67.7693 111.052 67.7693 110.754C67.7693 110.566 67.6293 110.43 67.3492 110.346C67.0756 110.255 66.8769 110.197 66.7531 110.171C66.6293 110.139 66.4893 110.084 66.3329 110.006C66.0333 109.863 65.8052 109.682 65.6489 109.462C65.4926 109.241 65.4144 108.943 65.4144 108.568C65.4144 107.991 65.6 107.263 65.9714 106.382C66.3492 105.494 66.8801 104.623 67.5641 103.768C68.1244 103.068 68.6325 102.502 69.0885 102.068C69.3361 101.841 69.6488 101.585 70.0266 101.3C70.4109 101.015 70.7823 100.769 71.1406 100.562C71.5835 100.309 71.9321 100.163 72.1861 100.124C72.2904 100.124 72.362 100.17 72.4011 100.26C72.4402 100.345 72.45 100.426 72.4304 100.503Z" fill="black"/>
<path d="M52.1894 115.588C52.1262 115.58 52.0687 115.587 52.0166 115.61C51.9124 115.661 51.6876 116.027 51.3423 116.708C50.9971 117.388 50.8245 117.835 50.8245 118.048C50.8245 118.159 50.8928 118.272 51.0296 118.389C51.1924 118.518 51.4367 118.693 51.7624 118.913C52.0882 119.14 52.2804 119.253 52.3391 119.253C52.4824 119.253 52.7168 118.962 53.0425 118.379C53.3683 117.802 53.5312 117.362 53.5312 117.057C53.5052 116.824 53.2966 116.5 52.9057 116.086C52.6174 115.78 52.3787 115.614 52.1894 115.588Z" fill="black"/>
<path d="M53.1918 107.27C53.1006 107.257 52.9475 107.442 52.7325 107.824C52.5176 108.213 52.3418 108.466 52.205 108.582C52.0617 108.705 51.8075 108.854 51.4427 109.029C51.0323 109.243 50.7457 109.395 50.5829 109.486C50.1399 109.764 49.8175 110.039 49.6155 110.312C49.4071 110.577 49.1041 111.15 48.7068 112.031C48.3159 112.919 48.0846 113.405 48.013 113.489C47.798 113.741 47.4071 114.091 46.8403 114.538C46.8729 114.519 46.6351 114.681 46.127 115.024C45.4691 115.432 45.1173 115.659 45.0717 115.704C44.6092 116.035 44.3388 116.229 44.2606 116.287C44.0456 116.442 43.948 116.566 43.9675 116.656C44.0392 116.799 44.202 116.857 44.456 116.831C44.7492 116.831 45.1531 116.776 45.6677 116.666C46.1693 116.582 46.57 116.481 46.8697 116.365C47.5081 116.08 47.9868 115.604 48.306 114.936C48.5015 114.496 48.7621 113.868 49.0878 113.052C49.2702 112.624 49.4592 112.274 49.6546 112.002C49.7132 111.925 49.837 111.814 50.0259 111.672C50.2083 111.536 50.7262 111.264 51.5796 110.856C52.1854 110.551 52.7326 109.534 53.2212 107.805C53.2864 107.474 53.2765 107.296 53.1918 107.27Z" fill="black"/>
<path d="M42.1175 107.569C42.0849 108.741 42.3096 109.489 42.7917 109.813C43.0523 109.988 43.3129 110.046 43.5734 109.988C43.8405 109.93 44.0457 109.794 44.1891 109.58C44.3324 109.366 44.4529 109.117 44.5506 108.832C44.6483 108.54 44.7395 108.395 44.8242 108.395C44.935 108.395 44.9806 108.498 44.961 108.706C44.948 109.055 44.8372 109.625 44.6288 110.416C44.4203 111.199 44.1337 111.844 43.7689 112.349C43.4106 112.854 42.9709 113.12 42.4497 113.146C41.922 113.127 41.5116 112.832 41.2185 112.262C40.9579 111.698 40.8374 110.97 40.8569 110.076C40.8765 109.421 40.9644 108.375 41.1208 106.937C41.2836 105.499 41.4986 103.961 41.7657 102.322C41.922 101.843 42.238 101.001 42.7135 99.7958C42.7657 99.6792 42.8178 99.6306 42.8699 99.65C42.922 99.6695 42.9481 99.718 42.9481 99.7958C42.922 100.392 42.8015 101.525 42.5865 103.196C42.3715 104.868 42.2152 106.325 42.1175 107.569ZM44.7167 98.076C44.7167 97.8622 44.8894 97.4153 45.2346 96.7351C45.5799 96.055 45.8046 95.689 45.9089 95.6372C46.1173 95.5465 46.4137 95.7085 46.7981 96.123C47.1889 96.5311 47.3974 96.8517 47.4235 97.0849C47.4235 97.3894 47.2606 97.8331 46.9349 98.4161C46.6092 98.9926 46.3746 99.2808 46.2313 99.2808C46.1727 99.2808 45.9805 99.1707 45.6548 98.9505C45.3291 98.7237 45.0848 98.5456 44.9219 98.4161C44.7851 98.2995 44.7167 98.1861 44.7167 98.076Z" fill="black"/>
<path d="M53.7202 103.302C53.6681 103.322 53.6258 103.331 53.5932 103.331C53.5606 103.325 53.5248 103.318 53.4857 103.312C53.4466 103.299 53.4271 103.27 53.4271 103.224C53.4271 103.179 53.4564 103.134 53.515 103.088C53.7691 102.959 54.0231 102.787 54.2772 102.573C54.5313 102.36 54.7625 102.136 54.971 101.903C55.1794 101.663 55.3553 101.427 55.4986 101.194C55.6485 100.961 55.7429 100.76 55.782 100.591C55.7169 100.591 55.6322 100.582 55.528 100.562C55.4237 100.543 55.3228 100.501 55.225 100.436C55.1208 100.365 55.0296 100.274 54.9514 100.164C54.8733 100.054 54.8374 99.9209 54.8439 99.7654C54.857 99.597 54.9124 99.4156 55.0101 99.2213C55.1078 99.027 55.2381 98.8521 55.4009 98.6966C55.5703 98.5412 55.7429 98.4148 55.9188 98.3177C56.0947 98.2205 56.2608 98.1881 56.4172 98.2205C56.5214 98.24 56.6159 98.3015 56.7006 98.4051C56.7918 98.5023 56.8309 98.6739 56.8178 98.9201C56.8048 99.1598 56.7299 99.4934 56.5931 99.9209C56.4563 100.342 56.2608 100.763 56.0068 101.184C55.7527 101.599 55.4335 101.997 55.0492 102.379C54.6583 102.755 54.2153 103.062 53.7202 103.302ZM55.3716 99.367C55.3716 99.4383 55.3879 99.4998 55.4205 99.5517C55.4596 99.597 55.5084 99.6359 55.5671 99.6682C55.6257 99.6942 55.6843 99.7104 55.7429 99.7168C55.8081 99.7168 55.8569 99.7136 55.8895 99.7071C55.9547 99.5776 55.9807 99.4448 55.9677 99.3087C55.9547 99.1727 55.8732 99.1047 55.7234 99.1047C55.5801 99.0982 55.4628 99.1857 55.3716 99.367Z" fill="black"/>
<path d="M40 128.778V124.429H41.592C42.0799 124.429 42.455 124.518 42.7173 124.696C42.9796 124.874 43.1107 125.125 43.1107 125.448C43.1107 125.683 43.0304 125.888 42.8698 126.064C42.7112 126.24 42.5079 126.362 42.2599 126.431V126.443C42.5709 126.481 42.819 126.595 43.004 126.785C43.191 126.975 43.2846 127.207 43.2846 127.48C43.2846 127.878 43.1412 128.194 42.8546 128.429C42.5679 128.661 42.1765 128.778 41.6804 128.778H40ZM40.9851 125.151V126.182H41.4181C41.6214 126.182 41.781 126.133 41.8969 126.036C42.0149 125.937 42.0738 125.802 42.0738 125.63C42.0738 125.311 41.8339 125.151 41.3541 125.151H40.9851ZM40.9851 126.91V128.056H41.5188C41.7465 128.056 41.9244 128.003 42.0525 127.898C42.1826 127.793 42.2477 127.65 42.2477 127.468C42.2477 127.294 42.1836 127.157 42.0555 127.058C41.9295 126.959 41.7526 126.91 41.5249 126.91H40.9851Z" fill="black"/>
<path d="M45.8494 128.854C45.2232 128.854 44.7129 128.651 44.3184 128.247C43.924 127.841 43.7268 127.312 43.7268 126.661C43.7268 125.974 43.927 125.418 44.3276 124.993C44.7281 124.569 45.2588 124.356 45.9195 124.356C46.5437 124.356 47.0479 124.56 47.4322 124.966C47.8185 125.372 48.0117 125.908 48.0117 126.573C48.0117 127.256 47.8114 127.807 47.4109 128.226C47.0124 128.644 46.4919 128.854 45.8494 128.854ZM45.8921 125.199C45.5465 125.199 45.272 125.329 45.0687 125.588C44.8653 125.844 44.7637 126.185 44.7637 126.61C44.7637 127.04 44.8653 127.381 45.0687 127.631C45.272 127.882 45.5383 128.007 45.8677 128.007C46.2072 128.007 46.4766 127.886 46.6759 127.644C46.8751 127.399 46.9747 127.06 46.9747 126.628C46.9747 126.177 46.8782 125.826 46.685 125.575C46.4919 125.325 46.2276 125.199 45.8921 125.199Z" fill="black"/>
<path d="M52.4033 128.778H51.2718L50.5917 127.659C50.5409 127.574 50.4921 127.498 50.4453 127.431C50.3986 127.365 50.3508 127.308 50.302 127.261C50.2552 127.213 50.2054 127.177 50.1526 127.152C50.1017 127.126 50.0458 127.113 49.9848 127.113H49.7195V128.778H48.7344V124.429H50.2959C51.3572 124.429 51.8879 124.823 51.8879 125.612C51.8879 125.763 51.8645 125.904 51.8177 126.033C51.771 126.161 51.7049 126.276 51.6195 126.379C51.5341 126.482 51.4304 126.571 51.3084 126.646C51.1885 126.721 51.0543 126.779 50.9059 126.822V126.834C50.9709 126.854 51.0339 126.887 51.0949 126.934C51.1559 126.978 51.2149 127.031 51.2718 127.092C51.3287 127.152 51.3826 127.218 51.4335 127.289C51.4863 127.357 51.5341 127.425 51.5768 127.492L52.4033 128.778ZM49.7195 125.163V126.373H50.1465C50.3579 126.373 50.5277 126.312 50.6558 126.191C50.7859 126.068 50.8509 125.915 50.8509 125.733C50.8509 125.353 50.6222 125.163 50.1648 125.163H49.7195Z" fill="black"/>
<path d="M56.7431 128.778H55.7489L53.9465 126.045C53.8407 125.886 53.7675 125.765 53.7269 125.685H53.7147C53.7309 125.838 53.7391 126.073 53.7391 126.388V128.778H52.8089V124.429H53.8702L55.6055 127.076C55.6848 127.196 55.758 127.314 55.8251 127.431H55.8373C55.821 127.33 55.8129 127.131 55.8129 126.834V124.429H56.7431V128.778Z" fill="black"/>
<path d="M61.5952 128.778H60.5217L60.2106 127.81H58.6552L58.3472 128.778H57.2798L58.8718 124.429H60.0398L61.5952 128.778ZM59.9849 127.058L59.5153 125.597C59.4807 125.487 59.4563 125.357 59.4421 125.205H59.4177C59.4075 125.333 59.3821 125.459 59.3414 125.585L58.8657 127.058H59.9849Z" fill="black"/>
<path d="M67.7953 128.778H66.8011L64.9987 126.045C64.893 125.886 64.8198 125.765 64.7791 125.685H64.7669C64.7832 125.838 64.7913 126.073 64.7913 126.388V128.778H63.8611V124.429H64.9225L66.6577 127.076C66.737 127.196 66.8102 127.314 66.8773 127.431H66.8895C66.8733 127.33 66.8651 127.131 66.8651 126.834V124.429H67.7953V128.778Z" fill="black"/>
<path d="M71.4245 128.778H68.8017V124.429H71.3239V125.227H69.7868V126.194H71.2171V126.989H69.7868V127.983H71.4245V128.778Z" fill="black"/>
<path d="M77.9753 124.429L76.8195 128.778H75.7277L75.0018 125.988C74.9632 125.842 74.9398 125.68 74.9317 125.5H74.9195C74.9012 125.698 74.8747 125.86 74.8402 125.988L74.0961 128.778H72.9585L71.8087 124.429H72.8853L73.5014 127.325C73.5278 127.448 73.5471 127.614 73.5593 127.822H73.5776C73.5857 127.667 73.6152 127.497 73.666 127.313L74.459 124.429H75.5142L76.2309 127.349C76.2573 127.457 76.2807 127.612 76.301 127.816H76.3132C76.3213 127.657 76.3427 127.495 76.3773 127.331L76.9811 124.429H77.9753Z" fill="black"/>
<path d="M78.3352 128.611V127.641C78.5121 127.788 78.7042 127.899 78.9116 127.974C79.119 128.047 79.3284 128.083 79.5398 128.083C79.6639 128.083 79.7716 128.072 79.8631 128.05C79.9566 128.028 80.0339 127.997 80.0949 127.959C80.1579 127.919 80.2047 127.872 80.2352 127.819C80.2657 127.765 80.2809 127.706 80.2809 127.644C80.2809 127.559 80.2565 127.483 80.2077 127.416C80.1589 127.349 80.0919 127.288 80.0065 127.231C79.9231 127.175 79.8235 127.12 79.7076 127.067C79.5917 127.015 79.4667 126.961 79.3325 126.907C78.9909 126.765 78.7357 126.592 78.567 126.388C78.4003 126.184 78.3169 125.937 78.3169 125.648C78.3169 125.422 78.3626 125.228 78.4541 125.066C78.5456 124.902 78.6697 124.768 78.8262 124.663C78.9848 124.558 79.1678 124.481 79.3752 124.432C79.5825 124.382 79.8021 124.356 80.0339 124.356C80.2616 124.356 80.4629 124.371 80.6377 124.399C80.8146 124.425 80.9773 124.467 81.1257 124.523V125.43C81.0525 125.379 80.9722 125.335 80.8848 125.296C80.7994 125.258 80.7109 125.227 80.6194 125.202C80.528 125.176 80.4365 125.157 80.345 125.145C80.2555 125.133 80.1701 125.127 80.0888 125.127C79.977 125.127 79.8753 125.138 79.7838 125.16C79.6923 125.18 79.6151 125.21 79.552 125.248C79.489 125.286 79.4402 125.333 79.4057 125.387C79.3711 125.44 79.3538 125.5 79.3538 125.566C79.3538 125.639 79.3731 125.705 79.4118 125.763C79.4504 125.82 79.5053 125.875 79.5764 125.927C79.6476 125.978 79.734 126.028 79.8357 126.079C79.9373 126.127 80.0522 126.178 80.1803 126.23C80.3551 126.303 80.5117 126.381 80.65 126.464C80.7902 126.545 80.9102 126.637 81.0098 126.74C81.1094 126.843 81.1857 126.961 81.2385 127.095C81.2914 127.226 81.3178 127.38 81.3178 127.556C81.3178 127.798 81.2711 128.002 81.1776 128.168C81.0861 128.332 80.961 128.465 80.8024 128.568C80.6438 128.67 80.4588 128.742 80.2474 128.787C80.038 128.831 79.8163 128.854 79.5825 128.854C79.3426 128.854 79.1139 128.833 78.8964 128.793C78.6808 128.752 78.4938 128.692 78.3352 128.611Z" fill="black"/>
<path d="M87.6033 128.778H86.5298L86.2188 127.81H84.6634L84.3554 128.778H83.288L84.8799 124.429H86.048L87.6033 128.778ZM85.9931 127.058L85.5234 125.597C85.4889 125.487 85.4645 125.357 85.4502 125.205H85.4258C85.4157 125.333 85.3902 125.459 85.3496 125.585L84.8738 127.058H85.9931Z" fill="black"/>
<path d="M91.6778 128.487C91.2508 128.731 90.7202 128.854 90.0858 128.854C89.3824 128.854 88.8273 128.66 88.4207 128.274C88.0161 127.886 87.8138 127.352 87.8138 126.673C87.8138 125.99 88.0354 125.433 88.4786 125.002C88.9219 124.572 89.5115 124.356 90.2475 124.356C90.711 124.356 91.1197 124.42 91.4735 124.547V125.466C91.136 125.272 90.7232 125.175 90.2353 125.175C89.8266 125.175 89.4932 125.308 89.235 125.572C88.9788 125.835 88.8507 126.187 88.8507 126.628C88.8507 127.074 88.9656 127.42 89.1953 127.665C89.4271 127.909 89.7392 128.032 90.1316 128.032C90.3674 128.032 90.5545 127.998 90.6927 127.932V127.083H89.8175V126.3H91.6778V128.487Z" fill="black"/>
<path d="M95.1515 128.778H92.5287V124.429H95.0508V125.227H93.5137V126.194H94.9441V126.989H93.5137V127.983H95.1515V128.778Z" fill="black"/>
<path d="M99.7932 128.778H98.799L96.9966 126.045C96.8908 125.886 96.8176 125.765 96.777 125.685H96.7648C96.781 125.838 96.7892 126.073 96.7892 126.388V128.778H95.859V124.429H96.9203L98.6556 127.076C98.7349 127.196 98.8081 127.314 98.8752 127.431H98.8874C98.8711 127.33 98.863 127.131 98.863 126.834V124.429H99.7932V128.778Z" fill="black"/>
<path d="M103.935 128.623C103.615 128.777 103.199 128.854 102.684 128.854C102.013 128.854 101.486 128.657 101.101 128.265C100.717 127.873 100.525 127.35 100.525 126.697C100.525 126.002 100.741 125.438 101.172 125.005C101.605 124.573 102.166 124.356 102.855 124.356C103.282 124.356 103.642 124.41 103.935 124.517V125.46C103.642 125.286 103.308 125.199 102.934 125.199C102.524 125.199 102.192 125.328 101.94 125.585C101.688 125.841 101.562 126.189 101.562 126.628C101.562 127.048 101.681 127.384 101.919 127.634C102.157 127.883 102.477 128.007 102.879 128.007C103.264 128.007 103.615 127.914 103.935 127.728V128.623Z" fill="black"/>
<path d="M108 124.429L106.576 127.231V128.778H105.591V127.249L104.203 124.429H105.328L106.033 126.052C106.045 126.082 106.079 126.2 106.134 126.406H106.146C106.172 126.261 106.204 126.147 106.24 126.064L106.957 124.429H108Z" fill="black"/>
<defs>
<filter id="filter0_f_1469_13405" x="0.206024" y="0.424011" width="150.411" height="150.411" filterUnits="userSpaceOnUse" color-interpolation-filters="sRGB">
<feFlood flood-opacity="0" result="BackgroundImageFix"/>
<feBlend mode="normal" in="SourceGraphic" in2="BackgroundImageFix" result="shape"/>
<feGaussianBlur stdDeviation="35.0278" result="effect1_foregroundBlur_1469_13405"/>
</filter>
</defs>
</svg>
