<?xml version="1.0" standalone="no"?>
<!DOCTYPE svg PUBLIC "-//W3C//DTD SVG 20010904//EN"
 "http://www.w3.org/TR/2001/REC-SVG-20010904/DTD/svg10.dtd">
<svg version="1.0" xmlns="http://www.w3.org/2000/svg"
 width="300.000000pt" height="346.000000pt" viewBox="0 0 300.000000 346.000000"
 preserveAspectRatio="xMidYMid meet">
<metadata>
Created by potrace 1.10, written by Peter Selinger 2001-2011
</metadata>
<g transform="translate(0.000000,346.000000) scale(0.100000,-0.100000)"
fill="#000000" stroke="none">
<path d="M910 3299 c-80 -30 -115 -50 -148 -82 -121 -117 -189 -193 -250 -280
-37 -52 -92 -130 -123 -174 -100 -140 -101 -141 -110 -363 -13 -320 -19 -390
-35 -390 -29 0 -12 -37 37 -85 28 -28 82 -93 120 -146 87 -123 153 -183 191
-175 38 7 177 -11 195 -26 11 -9 17 -8 30 4 21 22 11 46 -47 112 -27 31 -70
97 -96 147 -34 66 -58 99 -85 118 -21 14 -48 44 -60 66 -13 22 -38 59 -56 83
-18 24 -33 52 -33 62 0 10 -4 22 -10 25 -14 9 -12 99 2 113 7 7 8 12 2 12 -15
0 -30 -32 -33 -74 -3 -42 39 -139 84 -190 14 -16 25 -34 25 -40 0 -6 22 -34
50 -63 46 -49 112 -151 117 -182 1 -7 14 -27 30 -44 15 -16 22 -27 16 -23 -24
14 -13 -5 20 -34 38 -33 46 -64 13 -54 -11 4 -56 9 -101 13 -79 6 -83 8 -128
50 -25 24 -63 69 -84 99 -49 73 -60 86 -109 141 -46 52 -55 69 -43 91 4 9 10
81 14 160 4 80 8 163 10 185 2 22 4 81 5 132 1 77 6 100 29 150 15 32 39 72
53 88 13 17 62 84 108 150 90 127 120 163 215 257 66 66 119 104 159 114 14 3
26 9 26 13 0 7 80 33 116 37 13 1 26 -2 30 -7 3 -5 9 -7 14 -4 5 3 40 1 78 -5
38 -5 94 -12 123 -16 30 -3 92 -15 139 -25 141 -33 163 -37 217 -38 29 -1 60
-3 70 -5 10 -2 38 -7 62 -11 78 -13 105 -31 164 -107 56 -74 90 -129 82 -136
-2 -2 -12 1 -23 7 -11 6 -40 13 -64 15 -23 3 -70 13 -103 23 -33 11 -81 20
-107 22 -39 1 -49 -2 -58 -19 -9 -17 -7 -28 10 -57 11 -19 20 -36 18 -38 -2
-1 -43 -16 -92 -33 -65 -23 -94 -28 -107 -21 -14 7 -17 6 -13 -4 5 -14 -34
-37 -65 -37 -10 0 -37 20 -59 45 -50 53 -70 65 -113 65 -83 0 -170 -53 -299
-181 -36 -36 -77 -74 -91 -85 -14 -10 -38 -40 -53 -66 -15 -27 -32 -48 -38
-48 -5 0 -7 -4 -4 -8 3 -5 -13 -17 -36 -27 -22 -9 -61 -38 -87 -64 -25 -25
-75 -60 -111 -78 -47 -23 -58 -33 -41 -33 33 0 106 44 167 101 28 26 67 54 87
63 22 9 46 31 63 58 30 48 213 232 259 262 17 10 41 29 55 41 17 16 46 26 92
32 l67 9 44 -45 c55 -57 75 -91 53 -91 -10 0 -13 -6 -10 -17 5 -15 3 -15 -10
1 -12 14 -16 16 -16 5 0 -8 4 -20 9 -28 7 -11 12 -9 25 11 23 36 188 104 342
143 28 7 60 17 70 23 18 10 17 11 -9 21 -16 6 -33 11 -40 11 -18 0 -56 41 -50
56 4 10 16 12 47 8 22 -4 46 -10 51 -14 6 -4 42 -13 80 -20 90 -16 141 -33
198 -70 43 -27 46 -32 41 -60 -6 -26 -4 -30 12 -24 18 5 18 5 1 -6 -9 -6 -23
-8 -30 -5 -6 4 -4 0 6 -8 12 -10 14 -17 8 -22 -6 -3 -11 -12 -10 -18 0 -9 2
-9 6 1 7 19 23 14 23 -7 0 -11 4 -22 9 -26 5 -3 12 -19 16 -36 4 -17 14 -33
22 -36 12 -5 12 -7 1 -14 -8 -5 -9 -9 -2 -9 11 0 29 -46 26 -62 -1 -5 3 -8 9
-8 6 0 9 -9 6 -19 -3 -11 1 -22 8 -25 8 -3 11 -13 8 -24 -4 -18 19 -52 37 -52
19 0 18 17 -4 60 -28 55 -98 240 -127 335 -43 141 -200 367 -268 384 -77 21
-129 30 -211 36 -47 4 -132 17 -190 31 -58 13 -172 33 -253 44 -82 12 -154 23
-160 25 -7 3 -59 -14 -117 -36z"/>
<path d="M1086 3179 c25 -25 95 -44 88 -24 -3 7 -13 15 -22 18 -9 3 -33 10
-52 16 l-34 11 20 -21z"/>
<path d="M1050 3144 c0 -8 83 -44 100 -43 12 0 11 2 -2 10 -25 14 -98 39 -98
33z"/>
<path d="M1843 2850 c-2 -20 11 -33 35 -36 6 -1 10 2 6 7 -3 5 -12 9 -20 9 -8
0 -14 4 -14 9 0 4 10 7 23 6 12 -1 14 0 5 2 -10 2 -18 9 -18 14 0 18 -16 9
-17 -11z"/>
<path d="M1781 2818 c22 -42 87 -134 105 -148 9 -8 1 7 -19 33 -21 27 -49 69
-63 93 -27 45 -44 62 -23 22z"/>
<path d="M1910 2770 c-12 -7 -11 -12 5 -32 44 -50 45 -51 45 -29 0 12 -6 21
-16 21 -8 0 -12 5 -9 10 3 6 1 10 -5 10 -6 0 -8 5 -4 12 5 8 11 6 19 -5 7 -10
16 -17 20 -17 5 0 0 9 -10 20 -20 23 -24 23 -45 10z"/>
<path d="M1278 2758 c-3 -7 -1 -24 3 -38 l7 -25 1 28 c1 15 6 27 12 27 5 0 7
5 4 10 -9 14 -22 13 -27 -2z"/>
<path d="M1294 2689 c-3 -6 -15 -9 -25 -6 -11 3 -17 1 -13 -4 3 -5 0 -9 -6 -9
-7 0 -10 -7 -6 -15 3 -8 2 -15 -2 -15 -4 0 -18 -3 -31 -7 -19 -5 -22 -3 -16 8
7 11 5 11 -9 -1 -18 -14 -18 -15 5 -20 l24 -6 -25 -8 c-16 -5 -20 -9 -12 -13
8 -3 19 0 25 6 6 6 18 11 27 11 15 0 90 69 90 83 0 11 -18 8 -26 -4z"/>
<path d="M1973 2663 c7 -33 93 -193 149 -275 21 -31 39 -70 39 -85 1 -15 8
-43 16 -61 8 -18 17 -44 19 -58 3 -14 18 -61 34 -105 16 -44 29 -80 28 -82 0
-1 6 -15 12 -32 7 -16 16 -39 21 -50 4 -11 12 -36 17 -55 6 -19 17 -57 26 -85
12 -37 14 -67 9 -115 -4 -36 -7 -192 -7 -347 0 -155 -2 -280 -5 -278 -2 3 -9
-5 -15 -17 -6 -12 -46 -42 -88 -67 -42 -25 -72 -48 -67 -50 14 -4 69 20 69 31
0 5 4 7 8 4 4 -2 25 11 47 30 22 19 43 34 48 34 4 0 6 4 3 9 -3 5 0 11 8 14
17 7 25 -72 14 -125 -4 -18 -6 -122 -5 -231 2 -126 -1 -204 -8 -212 -5 -8 -35
-26 -65 -41 -56 -28 -148 -37 -215 -20 -16 4 -85 9 -153 11 -74 3 -136 11
-157 19 -19 8 -37 11 -39 7 -12 -19 101 -40 234 -42 52 -1 100 -6 106 -11 7
-5 51 -9 98 -9 70 0 91 3 114 20 16 11 39 22 53 26 14 3 33 17 44 31 16 21 18
49 21 252 5 425 4 471 -18 561 -18 79 -19 97 -9 280 l11 196 -41 115 c-23 63
-68 194 -101 290 l-59 175 20 40 c12 22 21 43 21 46 0 10 -45 5 -52 -6 -10
-13 -59 46 -53 63 3 7 1 10 -5 7 -5 -3 -19 17 -32 45 -13 27 -26 50 -30 50 -5
0 -8 9 -8 20 0 11 -3 20 -7 20 -11 0 -33 50 -33 72 0 10 -5 18 -11 18 -7 0 -9
-11 -6 -27z"/>
<path d="M1137 2590 c-3 -12 -10 -19 -16 -15 -6 3 -11 1 -11 -4 0 -6 -7 -11
-15 -11 -8 0 -15 -5 -15 -11 0 -5 -4 -8 -9 -5 -4 3 -16 -3 -26 -14 -10 -11
-25 -20 -34 -20 -9 0 -43 -18 -76 -40 -113 -74 -98 -61 -225 -196 -21 -23 -41
-40 -43 -38 -6 6 -91 -88 -106 -118 -12 -24 -12 -33 4 -75 27 -72 35 -72 17 0
l-15 64 157 154 c134 132 171 162 259 212 56 32 109 64 117 72 8 7 25 16 38
19 24 8 26 14 13 34 -6 10 -10 8 -14 -8z"/>
<path d="M1981 2480 c9 -14 39 -67 68 -117 30 -51 55 -93 56 -93 9 0 -21 86
-35 100 -3 3 -11 17 -18 31 -8 14 -30 43 -50 65 -21 23 -29 29 -21 14z"/>
<path d="M1855 2462 c-4 -4 -46 -11 -83 -14 -18 -1 -36 -6 -38 -10 -3 -5 12
-6 33 -3 21 4 76 10 123 14 l85 7 -58 5 c-32 2 -60 3 -62 1z"/>
<path d="M1653 2399 c-29 -17 -53 -33 -53 -35 0 -5 47 19 94 47 52 31 15 21
-41 -12z"/>
<path d="M1484 2294 c-32 -19 -70 -47 -84 -61 -22 -24 -21 -23 15 4 22 16 61
42 88 57 41 24 55 36 44 36 -2 0 -30 -16 -63 -36z"/>
<path d="M1400 2176 c0 -2 16 -14 35 -26 19 -12 49 -45 66 -73 21 -36 48 -62
86 -86 30 -18 57 -31 59 -28 3 3 -20 19 -51 37 -42 24 -63 45 -85 84 -19 33
-44 59 -70 74 -22 12 -40 21 -40 18z"/>
<path d="M2010 2094 c-30 -14 -77 -34 -105 -45 -27 -10 -61 -29 -75 -42 -32
-30 -81 -47 -133 -47 -32 0 -38 -3 -29 -12 15 -15 137 15 167 41 20 17 140 77
203 101 30 12 53 31 35 29 -4 0 -33 -12 -63 -25z"/>
<path d="M2201 2003 c13 -35 25 -61 27 -58 5 5 -28 96 -40 110 -5 5 1 -18 13
-52z"/>
<path d="M560 1583 c-38 -14 -52 -71 -28 -116 39 -74 226 -273 309 -329 48
-32 106 -37 143 -13 32 21 52 11 131 -63 94 -88 313 -217 391 -230 49 -9 195
-57 307 -101 15 -6 49 -11 75 -12 66 -3 196 71 230 130 30 54 28 70 -6 38 -28
-27 -62 -36 -62 -16 0 24 24 52 73 84 29 18 68 50 87 71 19 21 26 31 15 22
-12 -10 -50 -31 -85 -47 -36 -16 -76 -41 -90 -56 -42 -47 -111 -85 -150 -85
-62 0 -220 38 -314 75 -104 41 -152 68 -243 136 -36 28 -89 59 -117 70 -28 11
-70 31 -93 45 -54 31 -65 30 -91 -6 -15 -19 -31 -30 -47 -30 -14 0 -25 -4 -25
-8 0 -12 -42 -13 -80 0 -42 14 -138 99 -250 223 -96 107 -109 138 -81 189 12
20 20 36 18 35 -1 0 -9 -3 -17 -6z m561 -436 c-17 -17 -13 -31 4 -17 13 11 22
9 54 -8 21 -12 48 -23 59 -25 12 -2 32 -12 44 -23 78 -67 153 -114 183 -114 9
0 19 -9 22 -20 4 -14 14 -20 34 -20 15 0 31 -4 34 -10 3 -5 16 -10 28 -10 12
0 37 -9 55 -20 18 -11 54 -21 82 -22 27 -1 46 -6 43 -12 -3 -5 -1 -6 5 -2 6 4
21 2 33 -5 31 -16 147 -12 175 6 29 19 53 19 79 -1 19 -14 19 -15 -3 -20 -12
-4 -22 -10 -22 -14 0 -3 -24 -19 -53 -34 -53 -26 -110 -32 -147 -15 -24 11
-88 30 -118 35 -15 3 -29 9 -30 15 -2 5 -8 7 -13 4 -4 -3 -26 3 -48 15 -22 11
-52 20 -66 20 -15 0 -24 4 -20 10 7 12 -37 9 -46 -3 -3 -5 -12 -2 -20 5 -8 8
-34 24 -59 37 -120 60 -177 100 -271 192 -28 27 -55 47 -60 44 -5 -4 -9 1 -9
9 0 9 7 16 16 16 8 0 12 5 8 11 -4 7 1 7 16 -1 16 -9 19 -15 11 -23z"/>
<path d="M849 1501 c22 -26 47 -54 56 -61 9 -7 36 -50 61 -94 49 -87 90 -147
77 -111 -24 68 -200 312 -226 314 -5 1 9 -21 32 -48z"/>
<path d="M2994 1350 c0 -52 1 -74 3 -47 2 26 2 68 0 95 -2 26 -3 4 -3 -48z"/>
<path d="M2283 1335 c0 -33 2 -45 4 -27 2 18 2 45 0 60 -2 15 -4 0 -4 -33z"/>
<path d="M1168 855 l4 -143 -24 5 c-49 9 -145 -108 -246 -298 -34 -65 -39 -70
-100 -96 -41 -17 -76 -41 -100 -68 -20 -23 -55 -52 -77 -65 -83 -48 -257 -185
-240 -188 10 -2 28 8 40 22 12 14 25 26 29 26 4 0 17 9 29 21 24 23 103 79
111 79 10 0 92 59 123 88 17 17 34 27 38 24 4 -4 5 0 3 8 -2 9 4 14 15 13 10
0 16 2 12 5 -3 4 16 16 43 28 51 22 54 27 107 132 15 28 31 52 36 52 5 0 9 5
9 11 0 16 67 116 99 150 23 23 62 49 74 49 3 0 7 -9 10 -20 3 -11 12 -20 21
-20 17 0 22 16 8 22 -5 2 -5 41 0 88 10 98 5 171 -14 198 -11 16 -12 -2 -10
-123z"/>
<path d="M1655 456 c24 -19 58 -21 53 -3 -3 6 -20 13 -39 15 -32 3 -33 3 -14
-12z"/>
<path d="M2412 443 c15 -16 34 -55 44 -90 15 -56 26 -71 106 -152 49 -50 94
-91 99 -91 5 0 9 -7 9 -15 0 -8 6 -15 13 -15 8 0 33 -18 57 -40 25 -23 52 -40
62 -38 12 2 -1 16 -45 48 -34 25 -108 91 -164 147 -91 91 -104 109 -119 160
-19 64 -50 113 -73 113 -10 0 -7 -8 11 -27z"/>
</g>
</svg>
