<svg width="22" height="21" viewBox="0 0 22 21" fill="none" xmlns="http://www.w3.org/2000/svg">
<rect x="3.66669" y="4" width="15" height="14" rx="2" fill="white"/>
<path fill-rule="evenodd" clip-rule="evenodd" d="M15.0174 2.06444C16.2561 1.98702 17.4776 2.41713 18.3981 3.26015C19.2411 4.18059 19.6712 5.4021 19.6024 6.64943V14.6839C19.6798 15.9312 19.2411 17.1527 18.4067 18.0732C17.4862 18.9162 16.2561 19.3463 15.0174 19.2689H6.98282C5.73549 19.3463 4.51396 18.9162 3.59352 18.0732C2.75049 17.1527 2.32038 15.9312 2.3978 14.6839V6.64943C2.32038 5.4021 2.75049 4.18059 3.59352 3.26015C4.51396 2.41713 5.73549 1.98702 6.98282 2.06444H15.0174ZM16.7298 8.10554C16.8627 7.89224 17.1457 7.5933 17.6667 7.61754L17.6636 7.61915C17.6636 7.61915 17.6234 8.41094 16.6447 8.31237C16.5783 8.45942 16.4994 8.60162 16.4128 8.73736C16.7994 8.41741 17.3513 8.54345 17.3513 8.54345C16.9369 9.15588 16.4608 8.84885 16.3788 8.78907C16.3154 8.88602 16.2505 8.97974 16.184 9.07023C15.8423 9.46774 15.5579 9.93474 15.4991 10.4761L15.3337 10.4502C15.3955 10.0285 15.5764 9.63095 15.8284 9.29969C15.8346 9.29323 15.8454 9.27868 15.8454 9.27868L15.8021 9.28353C15.6043 9.30615 15.4558 9.39341 15.3229 9.51137C14.9858 9.81193 14.774 10.1933 14.6843 10.6441C14.5638 11.2469 14.4153 11.8399 14.1587 12.3974C13.8448 13.0809 13.4212 13.6642 12.7827 14.0521C12.3266 14.33 11.8288 14.4544 11.3031 14.4754C11.1835 14.4802 11.0638 14.4837 10.9439 14.4873C10.5372 14.4992 10.1298 14.5112 9.72615 14.5724C9.41385 14.6192 9.117 14.7017 8.84335 14.8875C8.52796 15.102 8.33666 15.2626 8.1478 15.4212C7.94967 15.5876 7.75422 15.7517 7.42099 15.9734C7.30503 16.0509 7.19526 16.0865 7.06075 16.0655C6.93088 16.0445 6.80102 16.0219 6.68197 15.9588C6.45779 15.8409 6.33875 15.6502 6.34184 15.3868C6.34338 15.3092 6.32329 15.2931 6.25217 15.2931C6.13003 15.2947 6.00944 15.2737 5.89194 15.2349C5.59664 15.1363 5.46677 14.9182 5.51625 14.6015C5.52552 14.5368 5.51006 14.5223 5.4575 14.5061C5.29671 14.4577 5.1421 14.393 5.00605 14.2864C4.82362 14.1426 4.62263 13.6238 4.67519 13.3944C4.69065 13.3281 4.71539 13.3071 4.7896 13.3233C5.10499 13.3895 7.22 13.6788 7.94355 13.2215C8.91138 12.6091 8.70267 11.4391 8.34862 10.7669C8.20664 10.4968 8.06903 10.2451 7.93406 9.9982C7.68396 9.54072 7.4429 9.09981 7.1999 8.58869C7.10542 8.38984 7.0131 8.18986 6.92114 7.99064C6.90325 7.95188 6.88537 7.91315 6.8675 7.87446C6.77628 7.67894 6.83194 7.48342 7.002 7.39131C7.17825 7.29759 7.37306 7.36061 7.47974 7.54967C7.90336 8.30591 8.86809 9.86526 8.86809 9.86526C8.86809 9.86526 7.93273 7.4721 7.5524 6.39914C7.47973 6.19554 7.53694 6.00325 7.70236 5.8966C7.86006 5.79318 8.06105 5.81257 8.19401 5.94184C8.24503 5.99355 8.27286 6.05819 8.30069 6.12282C8.75214 7.14246 9.76481 9.14295 9.76481 9.14295C9.76481 9.14295 8.9222 6.5882 8.57434 5.53625C8.49395 5.29063 8.60063 5.04825 8.82171 4.96422C9.05207 4.87696 9.28243 4.98684 9.38138 5.23408C9.85911 6.41692 10.8702 8.86986 10.8702 8.86986C10.8702 8.86986 10.5054 7.22325 10.3817 6.66577C10.3687 6.60739 10.3557 6.54898 10.3427 6.49054C10.2737 6.18012 10.2046 5.86893 10.1343 5.55887C10.0972 5.39728 10.0725 5.23892 10.1915 5.09511C10.2982 4.96745 10.4296 4.90766 10.5935 4.93514C10.7574 4.96099 10.8671 5.05956 10.9151 5.21792C11.0232 5.56937 11.1286 5.92178 11.234 6.27441C11.2658 6.38061 11.2976 6.48683 11.3294 6.59305C11.5019 7.16482 12.0527 8.71109 12.3729 9.60994C12.3885 9.65354 12.4035 9.69562 12.4178 9.73599C12.4457 9.81678 12.5462 9.83617 12.6003 9.77153C12.7317 9.61641 12.877 9.44674 12.9682 9.34978C12.9927 9.32373 13.0171 9.29761 13.0415 9.27149C13.2578 9.03999 13.4745 8.80816 13.7273 8.6194C13.9732 8.4368 14.236 8.30106 14.5406 8.28006C15.1234 8.23966 15.5625 8.52567 15.8037 9.09124C15.8153 9.11773 15.8262 9.14497 15.8388 9.17657C15.8447 9.19124 15.8509 9.20684 15.8578 9.22374L15.8609 9.26414C16.0016 9.09124 16.1423 8.91834 16.2706 8.73736C15.5362 8.63232 15.7496 7.83245 15.7496 7.83245C16.1423 8.0409 16.2737 8.50628 16.3108 8.67918C16.3896 8.56445 16.4639 8.44488 16.5257 8.31722C16.5296 8.30833 16.5338 8.29944 16.5381 8.29055C16.5423 8.28166 16.5466 8.27278 16.5504 8.2639C16.4268 8.19764 15.9784 7.91648 16.0418 7.27012C16.0418 7.27012 16.6695 7.34283 16.5953 8.16371C16.6679 7.99566 16.7267 7.81629 16.7391 7.63369C16.2799 6.77727 16.7391 6.11474 16.7391 6.11474C16.7391 6.11474 17.342 6.50903 16.8256 7.624C16.8164 7.79044 16.7823 7.95041 16.7298 8.10554Z" fill="#00AEEF"/>
</svg>
