<svg width="42" height="42" viewBox="0 0 42 42" fill="none" xmlns="http://www.w3.org/2000/svg">
<path d="M20.1066 8.26941C28.2601 8.26941 34.8801 14.8891 34.8801 23.0429V33.7035C34.8801 33.8851 34.7327 34.0325 34.5511 34.0325H7.83291C7.65129 34.0325 7.50391 33.8851 7.50391 33.7035V20.8721C7.50391 13.9165 13.151 8.26941 20.1066 8.26941Z" fill="white"/>
<path d="M36.7315 22.8935C36.6934 22.6563 36.6592 22.4027 36.6269 22.1554V22.1433C36.4659 20.8966 36.2649 19.3441 35.0484 18.0227L35.0302 17.9966C30.801 8.70762 24.466 7.32007 21.0652 7.32007C13.0731 7.32007 8.82566 14.1093 7.00371 18.1576C5.86738 19.9395 5.64843 21.1622 5.45321 22.2402C5.39877 22.542 5.3486 22.8274 5.27627 23.1171C5.2261 23.3221 5.26227 23.5453 5.37466 23.7304C5.47927 23.9035 5.63794 24.0221 5.8211 24.0664C6.22127 24.1628 6.61366 23.9256 6.7241 23.5414L6.92127 22.8577V23.5698C6.91932 27.2218 6.91738 31.7528 6.91544 33.7517C6.91544 33.999 7.01188 34.2323 7.18688 34.4093C7.36188 34.5843 7.59521 34.6807 7.84449 34.6807H34.266C34.5153 34.6807 34.7486 34.5843 34.9236 34.4093C35.0986 34.2343 35.195 34.001 35.195 33.7517C35.195 31.7466 35.1912 27.1935 35.1888 23.5414V23.2155L35.3739 23.485C35.426 23.5616 35.4887 23.6258 35.559 23.676C35.7239 23.7907 35.923 23.837 36.1202 23.8027C36.3535 23.7627 36.5507 23.6196 36.6631 23.4084C36.7595 23.2276 36.7537 23.0285 36.7315 22.8935ZM30.9134 14.3205L31.1588 14.0331L31.3839 14.3368C32.0797 15.2721 32.7252 16.3158 33.3047 17.4378L33.4975 17.8138L33.0791 17.8741C32.7112 17.9286 32.2527 17.9787 31.7215 18.025L31.4983 18.0433L31.4158 17.836C31.0798 17.0015 30.71 16.1809 30.3199 15.3946L30.2433 15.2398L30.3359 15.0951C30.5249 14.8054 30.7201 14.5441 30.913 14.3208L30.9134 14.3205ZM30.3402 18.1234L29.912 18.1475C29.7109 18.1576 29.5056 18.1677 29.2944 18.1778L28.8278 18.2L29.0008 17.7656C29.0992 17.5163 29.2038 17.2667 29.3127 17.0236L29.5861 16.4084L29.8638 17.0217C29.9765 17.2729 30.0808 17.5105 30.1733 17.7295L30.3402 18.1238V18.1234ZM28.6248 11.4046C29.196 11.8732 29.749 12.4021 30.2698 12.9772L30.4549 13.1822L30.2659 13.3852C30.1554 13.5057 30.0407 13.6364 29.9279 13.7795L29.6526 14.1233L29.4313 13.741C29.035 13.0573 28.617 12.4098 28.1884 11.8125L26.8409 9.93807L28.6248 11.4042V11.4046ZM26.7204 12.2714L26.9677 12.028L27.175 12.3095C27.7704 13.1219 28.3494 14.051 28.9005 15.0706L28.9771 15.2153L28.8985 15.358C28.3113 16.4341 27.901 17.5058 27.7082 18.0487L27.6397 18.244L27.4348 18.2502C27.0809 18.2603 26.7188 18.2704 26.3509 18.2805L26.1417 18.2844L26.0632 18.0915C25.6871 17.1543 25.2165 16.1871 24.6635 15.2157L24.5749 15.0609L24.6674 14.91C25.3029 13.8701 25.9947 12.9835 26.7208 12.2714H26.7204ZM16.9748 17.8481C17.1378 17.4981 17.3128 17.1442 17.4955 16.7942L17.7468 16.3116L18.0221 16.7821C18.2535 17.1741 18.4647 17.5342 18.6517 17.8438L18.9313 18.3085L18.3865 18.3003C18.0023 18.2945 17.6204 18.2863 17.24 18.2762L16.7777 18.2661L16.9748 17.8477V17.8481ZM15.6697 18.041L15.5892 18.23L15.3819 18.2237C15.1525 18.2156 14.9234 18.2078 14.6963 18.1996L14.4871 18.1895L14.4229 17.9904C14.4128 17.9601 14.407 17.9383 14.3969 17.9181C13.9905 17.0956 13.5682 16.1805 13.2205 15.0702L13.1781 14.9357L13.2567 14.8151C13.8159 13.9623 14.4513 13.1359 15.1451 12.3597L15.4449 12.028L15.6421 12.4281C16.0119 13.1822 16.4786 14.0591 17.0238 15.0383L17.1082 15.185L17.0238 15.3339C16.3421 16.5344 15.8836 17.544 15.6705 18.041H15.6697ZM18.479 15.3603L18.3904 15.2056L18.4849 15.0527C19.1787 13.9246 19.9249 12.9088 20.6992 12.0342L20.9345 11.7666L21.1597 12.0443C21.8939 12.9555 22.5795 13.9207 23.1947 14.9139L23.2873 15.0648L23.2029 15.2176C22.5173 16.4765 22.0829 17.5825 21.8857 18.1316L21.8134 18.3307H21.6003C21.204 18.3287 20.8038 18.3268 20.4037 18.3245L20.2368 18.3225L20.1505 18.1817C19.9032 17.7796 19.2475 16.7016 18.4794 15.3603H18.479ZM23.1609 17.9083C23.3199 17.5183 23.4945 17.122 23.6797 16.732L23.9429 16.1828L24.2206 16.7238C24.4197 17.1119 24.6068 17.5039 24.7775 17.8901L24.9607 18.3085L24.506 18.3124C24.1541 18.3186 23.8002 18.3225 23.4401 18.3245L22.9898 18.3264L23.1609 17.908V17.9083ZM24.102 9.22251L24.2587 9.33101C24.872 9.75918 25.4814 10.3044 26.0705 10.9519L26.2697 11.1693L26.0565 11.3742C25.397 12.0015 24.7654 12.7579 24.1782 13.6205L23.9247 13.9907L23.6773 13.6166C23.1224 12.7781 22.5231 11.9677 21.8974 11.2012L21.7142 10.9799L21.9273 10.787C22.5791 10.1998 23.2546 9.70512 23.9363 9.31701L24.1012 9.22251H24.102ZM20.2325 8.65746C20.518 8.63918 20.7976 8.62946 21.0652 8.62946C21.3327 8.62946 21.6123 8.63957 21.944 8.66368L22.7424 8.72201L22.1027 9.20462C21.8009 9.43407 21.4995 9.68335 21.2079 9.94662L20.9866 10.1438L20.7855 9.92874C20.5343 9.66118 20.2847 9.40801 20.0455 9.17662L19.5547 8.70412L20.2325 8.65785V8.65746ZM18.6276 9.38157L18.7964 9.52818C19.1806 9.86185 19.5909 10.2624 20.0171 10.7209L20.2061 10.9239L20.019 11.1312C19.3334 11.8852 18.6677 12.7439 18.0423 13.6792L17.7647 14.0953L17.5255 13.657C17.053 12.7863 16.6625 12.026 16.3689 11.3987L16.2744 11.1977L16.4374 11.0487C17.1051 10.4355 17.7787 9.91435 18.4363 9.50018L18.6272 9.38157H18.6276ZM12.7091 12.0443C13.2462 11.5395 13.8112 11.083 14.3903 10.691L16.7213 9.10818L14.7788 11.1475C14.2359 11.7188 13.7171 12.3282 13.2341 12.9593L12.8059 13.5205L12.6974 12.8228C12.6733 12.6782 12.6531 12.5292 12.6333 12.3764C12.627 12.3542 12.6232 12.3402 12.6212 12.3282L12.585 12.1613L12.7099 12.0447L12.7091 12.0443ZM12.4194 16.1953L12.6807 16.8288C12.7954 17.1065 12.9179 17.3857 13.0548 17.6816L13.266 18.1382L12.7651 18.1102C12.5178 18.0981 12.2763 18.0841 12.0371 18.0701L11.6307 18.0441L11.7715 17.6641C11.8742 17.3865 11.9947 17.103 12.1273 16.8175L12.419 16.1961L12.4194 16.1953ZM8.82371 17.3919C9.54782 15.9822 10.352 14.7253 11.215 13.6574L11.6171 13.1585L11.7458 13.7857C11.8061 14.0856 11.8765 14.3811 11.9488 14.6646L11.9811 14.7871L11.9165 14.8956C11.3212 15.8869 10.8588 16.8685 10.5792 17.7353L10.5049 17.9624L10.2657 17.9422C9.83949 17.906 9.4331 17.8679 9.06094 17.8275L8.6246 17.7812L8.82371 17.3911V17.3919ZM8.22832 19.0509L8.3411 19.0649C8.60438 19.0952 8.88594 19.1271 9.18188 19.1575L9.36077 19.1734L9.25227 19.3161C8.88205 19.8088 8.60282 20.384 8.42355 21.0257L8.22444 21.7335L8.22832 19.0509ZM24.5862 33.0015L24.5842 33.5584H17.1374L17.1354 32.9389C17.1354 31.7925 17.1335 30.6483 17.1374 29.5019C17.1436 27.4968 18.374 26.035 20.3492 25.6888C21.3086 25.5201 22.3784 25.8176 23.2149 26.4853C24.0075 27.1188 24.4878 27.9977 24.5321 28.8945C24.5986 30.2622 24.5924 31.6556 24.5865 33.0011L24.5862 33.0015ZM33.8872 32.1288V33.5588H25.8932V29.5124C25.8893 26.8598 24.1716 24.8103 21.6178 24.4125C20.2664 24.2013 18.9329 24.5272 17.863 25.3256C16.785 26.1322 16.0672 27.3467 15.8941 28.6561C15.854 28.9516 15.8338 29.2693 15.8338 29.6275C15.8299 30.7456 15.8299 31.8617 15.8299 32.9801L15.8319 33.5592H8.22288V33.4585C8.22288 30.5846 8.22288 26.7898 8.22482 23.3648V23.1214L8.39593 23.2945C8.50871 23.4092 8.65727 23.4695 8.82838 23.4695C9.21455 23.4695 9.46577 23.172 9.48988 22.6932C9.50388 22.3996 9.5241 22.0877 9.58244 21.7863C9.77532 20.783 10.2 20.0286 10.8837 19.4818C10.9237 19.4495 10.9603 19.4114 11.0003 19.3593L11.0326 19.315L11.087 19.3188C11.3083 19.3328 11.5335 19.3492 11.7629 19.3632L11.9379 19.3752L11.8395 19.5199C11.2827 20.3385 10.9789 21.3317 10.9085 22.5587C10.9004 22.8826 10.9727 23.13 11.1255 23.2906C11.236 23.4053 11.3849 23.4656 11.556 23.4695C11.9562 23.4695 12.1977 23.1778 12.2339 22.6672L12.244 22.5346C12.2623 22.2472 12.2821 21.9493 12.3424 21.6677C12.5415 20.7266 12.9557 20.0146 13.6113 19.4896L13.6393 19.4655L13.6774 19.4674C14.0375 19.4833 14.4035 19.4997 14.7795 19.5137L14.9265 19.5195L14.8682 19.6545C14.4883 20.5314 14.2709 21.4562 14.2207 22.4055L14.2125 22.4941C14.2087 22.5626 14.2024 22.631 14.2005 22.6991C14.1923 22.9285 14.2608 23.1335 14.3914 23.2742C14.5042 23.3948 14.6609 23.4632 14.8297 23.4695H14.8499C15.0129 23.4695 15.1677 23.4092 15.2843 23.2983C15.4212 23.1677 15.4994 22.9787 15.5056 22.7656C15.5297 21.6654 15.8012 20.638 16.332 19.6222L16.3623 19.5658L16.4245 19.5677C16.8488 19.5798 17.2793 19.5899 17.7157 19.6L17.8382 19.602L17.8121 19.7225C17.6212 20.5753 17.5103 21.4278 17.4843 22.2526V22.4175C17.4823 22.5443 17.4804 22.6711 17.4862 22.7975C17.4983 23.1716 17.7596 23.4531 18.1057 23.4671L18.1337 23.4691C18.2947 23.4691 18.4495 23.4068 18.57 23.2921C18.7027 23.1653 18.775 22.9903 18.7773 22.7994C18.7855 21.7576 18.9142 20.7138 19.1596 19.7003L19.1798 19.6237H19.2584C19.538 19.6276 19.8195 19.6296 20.103 19.6338H20.2038L20.2018 20.356V21.422C20.2018 21.8404 20.1999 22.2585 20.2038 22.6769C20.2077 23.1513 20.4612 23.4613 20.8532 23.4691C21.034 23.4691 21.1849 23.4088 21.2997 23.296C21.4424 23.1552 21.5229 22.9421 21.5229 22.6928C21.5268 21.7093 21.5248 20.7239 21.5229 19.7408V19.6401H21.7764C22.0078 19.6401 22.2349 19.6401 22.462 19.6381H22.5406L22.5608 19.7147C22.6433 20.0426 22.7098 20.316 22.7479 20.6018C22.8222 21.1707 22.8665 21.7541 22.9089 22.3191L22.945 22.7897C22.9754 23.1817 23.2488 23.4695 23.5964 23.4695C23.9441 23.4695 24.2218 23.1898 24.24 22.8181C24.2463 22.6956 24.2439 22.5707 24.242 22.4459V22.3572L24.2579 22.3553L24.2498 22.2608C24.2397 22.1523 24.2338 22.0434 24.2276 21.933C24.2136 21.6915 24.1996 21.4441 24.1572 21.2011C24.0728 20.7286 23.9803 20.2397 23.8795 19.749L23.8554 19.6303L23.976 19.6284C24.4263 19.6245 24.865 19.6183 25.2974 19.6101L25.3616 19.6082L25.3997 19.6926C25.607 20.1308 25.8182 20.5855 25.9508 21.0521C26.0674 21.4706 26.1176 21.917 26.1639 22.3491C26.1822 22.512 26.1981 22.6547 26.2183 22.7994C26.2685 23.1996 26.5341 23.4691 26.8779 23.4691C27.0669 23.4671 27.2337 23.3905 27.3504 23.256C27.467 23.1233 27.5293 22.9402 27.5273 22.7411C27.5273 22.6726 27.5211 22.6042 27.5153 22.5361L27.509 22.4537C27.4608 21.5044 27.2497 20.5835 26.8818 19.7105L26.8234 19.5759L26.97 19.572C27.3683 19.56 27.7544 19.5479 28.1285 19.5339L28.1667 19.532L28.197 19.558C28.6815 19.9663 29.0055 20.4369 29.1583 20.9557C29.2567 21.2855 29.3131 21.6195 29.3734 21.9734C29.4115 22.2005 29.45 22.4319 29.5021 22.6571C29.5542 22.8943 29.6246 23.1599 29.7938 23.3166C29.8704 23.387 29.9968 23.4271 30.1558 23.4271C30.2604 23.4271 30.3689 23.4088 30.4494 23.3788C30.8414 23.2299 30.8337 22.8076 30.8317 22.6046L30.8298 22.5863C30.8177 22.4836 30.8057 22.3751 30.7936 22.2666C30.7675 22.0275 30.7392 21.7821 30.6929 21.5425C30.5482 20.7962 30.3028 20.1627 29.9427 19.602L29.8502 19.4573L30.0213 19.4472C30.2628 19.4332 30.4938 19.4192 30.7189 19.4048L30.7652 19.4009L30.7994 19.4371C30.8298 19.4693 30.8617 19.5012 30.8978 19.5316C31.4668 19.994 31.851 20.6135 32.038 21.3698C32.1267 21.73 32.1668 22.1118 32.2029 22.4821C32.215 22.5906 32.2251 22.6991 32.2372 22.808C32.2815 23.198 32.551 23.4695 32.8909 23.4695H32.913C33.2424 23.4578 33.4972 23.2011 33.5341 22.8492C33.5322 22.8414 33.531 22.8332 33.531 22.8243C33.531 22.5797 33.5255 22.3358 33.4909 22.0932C33.473 21.9676 33.4489 21.8431 33.4334 21.7171C33.4182 21.5938 33.4097 21.4702 33.3836 21.3488C33.3824 21.343 33.382 21.338 33.3817 21.3325C33.2105 20.5781 32.9383 19.9477 32.551 19.4048L32.4503 19.264L32.6214 19.2457C33.074 19.1956 33.4579 19.1431 33.7597 19.0867L33.8783 19.0645L33.8802 20.3898C33.8903 24.3013 33.8903 28.2812 33.8884 32.1285L33.8872 32.1288Z" fill="#00723B"/>
</svg>
