<svg width="199" height="189" viewBox="0 0 199 189" fill="none" xmlns="http://www.w3.org/2000/svg">
<path d="M16.3333 35C16.3333 32.7909 18.1242 31 20.3333 31H43.3333C45.5425 31 47.3333 32.7909 47.3333 35V43C47.3333 45.2091 45.5425 47 43.3333 47H20.3333C18.1242 47 16.3333 45.2091 16.3333 43V35Z" fill="#E8F4FD"/>
<path d="M26.9617 42C26.9684 41.8667 26.9717 41.6567 26.9717 41.37C26.9717 40.23 26.915 39.2167 26.8017 38.33C26.655 37.25 26.405 36.3067 26.0517 35.5L26.9917 34.95C27.3584 35.7233 27.6217 36.8033 27.7817 38.19C27.875 39.03 27.9217 40.0633 27.9217 41.29L27.9117 42H26.9617ZM31.2357 41.62C30.9424 41.62 30.6657 41.5467 30.4057 41.4C30.1524 41.2467 29.949 41.0433 29.7957 40.79C29.649 40.5367 29.5757 40.2633 29.5757 39.97C29.5757 39.6767 29.649 39.4033 29.7957 39.15C29.949 38.8967 30.1524 38.6967 30.4057 38.55C30.6657 38.4033 30.9424 38.33 31.2357 38.33C31.5424 38.33 31.8224 38.4033 32.0757 38.55C32.329 38.6967 32.529 38.8967 32.6757 39.15C32.829 39.4033 32.9057 39.6767 32.9057 39.97C32.9057 40.2633 32.829 40.5367 32.6757 40.79C32.529 41.0433 32.329 41.2467 32.0757 41.4C31.8224 41.5467 31.5424 41.62 31.2357 41.62ZM31.2357 40.73C31.449 40.73 31.6257 40.66 31.7657 40.52C31.9057 40.3733 31.9757 40.19 31.9757 39.97C31.9757 39.7567 31.9057 39.58 31.7657 39.44C31.6257 39.2933 31.449 39.22 31.2357 39.22C31.0357 39.22 30.8657 39.2933 30.7257 39.44C30.5857 39.58 30.5157 39.7567 30.5157 39.97C30.5157 40.19 30.5857 40.3733 30.7257 40.52C30.8657 40.66 31.0357 40.73 31.2357 40.73ZM35.8353 41.62C35.542 41.62 35.2653 41.5467 35.0053 41.4C34.752 41.2467 34.5486 41.0433 34.3953 40.79C34.2486 40.5367 34.1753 40.2633 34.1753 39.97C34.1753 39.6767 34.2486 39.4033 34.3953 39.15C34.5486 38.8967 34.752 38.6967 35.0053 38.55C35.2653 38.4033 35.542 38.33 35.8353 38.33C36.142 38.33 36.422 38.4033 36.6753 38.55C36.9286 38.6967 37.1286 38.8967 37.2753 39.15C37.4286 39.4033 37.5053 39.6767 37.5053 39.97C37.5053 40.2633 37.4286 40.5367 37.2753 40.79C37.1286 41.0433 36.9286 41.2467 36.6753 41.4C36.422 41.5467 36.142 41.62 35.8353 41.62ZM35.8353 40.73C36.0486 40.73 36.2253 40.66 36.3653 40.52C36.5053 40.3733 36.5753 40.19 36.5753 39.97C36.5753 39.7567 36.5053 39.58 36.3653 39.44C36.2253 39.2933 36.0486 39.22 35.8353 39.22C35.6353 39.22 35.4653 39.2933 35.3253 39.44C35.1853 39.58 35.1153 39.7567 35.1153 39.97C35.1153 40.19 35.1853 40.3733 35.3253 40.52C35.4653 40.66 35.6353 40.73 35.8353 40.73Z" fill="#0A86BB"/>
<path d="M31.8333 52.125C36.7348 52.125 40.7083 56.0985 40.7083 61V180C40.7083 184.902 36.7348 188.875 31.8333 188.875C26.9318 188.875 22.9583 184.902 22.9583 180V61C22.9583 56.0985 26.9318 52.125 31.8333 52.125Z" fill="#00AEEF"/>
<path d="M31.8333 52.125C36.7348 52.125 40.7083 56.0985 40.7083 61V180C40.7083 184.902 36.7348 188.875 31.8333 188.875C26.9318 188.875 22.9583 184.902 22.9583 180V61C22.9583 56.0985 26.9318 52.125 31.8333 52.125Z" stroke="#E0E0E0" stroke-width="0.25"/>
<path d="M84 4C84 1.79086 85.7909 0 88 0H111C113.209 0 115 1.79086 115 4V12C115 14.2091 113.209 16 111 16H88C85.7909 16 84 14.2091 84 12V4Z" fill="#F8FFFC"/>
<path d="M94.6284 11C94.6351 10.8667 94.6384 10.6567 94.6384 10.37C94.6384 9.23 94.5817 8.21667 94.4684 7.33C94.3217 6.25 94.0717 5.30667 93.7184 4.5L94.6584 3.95C95.0251 4.72333 95.2884 5.80333 95.4484 7.19C95.5417 8.03 95.5884 9.06333 95.5884 10.29L95.5784 11H94.6284ZM98.9024 10.62C98.609 10.62 98.3324 10.5467 98.0724 10.4C97.819 10.2467 97.6157 10.0433 97.4624 9.79C97.3157 9.53667 97.2424 9.26333 97.2424 8.97C97.2424 8.67667 97.3157 8.40333 97.4624 8.15C97.6157 7.89667 97.819 7.69667 98.0724 7.55C98.3324 7.40333 98.609 7.33 98.9024 7.33C99.209 7.33 99.489 7.40333 99.7424 7.55C99.9957 7.69667 100.196 7.89667 100.342 8.15C100.496 8.40333 100.572 8.67667 100.572 8.97C100.572 9.26333 100.496 9.53667 100.342 9.79C100.196 10.0433 99.9957 10.2467 99.7424 10.4C99.489 10.5467 99.209 10.62 98.9024 10.62ZM98.9024 9.73C99.1157 9.73 99.2924 9.66 99.4324 9.52C99.5724 9.37333 99.6424 9.19 99.6424 8.97C99.6424 8.75667 99.5724 8.58 99.4324 8.44C99.2924 8.29333 99.1157 8.22 98.9024 8.22C98.7024 8.22 98.5324 8.29333 98.3924 8.44C98.2524 8.58 98.1824 8.75667 98.1824 8.97C98.1824 9.19 98.2524 9.37333 98.3924 9.52C98.5324 9.66 98.7024 9.73 98.9024 9.73ZM103.502 10.62C103.209 10.62 102.932 10.5467 102.672 10.4C102.419 10.2467 102.215 10.0433 102.062 9.79C101.915 9.53667 101.842 9.26333 101.842 8.97C101.842 8.67667 101.915 8.40333 102.062 8.15C102.215 7.89667 102.419 7.69667 102.672 7.55C102.932 7.40333 103.209 7.33 103.502 7.33C103.809 7.33 104.089 7.40333 104.342 7.55C104.595 7.69667 104.795 7.89667 104.942 8.15C105.095 8.40333 105.172 8.67667 105.172 8.97C105.172 9.26333 105.095 9.53667 104.942 9.79C104.795 10.0433 104.595 10.2467 104.342 10.4C104.089 10.5467 103.809 10.62 103.502 10.62ZM103.502 9.73C103.715 9.73 103.892 9.66 104.032 9.52C104.172 9.37333 104.242 9.19 104.242 8.97C104.242 8.75667 104.172 8.58 104.032 8.44C103.892 8.29333 103.715 8.22 103.502 8.22C103.302 8.22 103.132 8.29333 102.992 8.44C102.852 8.58 102.782 8.75667 102.782 8.97C102.782 9.19 102.852 9.37333 102.992 9.52C103.132 9.66 103.302 9.73 103.502 9.73Z" fill="#4AAF57"/>
<path d="M99.5 21.125C104.402 21.125 108.375 25.0985 108.375 30V180C108.375 184.902 104.402 188.875 99.5 188.875C94.5985 188.875 90.625 184.902 90.625 180V30C90.625 25.0985 94.5985 21.125 99.5 21.125Z" fill="#4AAF57"/>
<path d="M99.5 21.125C104.402 21.125 108.375 25.0985 108.375 30V180C108.375 184.902 104.402 188.875 99.5 188.875C94.5985 188.875 90.625 184.902 90.625 180V30C90.625 25.0985 94.5985 21.125 99.5 21.125Z" stroke="#E0E0E0" stroke-width="0.25"/>
<path d="M99.4259 26L100.532 29.4037H104.111L101.215 31.5074L102.321 34.9111L99.4259 32.8075L96.5305 34.9111L97.6365 31.5074L94.7411 29.4037H98.32L99.4259 26Z" fill="white"/>
<path d="M151.667 108C151.667 105.791 153.458 104 155.667 104H178.667C180.876 104 182.667 105.791 182.667 108V116C182.667 118.209 180.876 120 178.667 120H155.667C153.458 120 151.667 118.209 151.667 116V108Z" fill="#FFF3F0"/>
<path d="M162.295 115C162.302 114.867 162.305 114.657 162.305 114.37C162.305 113.23 162.248 112.217 162.135 111.33C161.988 110.25 161.738 109.307 161.385 108.5L162.325 107.95C162.692 108.723 162.955 109.803 163.115 111.19C163.208 112.03 163.255 113.063 163.255 114.29L163.245 115H162.295ZM166.569 114.62C166.276 114.62 165.999 114.547 165.739 114.4C165.486 114.247 165.282 114.043 165.129 113.79C164.982 113.537 164.909 113.263 164.909 112.97C164.909 112.677 164.982 112.403 165.129 112.15C165.282 111.897 165.486 111.697 165.739 111.55C165.999 111.403 166.276 111.33 166.569 111.33C166.876 111.33 167.156 111.403 167.409 111.55C167.662 111.697 167.862 111.897 168.009 112.15C168.162 112.403 168.239 112.677 168.239 112.97C168.239 113.263 168.162 113.537 168.009 113.79C167.862 114.043 167.662 114.247 167.409 114.4C167.156 114.547 166.876 114.62 166.569 114.62ZM166.569 113.73C166.782 113.73 166.959 113.66 167.099 113.52C167.239 113.373 167.309 113.19 167.309 112.97C167.309 112.757 167.239 112.58 167.099 112.44C166.959 112.293 166.782 112.22 166.569 112.22C166.369 112.22 166.199 112.293 166.059 112.44C165.919 112.58 165.849 112.757 165.849 112.97C165.849 113.19 165.919 113.373 166.059 113.52C166.199 113.66 166.369 113.73 166.569 113.73ZM171.169 114.62C170.875 114.62 170.599 114.547 170.339 114.4C170.085 114.247 169.882 114.043 169.729 113.79C169.582 113.537 169.509 113.263 169.509 112.97C169.509 112.677 169.582 112.403 169.729 112.15C169.882 111.897 170.085 111.697 170.339 111.55C170.599 111.403 170.875 111.33 171.169 111.33C171.475 111.33 171.755 111.403 172.009 111.55C172.262 111.697 172.462 111.897 172.609 112.15C172.762 112.403 172.839 112.677 172.839 112.97C172.839 113.263 172.762 113.537 172.609 113.79C172.462 114.043 172.262 114.247 172.009 114.4C171.755 114.547 171.475 114.62 171.169 114.62ZM171.169 113.73C171.382 113.73 171.559 113.66 171.699 113.52C171.839 113.373 171.909 113.19 171.909 112.97C171.909 112.757 171.839 112.58 171.699 112.44C171.559 112.293 171.382 112.22 171.169 112.22C170.969 112.22 170.799 112.293 170.659 112.44C170.519 112.58 170.449 112.757 170.449 112.97C170.449 113.19 170.519 113.373 170.659 113.52C170.799 113.66 170.969 113.73 171.169 113.73Z" fill="#FF981F"/>
<path d="M167.167 125.125C172.068 125.125 176.042 129.098 176.042 134V180C176.042 184.902 172.068 188.875 167.167 188.875C162.265 188.875 158.292 184.902 158.292 180V134C158.292 129.098 162.265 125.125 167.167 125.125Z" fill="#FF981F"/>
<path d="M167.167 125.125C172.068 125.125 176.042 129.098 176.042 134V180C176.042 184.902 172.068 188.875 167.167 188.875C162.265 188.875 158.292 184.902 158.292 180V134C158.292 129.098 162.265 125.125 167.167 125.125Z" stroke="#E0E0E0" stroke-width="0.25"/>
</svg>
