<svg width="181" height="181" viewBox="0 0 181 181" fill="none" xmlns="http://www.w3.org/2000/svg">
<path d="M161.265 115.81C162.713 116.328 164.311 115.575 164.777 114.11C170.736 95.3619 169.394 75.0125 160.951 57.1682C152.508 39.3239 137.626 25.3805 119.351 18.0989C117.923 17.5299 116.327 18.2881 115.81 19.7356L112.435 29.1709C111.917 30.6184 112.674 32.2058 114.097 32.7875C128.481 38.668 140.187 49.7275 146.861 63.8346C153.535 77.9418 154.663 94.0059 150.088 108.857C149.635 110.326 150.382 111.918 151.83 112.435L161.265 115.81Z" fill="#FF981F"/>
<path d="M154.92 129.208C156.238 130 156.669 131.713 155.83 133.001C148.594 144.125 138.628 153.23 126.864 159.436C114.278 166.075 100.115 169.141 85.91 168.303C71.7051 167.465 58.0008 162.754 46.2831 154.681C34.5653 146.608 25.2812 135.482 19.4376 122.507C13.5939 109.533 11.4137 95.2066 13.1334 81.0814C14.8531 66.9561 20.407 53.5713 29.1929 42.3781C37.9788 31.1849 49.6614 22.6107 62.9739 17.585C75.4172 12.8875 88.8407 11.458 101.966 13.4103C103.487 13.6364 104.484 15.0942 104.204 16.6057L102.377 26.4583C102.097 27.9698 100.644 28.9614 99.1219 28.7488C88.7973 27.3073 78.2598 28.4758 68.4791 32.1681C57.8292 36.1886 48.4831 43.048 41.4544 52.0026C34.4257 60.9571 29.9825 71.665 28.6068 82.9652C27.2311 94.2653 28.9752 105.727 33.6501 116.106C38.325 126.485 45.7523 135.387 55.1265 141.845C64.5007 148.303 75.4642 152.072 86.828 152.743C98.1919 153.413 109.522 150.96 119.591 145.649C128.838 140.771 136.696 133.654 142.459 124.967C143.308 123.685 145.013 123.255 146.331 124.047L154.92 129.208Z" fill="#00AEEF"/>
</svg>
