<svg width="180" height="180" viewBox="0 0 180 180" fill="none" xmlns="http://www.w3.org/2000/svg">
<path d="M145.433 39.252C146.567 38.214 146.648 36.4494 145.571 35.3533C137.325 26.9679 127.278 20.5484 116.179 16.5901C104.204 12.3198 91.366 11.0438 78.7849 12.8733C66.2038 14.7028 54.2612 19.5822 43.9985 27.0861C34.4856 34.0418 26.6838 43.0567 21.1676 53.4433C20.4465 54.801 21.0269 56.4694 22.4094 57.1415L31.4216 61.5227C32.8041 62.1948 34.4642 61.6154 35.1974 60.2642C39.5939 52.1615 45.7387 45.1237 53.1988 39.669C61.409 33.6658 70.9631 29.7623 81.028 28.2987C91.0929 26.8351 101.363 27.8559 110.943 31.2721C119.648 34.3763 127.542 39.3725 134.064 45.8875C135.152 46.974 136.908 47.0565 138.042 46.0185L145.433 39.252Z" fill="#FF981F"/>
<path d="M152.292 47.9526C153.566 47.0925 155.301 47.4257 156.115 48.7298C162.561 59.0562 166.505 70.7611 167.615 82.9094C168.725 95.0578 166.967 107.284 162.499 118.607C161.934 120.037 160.289 120.679 158.88 120.064L149.696 116.056C148.287 115.441 147.649 113.802 148.201 112.367C151.626 103.454 152.963 93.8611 152.092 84.3276C151.221 74.7942 148.168 65.602 143.184 57.4574C142.382 56.1461 142.712 54.419 143.986 53.559L152.292 47.9526Z" fill="#06B217"/>
<path d="M154.42 128.708C155.738 129.5 156.168 131.213 155.33 132.502C145.519 147.583 130.771 158.833 113.566 164.29C95.4761 170.029 75.9135 168.969 58.5487 161.311C41.1839 153.652 27.2104 139.92 19.2498 122.692C11.679 106.307 10.0413 87.8305 14.5628 70.4158C14.9492 68.9279 16.5047 68.0903 17.9779 68.5294L27.5809 71.3922C29.0541 71.8314 29.8859 73.3806 29.5129 74.8719C26.0677 88.6453 27.4213 103.215 33.3999 116.153C39.7684 129.936 50.9472 140.921 64.839 147.048C78.7308 153.175 94.3809 154.023 108.853 149.432C122.439 145.122 134.111 136.298 141.959 124.466C142.808 123.185 144.513 122.755 145.831 123.547L154.42 128.708Z" fill="#00AEEF"/>
</svg>
