<svg width="19" height="17" viewBox="0 0 19 17" fill="none" xmlns="http://www.w3.org/2000/svg">
<path fill-rule="evenodd" clip-rule="evenodd" d="M9.81443 10.2207C9.25693 10.2207 8.7011 10.0365 8.2361 9.66818L4.4986 6.65485C4.22943 6.43818 4.18777 6.04401 4.4036 5.77568C4.6211 5.50818 5.01443 5.46568 5.28277 5.68151L9.01693 8.69151C9.4861 9.06318 10.1469 9.06318 10.6194 8.68818L14.3161 5.68318C14.5844 5.46401 14.9778 5.50568 15.1961 5.77401C15.4136 6.04151 15.3728 6.43485 15.1053 6.65318L11.4019 9.66318C10.9336 10.0348 10.3736 10.2207 9.81443 10.2207Z" fill="#212121"/>
<mask id="mask0_2031_335" style="mask-type:luminance" maskUnits="userSpaceOnUse" x="0" y="0" width="19" height="17">
<path fill-rule="evenodd" clip-rule="evenodd" d="M0.833496 0.666687H18.7501V16.9167H0.833496V0.666687Z" fill="white"/>
</mask>
<g mask="url(#mask0_2031_335)">
<path fill-rule="evenodd" clip-rule="evenodd" d="M5.69933 15.6667H13.8827C13.8843 15.665 13.891 15.6667 13.896 15.6667C14.8468 15.6667 15.6902 15.3267 16.3368 14.6809C17.0877 13.9334 17.5002 12.8592 17.5002 11.6567V5.93335C17.5002 3.60585 15.9785 1.91669 13.8827 1.91669H5.701C3.60516 1.91669 2.0835 3.60585 2.0835 5.93335V11.6567C2.0835 12.8592 2.49683 13.9334 3.24683 14.6809C3.8935 15.3267 4.73766 15.6667 5.68766 15.6667H5.69933ZM5.68516 16.9167C4.39933 16.9167 3.251 16.45 2.36433 15.5667C1.37683 14.5817 0.833496 13.1934 0.833496 11.6567V5.93335C0.833496 2.93085 2.926 0.666687 5.701 0.666687H13.8827C16.6577 0.666687 18.7502 2.93085 18.7502 5.93335V11.6567C18.7502 13.1934 18.2068 14.5817 17.2193 15.5667C16.3335 16.4492 15.1843 16.9167 13.896 16.9167H13.8827H5.701H5.68516Z" fill="#212121"/>
</g>
</svg>
