<svg width="474" height="474" viewBox="0 0 474 474" fill="none" xmlns="http://www.w3.org/2000/svg">
<path d="M52.1401 286.23L60.3403 280.921C60.3403 280.921 64.3219 259.771 61.3641 241.105C57.2119 214.769 39.3136 205.716 32.8104 208.314C26.3071 210.911 24.7713 218.742 36.517 233.91C43.4469 242.878 52.3581 261.828 52.1401 286.23Z" fill="#00AEEF"/>
<g opacity="0.3">
<path d="M52.1401 286.23L60.3403 280.921C60.3403 280.921 64.3219 259.771 61.3641 241.105C57.2119 214.769 39.3136 205.716 32.8104 208.314C26.3071 210.911 24.7713 218.742 36.517 233.91C43.4469 242.878 52.3581 261.828 52.1401 286.23Z" fill="white"/>
</g>
<path d="M55.1261 275.792H55.0408C54.7185 275.745 54.5004 275.451 54.5384 275.129C57.9417 250.481 48.0446 223.538 36.915 212.665C36.678 212.437 36.678 212.068 36.9056 211.831C37.1331 211.594 37.5028 211.594 37.7398 211.821C49.0684 222.884 59.1551 250.272 55.7044 275.28C55.6665 275.574 55.42 275.792 55.1261 275.792Z" fill="white"/>
<path d="M31.4926 299.568C30.2602 300.269 26.7526 297.568 25.8046 296.914C24.1362 295.776 22.79 294.231 21.8989 292.43C20.9035 290.372 20.5717 288.05 20.9509 285.794C21.15 284.599 21.4249 283.433 21.7851 282.276C22.1169 281.139 22.4392 280.001 22.7331 278.864C23.1313 277.764 23.3019 276.588 23.2261 275.422C22.9322 273.09 20.8561 271.46 18.979 270.047C16.8934 268.492 14.732 266.435 14.7415 263.629C14.8932 261.449 15.7653 259.382 17.2158 257.752C18.5619 256.045 20.1546 254.547 21.368 252.746C22.3255 251.495 22.8184 249.959 22.7805 248.385C22.6478 247.428 22.3255 246.499 21.8325 245.665C20.8845 243.835 19.5384 242.157 18.8558 240.195C18.1732 238.232 18.268 235.787 19.8038 234.383C21.0552 233.227 22.9322 233.066 24.6291 233.18C26.2218 233.379 27.7575 233.919 29.1226 234.763C33.5782 237.237 36.1284 242.517 40.8589 244.423C42.7264 245.011 44.6224 245.475 46.5469 245.826C48.4429 246.328 50.3863 247.305 51.2869 249.059C53.0217 252.528 49.7985 256.804 51.0214 260.482C52.1022 263.743 55.2685 264.985 57.0412 267.924C57.7617 269.222 58.0556 270.711 57.8755 272.19C57.7238 274.683 57.1076 277.119 56.0743 279.395C54.9082 281.755 53.5905 284.03 52.1401 286.23L31.4926 299.568Z" fill="#00AEEF"/>
<g opacity="0.65">
<path d="M31.4926 299.568C30.2602 300.269 26.7526 297.568 25.8046 296.914C24.1362 295.776 22.79 294.231 21.8989 292.43C20.9035 290.372 20.5717 288.05 20.9509 285.794C21.15 284.599 21.4249 283.433 21.7851 282.276C22.1169 281.139 22.4392 280.001 22.7331 278.864C23.1313 277.764 23.3019 276.588 23.2261 275.422C22.9322 273.09 20.8561 271.46 18.979 270.047C16.8934 268.492 14.732 266.435 14.7415 263.629C14.8932 261.449 15.7653 259.382 17.2158 257.752C18.5619 256.045 20.1546 254.547 21.368 252.746C22.3255 251.495 22.8184 249.959 22.7805 248.385C22.6478 247.428 22.3255 246.499 21.8325 245.665C20.8845 243.835 19.5384 242.157 18.8558 240.195C18.1732 238.232 18.268 235.787 19.8038 234.383C21.0552 233.227 22.9322 233.066 24.6291 233.18C26.2218 233.379 27.7575 233.919 29.1226 234.763C33.5782 237.237 36.1284 242.517 40.8589 244.423C42.7264 245.011 44.6224 245.475 46.5469 245.826C48.4429 246.328 50.3863 247.305 51.2869 249.059C53.0217 252.528 49.7985 256.804 51.0214 260.482C52.1022 263.743 55.2685 264.985 57.0412 267.924C57.7617 269.222 58.0556 270.711 57.8755 272.19C57.7238 274.683 57.1076 277.119 56.0743 279.395C54.9082 281.755 53.5905 284.03 52.1401 286.23L31.4926 299.568Z" fill="white"/>
</g>
<path d="M43.3995 292.591C43.0962 292.581 42.8592 292.325 42.8686 292.022V292.012C43.8166 269.981 33.3886 245.646 25.8046 238.583C25.5961 238.356 25.6245 237.995 25.852 237.796C26.0511 237.616 26.3545 237.607 26.563 237.768C34.2608 244.982 44.8594 269.715 43.9304 292.06C43.9114 292.344 43.6839 292.572 43.3995 292.591Z" fill="white"/>
<path d="M39.8161 265.658H39.6549C34.4504 264.217 29.0942 263.345 23.7001 263.051C23.3967 263.042 23.1597 262.786 23.1692 262.482V262.473C23.1692 262.179 23.4157 261.932 23.7191 261.942C23.7285 261.942 23.738 261.942 23.7475 261.942C29.2554 262.226 34.7064 263.108 40.0247 264.568C40.3091 264.663 40.4702 264.976 40.3849 265.269C40.3091 265.516 40.0721 265.677 39.8161 265.658Z" fill="white"/>
<path d="M240.489 459.799C361.427 459.799 459.467 403.196 459.467 333.374C459.467 263.551 361.427 206.948 240.489 206.948C119.55 206.948 21.51 263.551 21.51 333.374C21.51 403.196 119.55 459.799 240.489 459.799Z" fill="#FAFAFA"/>
<path d="M124.112 279.48C170.498 252.708 245.693 252.708 292.07 279.48C331.383 302.175 337.355 336.824 310.025 363.169L412.077 421.339C418.296 424.932 418.296 430.752 412.077 434.345L402.9 439.644C396.681 443.237 386.784 442.953 380.755 439.019L291.643 376.697C245.191 403.241 170.375 403.137 124.15 376.451C77.7362 349.67 77.7362 306.261 124.112 279.48Z" fill="#E6E6E6"/>
<path d="M142.911 44.082L134.872 48.7272C134.91 48.3764 134.938 48.0162 134.938 47.6654V45.3333C134.938 41.1811 132.028 39.5031 128.435 41.5413C126.89 42.4893 125.563 43.7597 124.558 45.267C123.961 40.053 119.875 38.1096 114.898 40.9725C109.522 44.082 105.171 51.6281 105.171 57.8375V61.3166C105.133 62.7102 105.418 64.0943 105.996 65.3646L99.3599 69.2229C97.2174 70.6165 95.8713 72.9581 95.748 75.5082C95.748 77.8118 97.3596 78.7409 99.3599 77.5938L142.968 52.4149C145.101 51.0308 146.447 48.7082 146.58 46.1676C146.523 43.8639 144.911 42.9349 142.911 44.082Z" fill="#EBEBEB"/>
<path d="M36.8771 64.9949L41.4085 61.4968V51.5048C41.4085 43.5796 47.7317 34.384 54.5857 30.4308C61.4492 26.4682 67.014 29.6819 67.014 37.5977V39.0481C68.4644 36.7066 70.4363 34.7347 72.7778 33.2843C77.7169 30.4403 81.7175 32.7439 81.7175 38.4414V39.105L88.0406 35.4552C91.2923 33.5592 93.9277 35.095 93.9277 38.849C93.7002 42.9918 91.5198 46.7838 88.0406 49.0495L36.8771 78.5892C33.6254 80.4852 30.99 78.94 30.99 75.1859C31.2175 71.0431 33.3979 67.2606 36.8771 64.9949Z" fill="#EBEBEB"/>
<path d="M104.119 296.904V325.752C104.119 341.413 114.471 357.036 135.166 369.028C176.556 392.927 243.674 392.927 285.064 369.028C305.759 357.074 316.111 341.413 316.111 325.752V296.904C316.111 281.243 305.759 265.62 285.064 253.637C243.674 229.738 176.556 229.738 135.166 253.637C114.471 265.582 104.119 281.243 104.119 296.904ZM305.854 296.904C305.854 309.437 296.648 321.647 279.935 331.298C261.449 341.972 236.659 347.85 210.115 347.85C183.571 347.85 158.781 341.972 140.295 331.298C123.582 321.647 114.377 309.437 114.377 296.904C114.377 284.372 123.582 272.161 140.295 262.511C158.781 251.836 183.571 245.959 210.115 245.959C236.659 245.959 261.459 251.836 279.935 262.511C296.658 272.161 305.854 284.4 305.854 296.904Z" fill="#00AEEF"/>
<path opacity="0.2" d="M104.119 296.904V325.752C104.119 341.413 114.471 357.036 135.166 369.028C176.556 392.927 243.674 392.927 285.064 369.028C305.759 357.074 316.111 341.413 316.111 325.752V296.904C316.111 281.243 305.759 265.62 285.064 253.637C243.674 229.738 176.556 229.738 135.166 253.637C114.471 265.582 104.119 281.243 104.119 296.904ZM305.854 296.904C305.854 309.437 296.648 321.647 279.935 331.298C261.449 341.972 236.659 347.85 210.115 347.85C183.571 347.85 158.781 341.972 140.295 331.298C123.582 321.647 114.377 309.437 114.377 296.904C114.377 284.372 123.582 272.161 140.295 262.511C158.781 251.836 183.571 245.959 210.115 245.959C236.659 245.959 261.459 251.836 279.935 262.511C296.658 272.161 305.854 284.4 305.854 296.904Z" fill="white"/>
<path opacity="0.6" d="M316.007 328.444C314.357 338.37 309.987 345.84 292.382 359.576C267.497 379.01 204.484 386.945 167.91 374.877C133.412 363.501 122.406 341.233 122.406 325.96L122.501 316.983C117.173 310.641 114.367 303.825 114.367 296.904C114.367 289.813 117.315 282.826 122.899 276.352L123.022 263.705H121.06C109.769 273.782 104.119 285.339 104.119 296.885V325.733C104.119 341.394 114.471 357.017 135.166 369.009C176.556 392.908 243.674 392.908 285.064 369.009C304.574 357.766 314.888 343.176 316.007 328.444Z" fill="#00AEEF"/>
<path d="M285.073 253.637C243.674 229.738 176.565 229.738 135.175 253.637C93.7855 277.536 93.776 316.281 135.175 340.18C176.574 364.079 243.674 364.079 285.073 340.18C326.472 316.281 326.463 277.536 285.073 253.637ZM279.944 331.298C261.458 341.972 236.659 347.85 210.124 347.85C183.59 347.85 158.79 341.972 140.294 331.298C123.581 321.647 114.376 309.437 114.376 296.904C114.376 284.371 123.581 272.161 140.294 262.511C158.78 251.836 183.58 245.959 210.124 245.959C236.668 245.959 261.458 251.836 279.944 262.511C296.658 272.161 305.863 284.381 305.863 296.904C305.863 309.427 296.658 321.647 279.944 331.298Z" fill="#00AEEF"/>
<path opacity="0.5" d="M285.073 253.637C243.674 229.738 176.565 229.738 135.175 253.637C93.7855 277.536 93.776 316.281 135.175 340.18C176.574 364.079 243.674 364.079 285.073 340.18C326.472 316.281 326.463 277.536 285.073 253.637ZM279.944 331.298C261.458 341.972 236.659 347.85 210.124 347.85C183.59 347.85 158.79 341.972 140.294 331.298C123.581 321.647 114.376 309.437 114.376 296.904C114.376 284.371 123.581 272.161 140.294 262.511C158.78 251.836 183.58 245.959 210.124 245.959C236.668 245.959 261.458 251.836 279.944 262.511C296.658 272.161 305.863 284.381 305.863 296.904C305.863 309.427 296.658 321.647 279.944 331.298Z" fill="white"/>
<path d="M305.872 296.904C305.816 301.995 304.384 306.981 301.73 311.333C297.53 304.061 290.126 297.236 279.926 291.368C261.459 280.684 236.65 274.806 210.106 274.806C183.562 274.806 158.771 280.684 140.295 291.368C130.104 297.236 122.709 304.061 118.491 311.333C115.865 306.972 114.443 301.995 114.376 296.904C114.376 284.381 123.582 272.161 140.304 262.501C158.781 251.846 183.58 245.959 210.115 245.959C236.65 245.959 261.468 251.846 279.935 262.501C296.667 272.161 305.872 284.4 305.872 296.904Z" fill="#00AEEF"/>
<path opacity="0.3" d="M305.872 296.904C305.816 301.995 304.384 306.981 301.73 311.333C297.53 304.061 290.126 297.236 279.926 291.368C261.459 280.684 236.65 274.806 210.106 274.806C183.562 274.806 158.771 280.684 140.295 291.368C130.104 297.236 122.709 304.061 118.491 311.333C115.865 306.972 114.443 301.995 114.376 296.904C114.376 284.381 123.582 272.161 140.304 262.501C158.781 251.846 183.58 245.959 210.115 245.959C236.65 245.959 261.468 251.846 279.935 262.501C296.667 272.161 305.872 284.4 305.872 296.904Z" fill="white"/>
<path opacity="0.6" d="M140.304 262.501C123.582 272.161 114.376 284.381 114.376 296.904C114.443 301.995 115.865 306.972 118.5 311.333C122.728 304.062 130.123 297.236 140.304 291.368C144.608 288.903 149.083 286.751 153.69 284.912C149.652 286.476 137.252 290.467 141.774 278.646C147.149 264.606 173.38 249.4 192.653 246.878C172.83 248.841 154.657 254.225 140.304 262.501Z" fill="#00AEEF"/>
<path opacity="0.4" d="M279.944 275.574C261.458 264.9 236.659 259.022 210.124 259.022C183.59 259.022 158.781 264.9 140.295 275.574C126.511 283.537 117.846 293.245 115.229 303.436C117.846 313.627 126.511 323.344 140.295 331.298C158.79 341.972 183.58 347.85 210.124 347.85C236.668 347.85 261.458 341.972 279.944 331.298C293.738 323.334 302.403 313.627 305.01 303.436C302.412 293.245 293.738 283.537 279.944 275.574Z" fill="white"/>
<path d="M133.213 310.053C139.138 314.698 145.859 317.637 152.713 319.969C159.586 322.244 166.63 323.979 173.769 325.164C188.045 327.477 202.512 328.311 216.959 327.629C224.174 327.306 231.397 326.633 238.574 325.666C245.731 324.709 252.813 323.306 259.8 321.486C266.748 319.751 273.47 317.201 279.831 313.902C281.404 313.068 282.921 312.138 284.381 311.124C285.851 310.119 287.244 309.01 288.543 307.806C289.861 306.593 291.027 305.237 292.041 303.758C293.084 302.241 293.88 300.563 294.402 298.8C294.43 300.734 294.108 302.668 293.454 304.488C292.762 306.318 291.851 308.062 290.742 309.683C289.652 311.314 288.401 312.84 287.026 314.234C285.661 315.637 284.211 316.954 282.675 318.168C276.494 322.879 269.649 326.633 262.359 329.316C255.173 332.028 247.76 334.094 240.204 335.488C232.687 336.91 225.093 337.81 217.452 338.189C202.123 338.995 186.766 337.355 171.948 333.345C164.535 331.317 157.378 328.454 150.609 324.813C147.234 322.965 144.03 320.832 141.034 318.424C140.285 317.826 139.584 317.172 138.863 316.528C138.143 315.883 137.46 315.229 136.806 314.537C135.488 313.143 134.284 311.646 133.213 310.053Z" fill="white"/>
<path d="M281.917 358.543C282.172 353.31 284.912 348.523 289.292 345.65C291.321 344.465 293.169 344.342 294.515 345.1L318.14 358.609C319.476 359.377 320.311 361.036 320.32 363.349C320.055 368.573 317.315 373.37 312.945 376.242C310.897 377.437 309.039 377.56 307.693 376.783L284.078 363.283C282.77 362.582 281.926 360.923 281.917 358.543Z" fill="#37474F"/>
<path d="M284.125 363.349C282.77 362.582 281.926 360.923 281.917 358.543C281.954 356.628 282.381 354.732 283.177 352.988L317.125 372.441C316.016 373.995 314.613 375.313 312.992 376.309C310.944 377.503 309.086 377.626 307.74 376.849L284.125 363.349Z" fill="#263238"/>
<path d="M398.577 397.032L323.401 358.723L323.306 358.666C321.562 357.718 319.192 357.889 316.585 359.406C311.257 362.515 306.962 370.023 306.991 376.185C306.991 379.276 308.1 381.437 309.835 382.442L380.489 427.946C388.851 433.236 399.923 430.752 405.213 422.391C410.503 414.03 408.019 402.957 399.658 397.667C399.298 397.44 398.937 397.231 398.577 397.032Z" fill="#455A64"/>
<path d="M309.844 382.461L380.499 427.965C388.87 433.217 399.914 430.695 405.175 422.325C406.758 419.803 407.687 416.921 407.877 413.944C406.521 419.831 396.795 424.837 384.736 418.096C372.678 411.356 328.008 383.115 307.711 371.426C307.237 372.962 306.981 374.555 306.972 376.166C306.981 379.295 308.1 381.456 309.844 382.461Z" fill="#37474F"/>
<path d="M309.844 382.461C308.081 381.456 307 379.295 307 376.204C307 370.042 311.266 362.534 316.594 359.425C319.201 357.908 321.571 357.747 323.316 358.685L329.952 362.06C328.16 361.112 325.742 361.264 323.06 362.819C317.599 366.004 313.191 373.711 313.219 380.034C313.219 383.201 314.31 385.466 316.111 386.49" fill="#00AEEF"/>
<path opacity="0.2" d="M316.101 386.49C314.3 385.466 313.257 383.201 313.21 380.034C313.219 378.356 313.475 376.697 313.978 375.095C311.712 373.749 309.598 372.517 307.711 371.426C307.474 372.223 307.285 373.029 307.152 373.844C307.095 374.242 307.048 374.64 307.01 375.038C307.01 375.436 306.962 375.825 307.01 376.204C307.01 379.295 308.119 381.456 309.854 382.461L316.101 386.49Z" fill="black"/>
<path d="M130.075 426.373L73.1953 397.923L50.5381 407.953L130.075 426.373Z" fill="#00AEEF"/>
<g opacity="0.15">
<path d="M130.075 426.373L73.1953 397.923L50.5381 407.953L130.075 426.373Z" fill="white"/>
</g>
<path d="M130.075 426.372L79.9734 392.88L88.9415 379.987L130.075 426.372Z" fill="#00AEEF"/>
<g opacity="0.15">
<path d="M130.075 426.372L79.9734 392.88L88.9415 379.987L130.075 426.372Z" fill="white"/>
</g>
<path d="M79.9734 392.88L80.9119 401.781L130.075 426.372L79.9734 392.88Z" fill="#00AEEF"/>
<g opacity="0.2">
<path d="M79.9734 392.88L80.9119 401.781L130.075 426.372L79.9734 392.88Z" fill="black"/>
</g>
<path d="M71.8585 391.173C72.0007 391.173 72.124 391.116 72.2282 391.022C72.4652 390.785 72.4937 390.405 72.2851 390.14L71.1949 388.68C71.0243 388.443 70.6925 388.386 70.4555 388.557C70.4365 388.566 70.4176 388.585 70.3986 388.604C70.1616 388.841 70.1332 389.22 70.3322 389.486C70.6925 389.969 71.0622 390.434 71.4319 390.917C71.5267 391.069 71.6879 391.164 71.8585 391.173Z" fill="#455A64"/>
<path d="M66.8623 384.708C66.1893 383.722 65.5351 382.727 64.9 381.722C64.7199 381.437 64.7862 381.068 65.0422 380.85C65.2697 380.669 65.592 380.707 65.7721 380.935C65.7911 380.954 65.8006 380.982 65.8195 381.001C66.4547 381.997 67.0993 382.983 67.7155 383.959C67.9051 384.234 67.8577 384.613 67.6018 384.831C67.507 384.907 67.3932 384.954 67.27 384.954C67.1088 384.935 66.9571 384.85 66.8623 384.708ZM61.8474 376.565C61.2691 375.512 60.7003 374.441 60.16 373.37C60.0083 373.076 60.1031 372.706 60.378 372.517C60.6245 372.365 60.9563 372.441 61.108 372.687C61.1269 372.706 61.1364 372.735 61.1459 372.763C61.6768 373.815 62.2361 374.868 62.8049 375.91C62.9755 376.204 62.8902 376.574 62.6248 376.773C62.5395 376.83 62.4352 376.858 62.3309 376.858C62.1318 376.858 61.9422 376.745 61.8474 376.565ZM57.6193 367.881C57.1453 366.753 56.6713 365.615 56.2732 364.487C56.1499 364.174 56.2827 363.823 56.5765 363.672C56.8515 363.549 57.1833 363.681 57.297 363.966C57.3065 363.985 57.3065 363.994 57.316 364.013C57.7236 365.122 58.1692 366.241 58.6432 367.35C58.7759 367.653 58.6527 368.014 58.3683 368.184C58.2924 368.222 58.2166 368.241 58.1313 368.241C57.9037 368.232 57.7047 368.089 57.6193 367.881ZM54.3393 358.704C53.998 357.519 53.6757 356.315 53.3913 355.149C53.2965 354.827 53.4766 354.486 53.7894 354.381C54.0928 354.306 54.3961 354.476 54.472 354.78C54.472 354.789 54.4815 354.808 54.4815 354.817C54.7564 355.974 55.0692 357.15 55.4295 358.316C55.5337 358.628 55.3726 358.97 55.0692 359.102H54.8986C54.6426 359.102 54.4151 358.941 54.3393 358.704ZM52.1399 349.12C51.9503 347.916 51.7797 346.684 51.6375 345.461C51.5806 345.138 51.7986 344.826 52.1209 344.759C52.4433 344.74 52.7277 344.977 52.7561 345.3C52.8888 346.503 53.0595 347.717 53.2491 348.902C53.3154 349.224 53.1163 349.537 52.8035 349.622H52.6992C52.4148 349.603 52.1873 349.395 52.1399 349.12ZM51.1919 339.299C51.1919 338.351 51.135 337.403 51.135 336.388V335.592C51.1161 335.27 51.372 334.995 51.6943 334.976C52.0167 335.004 52.2631 335.289 52.2442 335.611V336.388C52.2442 337.336 52.2442 338.284 52.2442 339.232C52.2726 339.564 52.0356 339.849 51.7038 339.886C51.4099 339.849 51.1919 339.593 51.1919 339.299ZM51.9408 330.113C51.6185 330.056 51.4005 329.752 51.4384 329.43C51.5427 328.207 51.6754 326.965 51.8271 325.742C51.846 325.429 52.1209 325.192 52.4338 325.221C52.4433 325.221 52.4527 325.221 52.4717 325.221C52.794 325.287 53.0026 325.6 52.9457 325.922C52.794 327.126 52.6613 328.349 52.557 329.544C52.5475 329.847 52.3011 330.094 51.9977 330.113H51.9408ZM53.268 320.424C52.9552 320.32 52.7656 319.997 52.8509 319.675C53.0974 318.471 53.3818 317.267 53.6946 316.082C53.7515 315.788 54.0359 315.589 54.3393 315.646C54.3582 315.646 54.3772 315.656 54.3867 315.656C54.6995 315.779 54.8701 316.111 54.7753 316.433C54.472 317.59 54.1876 318.784 53.9411 319.96C53.9032 320.225 53.6757 320.433 53.4007 320.443L53.268 320.424ZM55.8276 311.048C55.5243 310.906 55.3915 310.555 55.5148 310.243C55.9224 309.105 56.3775 307.958 56.8515 306.839C56.9557 306.555 57.2781 306.413 57.5625 306.517C57.5719 306.526 57.5909 306.526 57.6004 306.536C57.8848 306.706 57.9985 307.067 57.8753 307.37C57.4013 308.47 56.9273 309.588 56.5576 310.707C56.4817 310.935 56.2732 311.086 56.0362 311.096C55.9603 311.096 55.894 311.086 55.8276 311.048ZM59.7239 302.241C59.449 302.042 59.3637 301.673 59.5248 301.379C60.1031 300.326 60.7098 299.274 61.326 298.26C61.4682 298.004 61.7905 297.909 62.0465 298.042C62.0655 298.051 62.0939 298.07 62.1129 298.089C62.3688 298.307 62.4352 298.677 62.2645 298.961C61.6483 299.957 61.0511 300.99 60.4918 302.023C60.397 302.203 60.2169 302.327 60.0083 302.327C59.904 302.327 59.8092 302.298 59.7239 302.241ZM64.7578 294.193C64.5208 293.956 64.4923 293.586 64.6914 293.321C65.4024 292.373 66.1513 291.425 66.9003 290.534C67.0899 290.316 67.4122 290.287 67.6397 290.477C67.6587 290.496 67.6871 290.515 67.6966 290.534C67.9241 290.79 67.9241 291.159 67.6966 291.415C66.9571 292.297 66.2272 293.207 65.5257 294.145C65.4214 294.288 65.2602 294.373 65.0896 294.373C64.9474 294.373 64.8052 294.307 64.7104 294.193H64.7578ZM70.8534 287.102C70.6259 286.846 70.6259 286.476 70.8534 286.22C71.6877 285.395 72.5503 284.59 73.413 283.831C73.6311 283.632 73.9629 283.651 74.1619 283.879C74.1809 283.898 74.1904 283.917 74.2093 283.936C74.3989 284.21 74.361 284.59 74.1145 284.817C73.2613 285.557 72.4176 286.343 71.5929 287.149C71.4981 287.253 71.3653 287.31 71.2231 287.31C71.062 287.31 70.9103 287.235 70.806 287.102H70.8534ZM77.8307 281.101C77.6695 280.807 77.7454 280.447 78.0013 280.238C78.9493 279.556 79.8973 278.921 80.8453 278.342C81.1013 278.191 81.4236 278.276 81.5753 278.532C81.5848 278.551 81.5943 278.57 81.6037 278.589C81.7554 278.883 81.6606 279.252 81.3857 279.433C80.4377 280.001 79.4897 280.627 78.5417 281.329C78.4564 281.395 78.3426 281.423 78.2383 281.423C78.0393 281.404 77.8686 281.281 77.7833 281.101H77.8307Z" fill="#455A64"/>
<path d="M86.1733 277.006H86.344C86.8464 276.816 87.3583 276.674 87.8892 276.579C88.2115 276.503 88.4201 276.19 88.3632 275.868C88.3348 275.546 88.0598 275.309 87.7375 275.337H87.728C87.1403 275.451 86.562 275.603 86.0027 275.811C85.6898 275.934 85.5287 276.276 85.633 276.598C85.7088 276.835 85.9268 276.996 86.1733 277.006Z" fill="#455A64"/>
<path d="M352.372 58.9182L294.07 41.0484L338.986 71.9058L352.372 58.9182Z" fill="#00AEEF"/>
<path opacity="0.15" d="M352.372 58.9182L294.07 41.0484L338.986 71.9058L352.372 58.9182Z" fill="white"/>
<path d="M294.07 41.0484L356.818 51.1446L370.204 38.157L294.07 41.0484Z" fill="#00AEEF"/>
<path opacity="0.15" d="M294.07 41.0484L356.818 51.1446L370.204 38.157L294.07 41.0484Z" fill="white"/>
<path d="M356.818 51.1446L356.875 66.6539L352.372 58.9182L294.07 41.0484L356.818 51.1446Z" fill="#00AEEF"/>
<path opacity="0.2" d="M356.818 51.1446L356.875 66.6539L352.372 58.9182L294.07 41.0484L356.818 51.1446Z" fill="black"/>
<path d="M356.875 66.6539L347.907 63.2505L352.372 58.9182L356.875 66.6539Z" fill="#00AEEF"/>
<path opacity="0.2" d="M352.372 58.9182L347.907 63.2505L349.338 63.7909L352.372 58.9182Z" fill="black"/>
<path d="M368.639 56.188C368.526 56.2733 368.459 56.3965 368.44 56.5292C368.402 56.861 368.611 57.1739 368.933 57.2687L370.659 57.7332C370.933 57.8185 371.227 57.6668 371.313 57.3919C371.322 57.3635 371.332 57.335 371.332 57.3066C371.379 56.9748 371.18 56.662 370.858 56.5672L369.113 56.1026C368.952 56.0552 368.772 56.0837 368.639 56.188Z" fill="#455A64"/>
<path d="M376.536 58.302C377.664 58.6812 378.792 59.0793 379.902 59.487C380.214 59.6102 380.395 59.9325 380.328 60.2643C380.252 60.5487 379.959 60.7194 379.674 60.6435C379.646 60.6341 379.627 60.6246 379.608 60.6151C378.508 60.2075 377.389 59.8188 376.271 59.4396C375.958 59.3353 375.768 59.0035 375.835 58.6812C375.854 58.5579 375.92 58.4537 376.024 58.3778C376.167 58.2641 376.366 58.2356 376.536 58.302ZM385.457 61.7337C386.566 62.2267 387.656 62.6817 388.737 63.26C389.04 63.4022 389.192 63.753 389.078 64.0658C388.965 64.3407 388.652 64.4735 388.377 64.3692C388.358 64.3597 388.339 64.3502 388.32 64.3407C387.258 63.8193 386.177 63.3169 385.087 62.8429C384.784 62.7007 384.623 62.3689 384.717 62.0466C384.746 61.9423 384.812 61.857 384.898 61.7906C385.059 61.6674 385.277 61.6484 385.457 61.7337ZM394.084 66.0851C395.146 66.6918 396.188 67.3269 397.212 67.9811C397.497 68.1517 397.601 68.5119 397.468 68.8153C397.316 69.0807 396.985 69.1755 396.719 69.0239C396.7 69.0144 396.691 69.0049 396.672 68.9954C395.667 68.3603 394.634 67.7441 393.591 67.0994C393.297 66.9383 393.174 66.578 393.306 66.2747C393.335 66.1988 393.392 66.123 393.458 66.0756C393.648 65.9523 393.894 65.9523 394.084 66.0851ZM402.255 71.4033C403.251 72.1333 404.227 72.8917 405.166 73.6501C405.431 73.8492 405.488 74.2284 405.308 74.5033C405.128 74.7403 404.777 74.7877 404.54 74.6076C404.521 74.5981 404.512 74.5791 404.493 74.5697C403.545 73.8207 402.597 73.0813 401.649 72.3608C401.374 72.1712 401.289 71.8015 401.459 71.5076C401.488 71.4602 401.526 71.4128 401.573 71.3844C401.781 71.2422 402.056 71.2517 402.255 71.4033ZM409.792 77.736C410.683 78.5797 411.565 79.4519 412.418 80.343C412.646 80.58 412.646 80.9592 412.418 81.1962C412.191 81.4237 411.821 81.4237 411.584 81.1962C410.75 80.324 409.877 79.4613 409.005 78.6366C408.759 78.4185 408.721 78.0393 408.929 77.7834L409.005 77.7075C409.233 77.5179 409.574 77.5274 409.792 77.736ZM416.513 84.9597C417.13 85.7087 417.727 86.4671 418.324 87.2444L418.798 87.8796C419.007 88.1355 418.969 88.5053 418.722 88.7138C418.457 88.8939 418.087 88.8276 417.907 88.5621L417.897 88.5527L417.423 87.927C416.845 87.1686 416.257 86.4197 415.651 85.6802C415.423 85.4432 415.423 85.0735 415.651 84.8365C415.897 84.6185 416.267 84.6374 416.485 84.8839C416.494 84.8934 416.504 84.9123 416.513 84.9218V84.9597ZM421.49 92.7333C421.775 92.5817 422.135 92.6765 422.306 92.9609C422.96 94.0037 423.604 95.0654 424.202 96.1367C424.372 96.4021 424.296 96.7623 424.022 96.933L424.012 96.9425C423.709 97.0752 423.358 96.9519 423.206 96.6675C422.6 95.6153 421.964 94.563 421.31 93.5486C421.14 93.3021 421.178 92.9609 421.415 92.7618L421.49 92.7333ZM426.297 101.265C426.61 101.152 426.96 101.303 427.093 101.607C427.614 102.716 428.126 103.844 428.591 104.972C428.724 105.256 428.6 105.598 428.316 105.73C428.307 105.73 428.297 105.74 428.297 105.74C427.975 105.835 427.643 105.664 427.52 105.351C427.065 104.242 426.572 103.133 426.05 102.052C425.918 101.806 425.974 101.502 426.192 101.332C426.221 101.284 426.249 101.237 426.297 101.199V101.265ZM429.947 110.271C430.269 110.205 430.591 110.404 430.686 110.726C431.046 111.883 431.388 113.068 431.681 114.243C431.767 114.528 431.615 114.831 431.331 114.917C431.312 114.926 431.293 114.926 431.264 114.936C430.932 114.983 430.629 114.765 430.553 114.443C430.259 113.286 429.928 112.12 429.605 110.992C429.52 110.764 429.596 110.518 429.776 110.366C429.823 110.3 429.88 110.243 429.947 110.205V110.271ZM432.222 119.609C432.554 119.6 432.847 119.846 432.895 120.178C433.084 121.363 433.236 122.567 433.359 123.761C433.397 124.055 433.189 124.321 432.895 124.359C432.876 124.359 432.857 124.359 432.838 124.359C432.506 124.359 432.222 124.093 432.193 123.761C432.07 122.595 431.928 121.42 431.738 120.254C431.7 120.055 431.776 119.846 431.937 119.723C432.013 119.638 432.108 119.571 432.222 119.543V119.609Z" fill="#455A64"/>
<path d="M442.602 270.967C440.062 269.45 436.478 269.659 432.496 271.915L360.297 313.627C352.59 318.073 346.333 328.653 346.333 337.251C346.333 341.451 347.831 344.389 350.257 345.783L358.003 350.248C360.534 351.689 364.07 351.461 367.995 349.196L440.204 307.484C447.911 303.038 454.158 292.458 454.158 283.86C454.158 279.688 452.679 276.74 450.271 275.328C448.954 274.607 443.873 271.725 442.602 270.967Z" fill="#E0E0E0"/>
<path d="M361.586 350.76C357.225 350.76 354.514 347.309 354.514 341.764C354.514 333.336 360.666 322.917 368.231 318.556L440.441 276.844C442.299 275.688 444.422 275.034 446.612 274.948C450.973 274.948 453.684 278.399 453.684 283.945C453.684 292.382 447.532 302.791 439.967 307.162L367.757 348.874C365.899 350.03 363.776 350.675 361.586 350.76Z" fill="#FAFAFA"/>
<path d="M446.612 275.385C450.679 275.385 453.248 278.655 453.248 283.917C453.248 292.202 447.2 302.431 439.768 306.669L367.559 348.381C365.776 349.499 363.729 350.125 361.624 350.22C359.794 350.277 358.05 349.49 356.884 348.087C355.538 346.238 354.865 343.982 354.988 341.697C354.988 333.421 361.036 323.192 368.469 318.945L440.678 277.233C442.46 276.115 444.508 275.489 446.612 275.394M446.612 274.446C444.337 274.531 442.128 275.214 440.204 276.418L367.995 318.13C360.287 322.585 354.04 333.156 354.04 341.754C354.04 347.774 357.102 351.234 361.624 351.234C363.89 351.149 366.099 350.466 368.033 349.272L440.242 307.56C447.949 303.114 454.196 292.534 454.196 283.936C454.196 277.916 451.134 274.456 446.612 274.446Z" fill="#EBEBEB"/>
<path d="M379.314 327.401C379.608 326.852 379.56 326.283 379.314 326.131L376.896 324.738C376.792 324.681 376.669 324.681 376.565 324.738L374.346 325.591L373.616 324.036C373.578 323.96 373.521 323.894 373.446 323.856L371.028 322.453C370.725 322.282 370.222 322.671 370.023 323.316L368.516 328.255C368.431 328.548 368.26 328.814 368.023 329.013L364.658 331.62C364.117 332.028 363.909 333.033 364.297 333.307L366.734 335.071C366.904 335.251 366.971 335.497 366.923 335.734L366.345 340.541C366.298 340.891 366.402 341.128 366.563 341.214L368.981 342.617C369.17 342.721 369.455 342.617 369.711 342.304L372.725 338.455C372.848 338.237 373.085 338.104 373.332 338.104L376.356 338.436C376.83 338.502 377.389 337.63 377.304 336.976L376.726 332.833C376.697 332.53 376.764 332.217 376.915 331.952L379.314 327.401Z" fill="#00AEEF"/>
<path opacity="0.15" d="M379.285 326.112C379.181 326.065 379.058 326.065 378.954 326.112L375.579 327.401C375.408 327.487 375.19 327.42 375.105 327.24C375.095 327.231 375.095 327.221 375.095 327.212L374.318 325.562L376.536 324.718C376.64 324.662 376.764 324.662 376.868 324.718L379.285 326.112Z" fill="white"/>
<path opacity="0.15" d="M370.905 329.639C370.82 329.932 370.649 330.198 370.412 330.397L367.047 332.994C366.895 333.118 366.772 333.269 366.686 333.45L364.269 332.046C364.354 331.876 364.478 331.715 364.629 331.591L367.995 328.994C368.232 328.804 368.402 328.539 368.488 328.245L370.905 329.639Z" fill="white"/>
<path opacity="0.1" d="M373.436 323.846C373.133 323.647 372.621 324.036 372.412 324.699L370.905 329.639L368.488 328.236L369.995 323.296C370.194 322.652 370.697 322.263 371 322.434C371.066 322.434 373.114 323.666 373.427 323.837L373.436 323.846Z" fill="black"/>
<path opacity="0.25" d="M369.123 336.455L366.724 335.071L364.288 333.307C364.004 333.099 364.041 332.53 364.288 332.065L366.705 333.469C366.459 333.924 366.421 334.502 366.705 334.71L369.123 336.455Z" fill="black"/>
<path opacity="0.15" d="M368.772 341.925C368.772 342.275 368.829 342.512 369.009 342.607L366.582 341.204C366.383 341.043 366.307 340.777 366.374 340.531L366.952 335.725C366.999 335.497 366.933 335.26 366.781 335.08L369.18 336.464C369.341 336.635 369.398 336.872 369.35 337.099L368.772 341.925Z" fill="black"/>
<path d="M373.588 324.017L375.095 327.221C375.162 327.401 375.37 327.496 375.55 327.42C375.56 327.42 375.569 327.411 375.579 327.411L378.954 326.121C379.484 325.913 379.702 326.671 379.314 327.401L376.877 331.971C376.726 332.236 376.659 332.549 376.688 332.852L377.266 336.995C377.351 337.649 376.792 338.521 376.318 338.455L373.303 338.085C373.057 338.085 372.82 338.218 372.697 338.436L369.72 342.285C369.237 342.901 368.677 342.683 368.772 341.915L369.35 337.109C369.407 336.872 369.331 336.616 369.161 336.445L366.724 334.691C366.336 334.407 366.554 333.412 367.085 332.994L370.45 330.397C370.687 330.198 370.858 329.932 370.943 329.639L372.45 324.699C372.649 323.913 373.341 323.514 373.588 324.017Z" fill="#00AEEF"/>
<path opacity="0.5" d="M373.588 324.017L375.095 327.221C375.162 327.401 375.37 327.496 375.55 327.42C375.56 327.42 375.569 327.411 375.579 327.411L378.954 326.121C379.484 325.913 379.702 326.671 379.314 327.401L376.877 331.971C376.726 332.236 376.659 332.549 376.688 332.852L377.266 336.995C377.351 337.649 376.792 338.521 376.318 338.455L373.303 338.085C373.057 338.085 372.82 338.218 372.697 338.436L369.72 342.285C369.237 342.901 368.677 342.683 368.772 341.915L369.35 337.109C369.407 336.872 369.331 336.616 369.161 336.445L366.724 334.691C366.336 334.407 366.554 333.412 367.085 332.994L370.45 330.397C370.687 330.198 370.858 329.932 370.943 329.639L372.45 324.699C372.649 323.913 373.341 323.514 373.588 324.017Z" fill="white"/>
<path d="M396.264 317.637C396.558 317.087 396.501 316.528 396.264 316.376L393.856 314.983C393.752 314.926 393.619 314.926 393.515 314.983L391.306 315.836L390.566 314.281C390.538 314.205 390.481 314.139 390.405 314.101L387.988 312.698C387.684 312.527 387.182 312.916 386.983 313.561L385.409 318.528C385.324 318.822 385.153 319.087 384.916 319.286L381.551 321.884C381.011 322.301 380.802 323.306 381.181 323.581L383.627 325.344C383.798 325.524 383.864 325.771 383.807 326.008L383.238 330.814C383.191 331.165 383.286 331.402 383.447 331.487L385.836 332.843C386.025 332.947 386.3 332.843 386.566 332.53L389.58 328.681C389.704 328.463 389.941 328.33 390.187 328.33L393.202 328.7C393.676 328.757 394.235 327.894 394.15 327.24L393.581 323.097C393.553 322.794 393.619 322.481 393.771 322.216L396.264 317.637Z" fill="#00AEEF"/>
<path opacity="0.15" d="M396.207 316.367C396.103 316.319 395.98 316.319 395.876 316.367L392.472 317.656C392.292 317.741 392.074 317.665 391.989 317.495C391.989 317.485 391.979 317.476 391.979 317.466L391.211 315.817L393.42 314.973C393.525 314.916 393.657 314.916 393.762 314.973L396.207 316.367Z" fill="white"/>
<path opacity="0.15" d="M387.827 319.884C387.742 320.177 387.571 320.443 387.334 320.642L383.94 323.268C383.788 323.391 383.665 323.543 383.58 323.723L381.181 322.32C381.276 322.149 381.399 321.988 381.551 321.865L384.917 319.267C385.154 319.068 385.324 318.803 385.409 318.509L387.827 319.884Z" fill="white"/>
<path opacity="0.1" d="M390.358 314.091C390.055 313.892 389.543 314.281 389.334 314.945L387.827 319.884L385.409 318.528L386.917 313.589C387.116 312.944 387.618 312.556 387.922 312.726C387.988 312.726 390.036 313.959 390.339 314.12L390.358 314.091Z" fill="black"/>
<path opacity="0.25" d="M386.045 326.69L383.646 325.316L381.21 323.552C380.935 323.344 380.973 322.775 381.21 322.31L383.637 323.714C383.39 324.169 383.352 324.747 383.637 324.946L386.045 326.69Z" fill="black"/>
<path opacity="0.15" d="M385.656 332.16C385.609 332.521 385.713 332.757 385.884 332.852L383.466 331.449C383.305 331.354 383.21 331.127 383.258 330.776L383.836 325.97C383.883 325.742 383.817 325.505 383.665 325.325L386.064 326.7C386.225 326.87 386.282 327.107 386.234 327.335L385.656 332.16Z" fill="black"/>
<path d="M390.5 314.262L392.008 317.466C392.084 317.646 392.292 317.741 392.472 317.665C392.482 317.665 392.491 317.656 392.501 317.656L395.876 316.367C396.406 316.158 396.624 316.916 396.236 317.637L393.799 322.216C393.648 322.481 393.581 322.794 393.61 323.097L394.179 327.24C394.273 327.894 393.714 328.757 393.231 328.7L390.216 328.33C389.969 328.33 389.733 328.463 389.609 328.681L386.595 332.53C386.111 333.146 385.552 332.928 385.647 332.16L386.225 327.354C386.272 327.117 386.206 326.87 386.035 326.69L383.599 324.937C383.21 324.652 383.419 323.657 383.959 323.24L387.325 320.642C387.562 320.443 387.732 320.178 387.818 319.884L389.325 314.945C389.571 314.158 390.263 313.788 390.5 314.262Z" fill="#00AEEF"/>
<path opacity="0.5" d="M390.5 314.262L392.008 317.466C392.084 317.646 392.292 317.741 392.472 317.665C392.482 317.665 392.491 317.656 392.501 317.656L395.876 316.367C396.406 316.158 396.624 316.916 396.236 317.637L393.799 322.216C393.648 322.481 393.581 322.794 393.61 323.097L394.179 327.24C394.273 327.894 393.714 328.757 393.231 328.7L390.216 328.33C389.969 328.33 389.733 328.463 389.609 328.681L386.595 332.53C386.111 333.146 385.552 332.928 385.647 332.16L386.225 327.354C386.272 327.117 386.206 326.87 386.035 326.69L383.599 324.937C383.21 324.652 383.419 323.657 383.959 323.24L387.325 320.642C387.562 320.443 387.732 320.178 387.818 319.884L389.325 314.945C389.571 314.158 390.263 313.788 390.5 314.262Z" fill="white"/>
<path d="M413.158 307.882C413.442 307.332 413.395 306.773 413.158 306.621L410.712 305.256C410.607 305.209 410.475 305.209 410.37 305.256L408.152 306.109L407.422 304.555C407.394 304.479 407.337 304.412 407.261 304.374L404.844 302.971C404.54 302.801 404.028 303.189 403.839 303.834L402.331 308.773C402.246 309.067 402.075 309.332 401.838 309.532L398.464 312.129C397.933 312.546 397.715 313.542 398.103 313.826L400.54 315.589C400.72 315.76 400.786 316.016 400.729 316.253L400.151 321.059C400.151 321.41 400.208 321.638 400.369 321.732L402.786 323.135C402.985 323.24 403.26 323.135 403.526 322.823L406.531 318.974C406.664 318.756 406.891 318.623 407.147 318.623L410.152 318.993C410.636 319.049 411.195 318.187 411.1 317.533L410.532 313.39C410.503 313.087 410.56 312.774 410.712 312.508L413.158 307.882Z" fill="#00AEEF"/>
<path opacity="0.15" d="M413.129 306.612C413.025 306.564 412.892 306.564 412.788 306.612L409.422 307.901C409.242 307.986 409.024 307.91 408.939 307.74C408.939 307.73 408.929 307.721 408.929 307.711L408.152 306.062L410.37 305.218C410.475 305.161 410.598 305.161 410.702 305.218L413.129 306.612Z" fill="white"/>
<path opacity="0.15" d="M404.796 310.119C404.711 310.413 404.54 310.688 404.303 310.887L400.938 313.485C400.786 313.608 400.653 313.76 400.568 313.94L398.15 312.537C398.245 312.366 398.368 312.205 398.52 312.082L401.886 309.484C402.123 309.285 402.293 309.02 402.378 308.726L404.796 310.119Z" fill="white"/>
<path opacity="0.1" d="M407.28 304.308C406.976 304.109 406.455 304.498 406.256 305.152L404.796 310.119L402.379 308.726L403.886 303.787C404.085 303.142 404.587 302.753 404.891 302.924C404.957 302.924 406.995 304.156 407.308 304.317L407.28 304.308Z" fill="black"/>
<path opacity="0.25" d="M402.957 316.935L400.568 315.561L398.103 313.788C397.828 313.579 397.857 313.011 398.103 312.546L400.521 313.949C400.284 314.404 400.246 314.982 400.521 315.182L402.957 316.935Z" fill="black"/>
<path opacity="0.15" d="M402.578 322.405C402.53 322.766 402.635 323.003 402.805 323.097L400.388 321.694C400.227 321.6 400.132 321.372 400.17 321.021L400.748 316.205C400.795 315.978 400.739 315.741 400.587 315.57L402.976 316.945C403.127 317.115 403.194 317.352 403.146 317.58L402.578 322.405Z" fill="black"/>
<path d="M407.422 304.507L408.93 307.711C409.005 307.892 409.214 307.986 409.394 307.91C409.404 307.91 409.413 307.901 409.422 307.901L412.788 306.612C413.328 306.403 413.537 307.162 413.158 307.882L410.712 312.461C410.56 312.726 410.503 313.039 410.532 313.343L411.1 317.485C411.195 318.139 410.636 319.002 410.152 318.945L407.147 318.575C406.891 318.575 406.664 318.708 406.531 318.926L403.526 322.775C403.042 323.391 402.483 323.173 402.578 322.405L403.147 317.599C403.204 317.362 403.137 317.116 402.967 316.935L400.521 315.172C400.142 314.897 400.35 313.892 400.891 313.485L404.256 310.887C404.493 310.688 404.664 310.423 404.749 310.129L406.256 305.19C406.493 304.403 407.185 304.005 407.422 304.507Z" fill="#00AEEF"/>
<path opacity="0.5" d="M407.422 304.507L408.93 307.711C409.005 307.892 409.214 307.986 409.394 307.91C409.404 307.91 409.413 307.901 409.422 307.901L412.788 306.612C413.328 306.403 413.537 307.162 413.158 307.882L410.712 312.461C410.56 312.726 410.503 313.039 410.532 313.343L411.1 317.485C411.195 318.139 410.636 319.002 410.152 318.945L407.147 318.575C406.891 318.575 406.664 318.708 406.531 318.926L403.526 322.775C403.042 323.391 402.483 323.173 402.578 322.405L403.147 317.599C403.204 317.362 403.137 317.116 402.967 316.935L400.521 315.172C400.142 314.897 400.35 313.892 400.891 313.485L404.256 310.887C404.493 310.688 404.664 310.423 404.749 310.129L406.256 305.19C406.493 304.403 407.185 304.005 407.422 304.507Z" fill="white"/>
<path d="M430.07 298.127C430.364 297.577 430.316 297.018 430.07 296.866L427.662 295.463C427.558 295.416 427.425 295.416 427.321 295.463L425.102 296.316L424.372 294.762C424.344 294.686 424.287 294.62 424.211 294.572C423.908 294.411 421.86 293.216 421.794 293.179C421.49 293.008 420.978 293.397 420.779 294.041L419.272 298.98C419.187 299.274 419.026 299.54 418.789 299.739L415.414 302.336C414.883 302.753 414.665 303.749 415.053 304.033L417.49 305.796C417.66 305.967 417.736 306.214 417.679 306.451L417.101 311.257C417.101 311.608 417.158 311.845 417.319 311.939L419.737 313.343C419.926 313.447 420.211 313.343 420.467 313.03L423.481 309.181C423.604 308.963 423.841 308.83 424.088 308.83L427.103 309.2C427.586 309.257 428.145 308.394 428.051 307.74L427.472 303.597C427.453 303.294 427.52 302.981 427.662 302.715L430.07 298.127Z" fill="#00AEEF"/>
<path opacity="0.15" d="M430.041 296.857C429.937 296.809 429.814 296.809 429.71 296.857L426.335 298.146C426.164 298.231 425.946 298.165 425.861 297.985C425.851 297.975 425.851 297.966 425.851 297.956L425.074 296.307L427.292 295.463C427.397 295.406 427.52 295.406 427.624 295.463L430.041 296.857Z" fill="white"/>
<path opacity="0.15" d="M421.67 300.364C421.585 300.658 421.414 300.933 421.177 301.132L417.812 303.73C417.66 303.853 417.528 304.005 417.442 304.185L415.025 302.782C415.11 302.611 415.233 302.45 415.385 302.327L418.751 299.729C418.988 299.53 419.168 299.265 419.253 298.971L421.67 300.364Z" fill="white"/>
<path opacity="0.1" d="M424.201 294.582C423.898 294.382 423.377 294.771 423.178 295.425L421.67 300.364L419.253 298.971L420.76 294.032C420.95 293.387 421.462 292.998 421.765 293.169C421.831 293.169 423.87 294.401 424.183 294.563L424.201 294.582Z" fill="black"/>
<path opacity="0.25" d="M419.879 307.152L417.49 305.777L415.053 304.014C414.769 303.806 414.807 303.237 415.053 302.772L417.471 304.175C417.224 304.63 417.196 305.209 417.471 305.408L419.879 307.152Z" fill="black"/>
<path opacity="0.15" d="M419.49 312.65C419.49 313.011 419.557 313.248 419.727 313.342L417.291 311.892C417.13 311.797 417.035 311.57 417.073 311.219L417.651 306.403C417.698 306.176 417.642 305.948 417.49 305.768L419.879 307.143C420.031 307.313 420.087 307.55 420.04 307.778L419.49 312.65Z" fill="black"/>
<path d="M424.344 294.752L425.851 297.956C425.927 298.137 426.136 298.231 426.316 298.156C426.325 298.156 426.335 298.146 426.344 298.146L429.709 296.857C430.25 296.648 430.458 297.407 430.07 298.127L427.633 302.706C427.491 302.971 427.425 303.284 427.444 303.588L428.022 307.73C428.117 308.384 427.558 309.247 427.074 309.19L424.059 308.821C423.813 308.821 423.576 308.953 423.453 309.171L420.438 313.02C419.964 313.636 419.405 313.418 419.49 312.65L420.068 307.844C420.125 307.607 420.059 307.351 419.879 307.18L417.442 305.417C417.054 305.142 417.272 304.137 417.803 303.73L421.177 301.132C421.414 300.933 421.585 300.668 421.67 300.374L423.178 295.425C423.415 294.648 424.107 294.25 424.344 294.752Z" fill="#00AEEF"/>
<path opacity="0.5" d="M424.344 294.752L425.851 297.956C425.927 298.137 426.136 298.231 426.316 298.156C426.325 298.156 426.335 298.146 426.344 298.146L429.709 296.857C430.25 296.648 430.458 297.407 430.07 298.127L427.633 302.706C427.491 302.971 427.425 303.284 427.444 303.588L428.022 307.73C428.117 308.384 427.558 309.247 427.074 309.19L424.059 308.821C423.813 308.821 423.576 308.953 423.453 309.171L420.438 313.02C419.964 313.636 419.405 313.418 419.49 312.65L420.068 307.844C420.125 307.607 420.059 307.351 419.879 307.18L417.442 305.417C417.054 305.142 417.272 304.137 417.803 303.73L421.177 301.132C421.414 300.933 421.585 300.668 421.67 300.374L423.178 295.425C423.415 294.648 424.107 294.25 424.344 294.752Z" fill="white"/>
<path d="M446.992 288.372C447.286 287.822 447.238 287.263 446.992 287.102L444.574 285.708C444.47 285.661 444.347 285.661 444.243 285.708L442.024 286.561L441.294 285.007C441.256 284.931 441.199 284.865 441.133 284.817C440.82 284.656 438.773 283.461 438.716 283.424C438.403 283.253 437.9 283.632 437.701 284.286L436.194 289.225C436.109 289.519 435.938 289.785 435.701 289.984L432.288 292.572C431.748 292.989 431.539 293.984 431.928 294.269L434.364 296.032C434.535 296.203 434.611 296.449 434.554 296.686L433.995 301.464C433.995 301.815 434.052 302.052 434.213 302.147L436.63 303.55C436.82 303.654 437.104 303.55 437.36 303.237L440.375 299.388C440.498 299.17 440.735 299.037 440.981 299.037L443.996 299.407C444.47 299.464 445.029 298.601 444.944 297.947L444.366 293.804C444.337 293.501 444.404 293.188 444.555 292.923L446.992 288.372Z" fill="#00AEEF"/>
<path opacity="0.15" d="M446.963 287.102C446.859 287.045 446.735 287.045 446.631 287.102L443.256 288.391C443.086 288.476 442.868 288.41 442.782 288.23C442.773 288.22 442.773 288.211 442.773 288.201L441.995 286.552L444.214 285.699C444.318 285.642 444.441 285.642 444.545 285.699L446.963 287.102Z" fill="white"/>
<path opacity="0.15" d="M438.592 290.609C438.507 290.913 438.327 291.178 438.09 291.377L434.724 293.975C434.573 294.098 434.449 294.25 434.364 294.43L431.947 293.027C432.032 292.856 432.155 292.695 432.307 292.572L435.672 289.974C435.909 289.775 436.08 289.51 436.165 289.216L438.592 290.609Z" fill="white"/>
<path opacity="0.1" d="M441.123 284.817C440.82 284.628 440.299 285.016 440.099 285.67L438.592 290.609L436.165 289.216L437.673 284.277C437.872 283.632 438.384 283.243 438.687 283.414C438.753 283.414 440.792 284.646 441.104 284.808L441.123 284.817Z" fill="black"/>
<path opacity="0.25" d="M436.8 297.425L434.402 296.051L431.965 294.288C431.681 294.079 431.719 293.51 431.965 293.046L434.383 294.449C434.136 294.904 434.098 295.482 434.383 295.681L436.8 297.425Z" fill="black"/>
<path opacity="0.15" d="M436.412 302.896C436.412 303.256 436.469 303.493 436.649 303.578L434.184 302.175C434.023 302.08 433.928 301.853 433.966 301.492L434.544 296.686C434.592 296.459 434.525 296.222 434.374 296.051L436.772 297.426C436.924 297.596 436.981 297.833 436.933 298.061L436.412 302.896Z" fill="black"/>
<path d="M441.265 284.997L442.773 288.201C442.849 288.382 443.057 288.476 443.237 288.401C443.247 288.401 443.256 288.391 443.266 288.391L446.631 287.102C447.162 286.893 447.38 287.652 446.991 288.372L444.555 292.932C444.403 293.197 444.337 293.51 444.365 293.814L444.944 297.956C445.029 298.61 444.47 299.473 443.996 299.416L440.981 299.047C440.735 299.047 440.498 299.179 440.374 299.397L437.36 303.246C436.886 303.862 436.326 303.635 436.412 302.876L436.99 298.07C437.047 297.833 436.971 297.577 436.8 297.407L434.364 295.643C433.975 295.368 434.193 294.363 434.724 293.956L438.099 291.358C438.327 291.159 438.497 290.894 438.583 290.6L440.09 285.651C440.336 284.893 441.028 284.485 441.265 284.997Z" fill="#00AEEF"/>
<path opacity="0.5" d="M441.265 284.997L442.773 288.201C442.849 288.382 443.057 288.476 443.237 288.401C443.247 288.401 443.256 288.391 443.266 288.391L446.631 287.102C447.162 286.893 447.38 287.652 446.991 288.372L444.555 292.932C444.403 293.197 444.337 293.51 444.365 293.814L444.944 297.956C445.029 298.61 444.47 299.473 443.996 299.416L440.981 299.047C440.735 299.047 440.498 299.179 440.374 299.397L437.36 303.246C436.886 303.862 436.326 303.635 436.412 302.876L436.99 298.07C437.047 297.833 436.971 297.577 436.8 297.407L434.364 295.643C433.975 295.368 434.193 294.363 434.724 293.956L438.099 291.358C438.327 291.159 438.497 290.894 438.583 290.6L440.09 285.651C440.336 284.893 441.028 284.485 441.265 284.997Z" fill="white"/>
<path d="M453.448 54.036L445.864 57.2876L444.243 65.374C444.1 66.0376 443.456 66.4548 442.792 66.322C442.536 66.2652 442.299 66.1325 442.129 65.9334L436.696 59.724L428.496 60.672C427.833 60.7762 427.216 60.3212 427.112 59.6576C427.065 59.3448 427.141 59.0319 427.321 58.776L431.539 51.6944L428.108 44.1957C427.852 43.5795 428.146 42.8685 428.762 42.6126C428.98 42.5272 429.217 42.4988 429.444 42.5367L437.483 44.3664L443.551 38.7826C444.043 38.3276 444.811 38.3466 445.266 38.8395C445.456 39.0386 445.57 39.2946 445.589 39.5695L446.338 47.7792L453.523 51.8176C454.13 52.1115 454.377 52.832 454.092 53.4387C453.96 53.7136 453.732 53.9222 453.448 54.036Z" fill="#E0E0E0"/>
<path d="M411.65 39.9866C411.584 40.072 411.508 40.1478 411.413 40.2142C411.081 40.4512 410.655 40.4796 410.294 40.29L406.076 38.0717L401.848 40.29C401.488 40.4796 401.061 40.4512 400.729 40.2142C400.397 39.9772 400.236 39.5695 400.312 39.1714L401.118 34.4314L397.696 31.1039C397.402 30.8195 397.297 30.4024 397.43 30.0137C397.553 29.625 397.885 29.3501 398.283 29.2932L403.023 28.6106L405.137 24.3257C405.317 23.9654 405.687 23.7379 406.085 23.7379C406.483 23.7379 406.853 23.9654 407.033 24.3257L409.147 28.6106L413.887 29.2932C414.466 29.3785 414.873 29.9189 414.788 30.4972C414.75 30.7247 414.646 30.9427 414.475 31.1039L411.053 34.4314L411.868 39.1714C411.906 39.4652 411.83 39.7496 411.65 39.9866ZM398.16 30.1369L398.103 30.2602C398.056 30.4024 398.094 30.5635 398.207 30.6678L401.867 34.2418L401.004 39.2851C400.966 39.5032 401.118 39.7117 401.345 39.7496C401.431 39.7591 401.516 39.7496 401.592 39.7117L406.123 37.3322L410.645 39.7117C410.778 39.7876 410.939 39.7876 411.072 39.7117C411.205 39.6264 411.261 39.4652 411.233 39.3136L410.37 34.2702L414.03 30.6962C414.134 30.592 414.181 30.4308 414.134 30.2886C414.086 30.1369 413.963 30.0326 413.812 30.0137L408.74 29.2742L406.427 24.648C406.36 24.5058 406.218 24.4205 406.066 24.4205C405.924 24.4394 405.801 24.5248 405.744 24.648L403.488 29.2363L398.416 29.9758C398.312 29.9947 398.226 30.0516 398.16 30.1369Z" fill="#E0E0E0"/>
<path d="M358.856 103.332C351.717 99.1987 341.906 99.7581 331.06 106.015C309.256 118.623 291.538 149.5 291.538 174.991C291.538 187.818 296.032 196.795 303.265 200.995C304.943 201.943 311.503 205.735 311.503 205.735C310.878 211.594 307.446 216.77 302.298 219.633C301.881 219.87 302.137 220.277 302.507 220.486L312.527 226.278C312.66 226.354 312.811 226.401 312.973 226.411C322.841 226.411 334.265 219.775 337.45 205.991C338.644 205.422 339.848 204.806 341.071 204.095C362.875 191.496 380.593 160.61 380.593 135.128C380.593 122.292 376.109 113.324 368.876 109.096L358.856 103.332Z" fill="#37474F"/>
<path d="M341.071 111.798C319.267 124.397 301.549 155.282 301.549 180.765C301.549 198.066 309.693 208.418 321.751 209.366C321.296 214.864 319.694 221.045 312.271 225.415C311.683 225.766 312.451 226.42 312.944 226.42C322.813 226.42 334.236 219.784 337.422 206C338.616 205.432 339.82 204.815 341.043 204.104C362.847 191.505 380.565 160.62 380.565 135.137C380.565 109.655 362.894 99.1987 341.071 111.798Z" fill="#455A64"/>
<path d="M312.3 225.415C311.939 225.643 312.101 225.975 312.404 226.202L302.507 220.514C302.137 220.287 301.881 219.898 302.298 219.652C307.455 216.789 310.897 211.584 311.503 205.716L312.593 206.361L313.598 206.948C316.111 208.332 318.888 209.148 321.751 209.337C321.306 214.864 319.694 221.045 312.3 225.415Z" fill="#263238"/>
<path d="M336.9 184.756C335.848 184.007 335.317 182.661 335.317 180.717C335.336 178.689 335.876 176.707 336.872 174.944C337.782 173.181 339.157 171.711 340.853 170.687C342.465 169.758 343.792 169.645 344.826 170.356C345.859 171.057 346.38 172.384 346.38 174.328C346.352 176.385 345.802 178.404 344.797 180.205C343.915 181.988 342.55 183.476 340.853 184.519C339.28 185.419 337.962 185.505 336.9 184.756ZM335.488 133.222L346.21 127.032L344.418 163.17L337.28 167.294L335.488 133.222Z" fill="#FAFAFA"/>
<path opacity="0.2" d="M346.342 200.644C357.984 192.112 368.023 178.584 374.166 164.061C362.525 172.602 352.485 186.121 346.342 200.644Z" fill="black"/>
<path d="M420.779 250.035C416.741 250.082 413.736 247.257 411.849 243.702C423.946 228.828 432.127 209.015 432.127 191.686C432.127 178.84 427.624 169.815 420.372 165.644L410.37 159.88C403.232 155.756 393.43 156.325 382.594 162.572C360.79 175.181 343.072 206.057 343.072 231.549C343.072 244.375 347.556 253.353 354.789 257.572C356.476 258.52 363.122 262.368 364.762 263.326C371.91 267.488 381.741 266.938 392.605 260.662C395.515 258.965 398.274 257.031 400.862 254.879C408.199 260.69 417.148 254.358 420.694 251.324C421.168 250.926 421.225 250.035 420.779 250.035Z" fill="#E0E0E0"/>
<path d="M375.114 265.44C361.899 265.44 353.699 254.68 353.699 237.37C353.699 212.115 371.294 181.438 392.908 168.934C398.956 165.445 404.739 163.672 410.095 163.672C423.301 163.672 431.511 174.422 431.511 191.742C431.511 208.304 423.794 228.089 411.375 243.361L411.119 243.683L411.309 244.044C413.536 248.243 416.769 250.594 420.428 250.68C420.4 250.755 420.353 250.831 420.296 250.888C417.774 253.05 412.769 256.661 407.583 256.661C405.27 256.671 403.033 255.884 401.241 254.424L400.852 254.121L400.464 254.434C397.904 256.548 395.164 258.453 392.292 260.122C386.253 263.62 380.47 265.44 375.114 265.44Z" fill="#FAFAFA"/>
<path d="M410.095 163.056V164.288C422.922 164.288 430.894 174.811 430.894 191.733C430.894 208.171 423.235 227.804 410.901 242.972L410.38 243.608L410.768 244.328C412.816 248.196 415.698 250.575 419.007 251.173C416.381 253.268 412.029 256.064 407.583 256.064C405.412 256.074 403.308 255.334 401.62 253.96L400.843 253.344L400.075 253.979C397.544 256.093 394.833 257.998 391.989 259.667C386.035 263.098 380.357 264.843 375.114 264.843C362.288 264.843 354.315 254.32 354.315 237.351C354.315 212.295 371.768 181.836 393.183 169.446C399.136 166.014 404.815 164.269 410.057 164.269V163.056M410.057 163.056C404.787 163.056 398.852 164.772 392.567 168.403C370.763 181.002 353.045 211.878 353.045 237.37C353.045 255.524 362.022 266.056 375.076 266.056C380.347 266.056 386.282 264.34 392.567 260.71C395.477 259.013 398.236 257.079 400.824 254.927C402.72 256.472 405.099 257.316 407.545 257.297C412.968 257.297 418.153 253.505 420.656 251.372C421.13 250.974 421.187 250.082 420.741 250.082H420.647C416.665 250.082 413.688 247.286 411.811 243.75C423.908 228.876 432.089 209.062 432.089 191.733C432.089 173.579 423.111 163.056 410.057 163.056Z" fill="#00AEEF"/>
<path d="M390.576 218.846C391.723 216.087 393.05 213.404 394.529 210.807C395.553 209.025 396.482 207.195 397.316 205.318C397.895 204.029 398.198 202.645 398.217 201.232C398.217 199.336 397.648 198.17 396.511 197.715C395.373 197.26 393.875 197.592 391.989 198.663C390.121 199.753 388.491 201.204 387.182 202.929C385.722 204.834 384.528 206.939 383.637 209.167L376.669 207.735C378.224 203.621 380.433 199.782 383.21 196.359C385.921 193.003 389.239 190.178 392.975 188.026C397.402 185.495 400.938 184.708 403.602 185.656C406.266 186.604 407.593 189.316 407.602 193.79C407.612 195.809 407.356 197.819 406.825 199.772C406.36 201.535 405.725 203.251 404.929 204.901C404.18 206.436 403.203 208.266 402.018 210.39C400.871 212.352 399.829 214.371 398.909 216.447C398.274 217.945 397.952 219.557 397.961 221.187L389.268 226.212C389.23 223.7 389.676 221.197 390.576 218.846ZM389.628 243.238C388.576 242.489 388.045 241.143 388.045 239.19C388.064 237.161 388.604 235.18 389.6 233.417C390.5 231.653 391.875 230.184 393.572 229.16C395.193 228.212 396.511 228.117 397.553 228.828C398.596 229.539 399.108 230.866 399.108 232.81C399.08 234.867 398.53 236.886 397.525 238.678C396.643 240.46 395.269 241.958 393.572 242.991C392.046 243.901 390.737 243.977 389.676 243.238H389.628Z" fill="#455A64"/>
<path d="M190.339 175.664L146.731 200.919L164.051 230.364C164.383 231.16 164.971 231.824 165.71 232.26C167.777 233.426 180.016 240.517 180.689 240.906C182.604 242.015 185.059 241.351 186.168 239.436C186.329 239.161 186.453 238.877 186.538 238.574L205.346 184.367L190.339 175.664Z" fill="#00AEEF"/>
<path opacity="0.2" d="M190.339 175.664L146.731 200.919L164.051 230.364C164.383 231.16 164.971 231.824 165.71 232.26C167.777 233.426 180.016 240.517 180.689 240.906C182.604 242.015 185.059 241.351 186.168 239.436C186.329 239.161 186.453 238.877 186.538 238.574L205.346 184.367L190.339 175.664Z" fill="black"/>
<path d="M161.738 209.584L179.058 239.029C179.949 241.048 182.31 241.958 184.319 241.067C185.391 240.593 186.206 239.664 186.538 238.536L205.346 184.329L161.738 209.584Z" fill="#00AEEF"/>
<path d="M238.991 24.648L74.5413 119.571C72.304 121.022 70.8915 123.449 70.7493 126.112V240.242C70.8915 242.897 72.304 245.314 74.5413 246.745L88.0692 254.329C90.4582 255.533 93.2643 255.533 95.6532 254.329L260.112 159.349C262.35 157.899 263.753 155.472 263.904 152.808V38.6784C263.762 36.024 262.35 33.6066 260.112 32.1751L246.594 24.5911C244.195 23.4061 241.37 23.4251 238.991 24.648Z" fill="#00AEEF"/>
<path opacity="0.3" d="M263.838 37.9864C263.534 36.0904 261.989 35.4078 260.103 36.4885L95.6626 131.44C94.5439 132.142 93.6244 133.118 92.9987 134.284L71.9436 122.292C72.5788 121.202 73.4699 120.273 74.5411 119.609L239 24.648C241.389 23.4535 244.195 23.4535 246.584 24.648L260.103 32.232C262.112 33.5213 263.478 35.6164 263.838 37.9864Z" fill="white"/>
<path d="M91.8801 252.547V138.408C92.0223 135.754 93.4348 133.317 95.6721 131.876L260.112 36.972C262.188 35.768 263.904 36.7445 263.904 39.1524V153.244C263.753 155.908 262.35 158.335 260.112 159.785L95.6532 254.728C93.5676 255.96 91.8801 254.955 91.8801 252.547Z" fill="#00AEEF"/>
<path opacity="0.2" d="M95.653 254.292C93.2641 255.458 90.458 255.458 88.069 254.292L74.5505 246.707C72.3133 245.285 70.9007 242.868 70.7585 240.223V126.084C70.8249 124.738 71.242 123.43 71.9625 122.292L92.9986 134.265C92.3066 135.384 91.9179 136.664 91.88 137.972V252.102C91.88 254.31 93.4347 255.581 95.653 254.292Z" fill="black"/>
<path d="M138.019 161.16L136.379 160.212C135.1 159.482 133.535 159.482 132.256 160.212L122.235 165.995V152.306L140.788 141.603C142.551 140.56 143.641 138.655 143.632 136.607V128.928C143.641 126.88 142.551 124.975 140.788 123.932C139.005 122.899 136.796 122.899 135.014 123.932L109.286 138.787C106.186 140.579 104.28 143.887 104.28 147.461V218.742C104.271 220.799 105.351 222.704 107.124 223.747C108.906 224.78 111.115 224.78 112.897 223.747L119.315 220.05C121.088 219.007 122.169 217.102 122.159 215.044V187.078L137.953 177.959C139.223 177.219 140.01 175.854 140.01 174.385V164.753C140.039 163.284 139.28 161.918 138.019 161.16Z" fill="#E0E0E0"/>
<path opacity="0.1" d="M113.485 223.406L112.935 223.728C110.167 225.321 106.631 224.363 105.038 221.595C104.536 220.723 104.271 219.737 104.271 218.732V147.452C104.271 145.793 104.688 144.172 105.474 142.712L111.248 146.039C110.461 147.49 110.044 149.12 110.044 150.779V221.396C110.053 222.676 111.087 223.709 112.366 223.7C112.755 223.7 113.144 223.595 113.485 223.406Z" fill="black"/>
<path d="M122.235 152.306V172.669L138 163.577C138.664 163.189 139.508 163.407 139.896 164.07C140.02 164.288 140.086 164.535 140.086 164.781V174.432C140.086 175.901 139.309 177.248 138.038 177.987L122.235 187.107V215.063C122.245 217.111 121.164 219.016 119.391 220.05L113.552 223.425C112.452 224.06 111.039 223.69 110.404 222.59C110.196 222.24 110.091 221.832 110.091 221.424V150.779C110.091 147.205 111.997 143.897 115.097 142.105L140.579 127.392C141.574 126.814 142.854 127.155 143.432 128.16C143.613 128.482 143.717 128.843 143.707 129.203V136.626C143.717 138.673 142.627 140.56 140.863 141.593L122.235 152.306Z" fill="#FAFAFA"/>
<path d="M177.276 109.248C176.205 105.636 172.413 103.569 168.801 104.631C168.289 104.782 167.787 104.991 167.322 105.266L160.942 108.954C159.283 109.911 158.098 111.523 157.69 113.4L138.664 200.028C138.361 201.526 139.043 203.052 140.361 203.82L142.105 204.825C143.205 205.46 144.561 205.46 145.66 204.825L153.349 200.388C154.42 199.734 155.292 198.796 155.87 197.686C156.515 196.568 156.998 195.345 157.283 194.084L160.373 178.29L175.921 169.313L177.532 175.731C177.76 176.565 178.281 177.295 179.002 177.778C179.646 178.158 184.13 180.727 184.775 181.115C185.619 181.476 186.604 181.343 187.325 180.774L196.71 175.352L177.276 109.248ZM164.639 156.486L167.967 139.356L168.166 138.408L171.692 152.41L164.639 156.486Z" fill="#E0E0E0"/>
<path opacity="0.1" d="M184.699 181.068C183.855 180.566 179.627 178.148 179.011 177.778C178.29 177.295 177.769 176.565 177.541 175.731L175.93 169.313L180.234 166.829L183.315 179.058C183.542 179.864 184.026 180.566 184.699 181.068Z" fill="black"/>
<path opacity="0.1" d="M177.465 155.737L171.692 152.401L168.166 138.408C168.166 138.408 168.166 138.408 168.166 138.351C168.469 136.986 168.772 135.431 169.114 133.706C169.521 131.554 169.9 129.26 170.261 126.805C170.668 128.776 171.076 130.597 171.484 132.256C171.891 133.915 172.27 135.337 172.631 136.531L177.465 155.737Z" fill="black"/>
<path opacity="0.1" d="M144.542 202.872C144.381 203.593 144.836 204.322 145.556 204.484C145.774 204.531 146.002 204.531 146.22 204.465V204.541L145.679 204.844C144.58 205.479 143.224 205.479 142.124 204.844L140.361 203.82C139.043 203.052 138.361 201.526 138.664 200.028L157.681 113.438C157.852 112.641 158.174 111.874 158.629 111.191L164.402 114.528C163.947 115.201 163.625 115.969 163.454 116.765L144.542 202.872Z" fill="black"/>
<path d="M196.72 175.38L187.325 180.803C186.273 181.409 185.429 181.523 184.784 181.144C184.064 180.66 183.542 179.93 183.315 179.096L180.234 166.848L160.326 178.309L157.245 194.103C156.951 195.373 156.467 196.587 155.823 197.715C155.245 198.824 154.372 199.763 153.301 200.407L146.504 204.341C145.85 204.711 145.016 204.484 144.646 203.829C144.485 203.536 144.428 203.204 144.494 202.872L163.407 116.737C163.814 114.869 164.999 113.258 166.658 112.3L172.792 108.755C174.385 107.835 176.423 108.385 177.333 109.977C177.466 110.205 177.57 110.451 177.646 110.698L196.72 175.38ZM177.466 155.756L172.631 136.512C172.271 135.327 171.891 133.896 171.484 132.237C171.076 130.578 170.669 128.757 170.261 126.786C169.91 129.241 169.521 131.526 169.123 133.687C168.725 135.848 168.327 137.706 167.967 139.318L163.17 163.966L177.466 155.756Z" fill="#FAFAFA"/>
<path d="M241.655 142.2C243.314 139.356 244.764 136.398 246.006 133.346C247.286 130.198 248.366 126.975 249.229 123.695C250.101 120.377 250.765 117.012 251.22 113.608C251.684 110.177 251.921 106.716 251.921 103.247C252.026 98.1559 251.372 93.0652 249.988 88.164C249.002 84.4763 247.115 81.0919 244.489 78.3238C243.664 77.5369 242.735 76.8544 241.74 76.295L236.052 72.996C234.251 71.9532 232.222 71.356 230.146 71.2612C226.809 71.0716 223.112 72.1523 219.054 74.4938C214.807 76.9871 211.044 80.2198 207.944 84.0497C204.521 88.2019 201.649 92.7713 199.374 97.644C194.492 108.157 191.941 119.609 191.904 131.203C191.809 136.303 192.463 141.394 193.856 146.305C194.842 150.002 196.738 153.396 199.374 156.164C200.199 156.979 201.128 157.681 202.132 158.25C203.08 158.781 206.825 160.961 207.754 161.501C209.574 162.554 211.631 163.151 213.736 163.236C217.073 163.397 220.78 162.307 224.847 159.966C226.581 158.97 228.221 157.823 229.767 156.553L232.118 159.255C232.44 159.586 232.8 159.871 233.198 160.098C233.862 160.487 238.583 163.198 238.943 163.416C239.578 163.805 240.318 163.985 241.057 163.928C242.432 163.767 243.75 163.293 244.916 162.554L254.879 156.809L241.655 142.2ZM232.762 118.405C232.156 121.752 231.189 125.022 229.871 128.151C228.714 130.928 227.169 133.526 225.273 135.858C223.548 137.991 221.443 139.792 219.073 141.176C217.338 142.304 215.338 142.958 213.271 143.072C212.229 141.385 211.489 139.536 211.082 137.602C210.352 134.256 210.02 130.833 210.077 127.402C210.058 123.61 210.399 119.818 211.082 116.083C211.669 112.736 212.627 109.475 213.926 106.337C215.092 103.55 216.646 100.943 218.552 98.592C220.296 96.4306 222.41 94.6104 224.809 93.2074C226.515 92.1172 228.477 91.4915 230.497 91.3872C231.549 93.0841 232.298 94.9517 232.715 96.9046C233.454 100.26 233.815 103.692 233.767 107.124C233.777 110.916 233.445 114.708 232.762 118.443V118.405Z" fill="#E0E0E0"/>
<path opacity="0.1" d="M207.517 161.397C206.313 160.705 203.005 158.781 202.132 158.288C201.128 157.719 200.199 157.017 199.374 156.202C196.738 153.434 194.842 150.04 193.856 146.343C192.463 141.432 191.809 136.341 191.904 131.241C191.904 125.401 192.558 119.581 193.856 113.893C195.013 108.707 196.691 103.654 198.862 98.8101L204.635 102.147C200.075 112.366 197.705 123.43 197.677 134.616C197.582 139.716 198.236 144.798 199.63 149.708C200.616 153.405 202.512 156.799 205.147 159.577C205.868 160.269 206.664 160.876 207.517 161.397Z" fill="black"/>
<path opacity="0.1" d="M235.645 93.852C234.516 92.4395 232.848 91.5579 231.047 91.4346C230.886 91.4346 230.715 91.4346 230.554 91.4346C231.597 93.1316 232.345 94.9896 232.763 96.9425C233.483 100.289 233.824 103.702 233.767 107.124C233.786 110.935 233.445 114.746 232.763 118.5C232.156 121.846 231.189 125.117 229.871 128.245C228.715 131.023 227.169 133.621 225.273 135.953C223.548 138.086 221.443 139.887 219.073 141.271C217.339 142.399 215.338 143.053 213.272 143.167C213.48 143.499 213.708 143.821 213.964 144.115C215.092 145.537 216.779 146.409 218.59 146.494C220.818 146.485 222.989 145.821 224.847 144.598C227.217 143.214 229.321 141.413 231.047 139.28C232.933 136.939 234.488 134.351 235.645 131.573C236.962 128.435 237.929 125.164 238.536 121.818C239.218 118.064 239.56 114.253 239.541 110.442C239.598 107.029 239.256 103.626 238.536 100.289C238.081 97.9474 237.095 95.748 235.645 93.852Z" fill="black"/>
<path opacity="0.1" d="M231.407 155.169C230.867 155.662 230.326 156.117 229.767 156.591L232.118 159.292C232.44 159.624 232.8 159.909 233.199 160.136C233.843 160.515 238.289 163.066 238.887 163.426C238.517 163.198 238.185 162.933 237.882 162.62L231.407 155.169Z" fill="black"/>
<path d="M254.879 156.847L244.916 162.601C243.75 163.331 242.432 163.796 241.067 163.966C239.863 164.023 238.687 163.53 237.891 162.62L231.407 155.169C229.406 157.017 227.207 158.638 224.847 160.003C220.78 162.345 217.073 163.435 213.736 163.274C210.503 163.151 207.441 161.824 205.147 159.539C202.512 156.761 200.616 153.368 199.63 149.67C198.246 144.779 197.582 139.707 197.677 134.616C197.715 123.022 200.265 111.57 205.147 101.057C207.422 96.1747 210.304 91.5958 213.736 87.4341C216.836 83.6137 220.599 80.3715 224.847 77.8783C228.904 75.5272 232.601 74.4465 235.938 74.6456C239.152 74.7973 242.204 76.1529 244.47 78.4376C247.096 81.2057 248.992 84.5996 249.969 88.2873C251.362 93.179 252.016 98.2413 251.921 103.323C251.921 106.792 251.694 110.252 251.229 113.684C250.765 117.097 250.092 120.481 249.22 123.818C248.347 127.098 247.276 130.322 245.987 133.459C244.745 136.512 243.295 139.47 241.636 142.314L254.879 156.847ZM210.077 127.459C210.02 130.89 210.352 134.313 211.082 137.669C211.527 140.001 212.504 142.191 213.926 144.087C215.054 145.499 216.741 146.371 218.552 146.466C220.78 146.457 222.951 145.793 224.809 144.57C227.179 143.186 229.283 141.385 231.009 139.252C232.905 136.91 234.45 134.322 235.616 131.545C236.915 128.407 237.872 125.136 238.46 121.79C239.152 118.036 239.484 114.225 239.465 110.414C239.522 107.001 239.19 103.597 238.46 100.261C238.014 97.9285 237.038 95.7386 235.616 93.8426C234.488 92.4301 232.81 91.5484 231.009 91.4252C228.809 91.4062 226.648 92.0414 224.809 93.2453C222.41 94.6389 220.287 96.4591 218.552 98.6205C216.656 100.972 215.092 103.579 213.926 106.366C212.627 109.504 211.679 112.765 211.082 116.111C210.399 119.846 210.058 123.629 210.077 127.421V127.459Z" fill="#FAFAFA"/>
</svg>
